{"glyphs":{"0":{"ha":875,"x_min":60,"x_max":815,"o":"m 158 121 q 109 186 158 121 q 60 496 60 251 q 158 872 60 740 q 438 1003 257 1003 q 717 872 618 1003 q 815 496 815 740 q 717 121 815 251 q 438 -10 619 -10 q 158 121 256 -10 m 306 496 q 438 215 306 215 q 535 287 501 215 q 569 496 569 358 q 535 706 569 633 q 438 779 501 779 q 340 706 374 779 q 306 496 306 632 z "},"1":{"ha":533,"x_min":28,"x_max":442,"o":"m 442 997 l 442 0 l 201 0 l 201 790 l 28 790 l 28 997 l 442 997 z "},"2":{"ha":807,"x_min":31,"x_max":760,"o":"m 451 222 l 760 222 l 760 0 l 61 0 l 61 136 l 340 438 q 417 519 358 457 q 467 593 439 544 q 493 678 493 636 q 467 769 493 742 q 386 797 440 797 q 295 765 328 797 q 263 672 263 732 l 31 672 q 134 917 31 822 q 399 1011 238 1011 q 699 861 607 1011 q 743 699 743 783 q 728 572 743 622 q 664 467 714 528 q 531 311 621 413 l 451 222 z "},"3":{"ha":806,"x_min":31,"x_max":772,"o":"m 393 -12 q 133 76 235 -12 q 31 301 31 164 l 264 301 q 303 216 268 247 q 396 185 338 185 q 492 214 458 185 q 526 297 526 243 q 485 378 526 350 q 368 407 444 407 l 263 407 l 263 606 l 472 769 l 472 774 l 40 774 l 40 997 l 733 1004 l 732 747 l 525 578 q 715 497 657 565 q 772 304 772 428 q 667 75 772 163 q 393 -12 563 -12 z "},"4":{"ha":850,"x_min":11,"x_max":825,"o":"m 825 404 l 825 179 l 690 179 l 690 0 l 453 0 l 453 179 l 11 179 l 11 372 l 496 1010 l 690 1010 l 690 404 l 825 404 m 453 617 l 294 404 l 453 404 l 453 617 z "},"5":{"ha":813,"x_min":31,"x_max":782,"o":"m 411 -14 q 144 81 251 -14 q 31 321 36 175 l 271 321 q 410 217 289 217 q 506 253 478 217 q 535 339 535 289 q 503 426 535 389 q 400 464 472 464 q 316 442 353 464 q 271 393 279 421 l 31 393 l 117 997 l 725 997 l 725 767 l 290 767 l 271 651 q 442 683 338 683 q 695 581 608 683 q 782 338 782 479 q 744 174 782 251 q 619 41 706 96 q 411 -14 532 -14 z "},"6":{"ha":822,"x_min":31,"x_max":792,"o":"m 410 -11 q 138 81 244 -11 q 31 303 31 174 q 56 449 31 390 q 153 606 81 507 l 436 997 l 706 997 l 442 624 l 457 624 q 699 538 606 624 q 792 319 792 451 q 685 85 792 181 q 410 -11 578 -11 m 413 189 q 506 219 468 189 q 543 311 543 250 q 506 406 543 375 q 413 436 468 436 q 319 405 357 436 q 281 311 281 374 q 319 220 281 251 q 413 189 358 189 z "},"7":{"ha":732,"x_min":25,"x_max":717,"o":"m 717 997 l 717 871 l 372 0 l 117 0 l 442 783 l 25 783 l 25 997 l 717 997 z "},"8":{"ha":821,"x_min":33,"x_max":788,"o":"m 788 294 q 684 74 788 161 q 413 -12 581 -12 q 138 74 242 -12 q 33 294 33 161 q 178 515 33 432 q 63 713 63 590 q 159 922 63 839 q 413 1006 256 1006 q 664 922 568 1006 q 760 713 760 839 q 644 515 760 590 q 788 294 788 432 m 308 704 q 335 635 308 661 q 413 610 363 610 q 488 635 461 610 q 514 704 514 661 q 488 780 514 751 q 413 808 461 808 q 336 780 364 808 q 308 704 308 751 m 281 301 q 315 215 281 246 q 413 185 349 185 q 509 216 475 185 q 543 301 543 247 q 508 381 543 350 q 413 413 474 413 q 315 382 350 413 q 281 301 281 351 z "},"9":{"ha":822,"x_min":31,"x_max":792,"o":"m 413 1007 q 685 915 578 1007 q 792 693 792 822 q 766 546 792 607 q 669 390 740 485 l 386 0 l 117 0 l 381 372 l 365 372 q 124 458 218 372 q 31 676 31 544 q 138 912 31 817 q 413 1007 244 1007 m 410 807 q 317 776 354 807 q 279 685 279 746 q 317 591 279 622 q 410 560 354 560 q 503 591 465 560 q 542 685 542 622 q 503 776 542 744 q 410 807 464 807 z "},"ˈ":{"ha":746,"x_min":56,"x_max":690,"o":"m 690 0 l 56 0 l 56 1000 l 690 1000 l 690 0 m 617 649 q 539 731 617 731 q 463 649 463 731 q 482 588 463 611 q 539 565 501 565 q 617 649 617 565 m 204 393 q 128 311 128 393 q 204 229 128 229 q 282 311 282 229 q 204 393 282 393 m 128 865 l 128 776 l 282 776 l 282 811 l 228 811 l 228 889 l 282 889 l 282 924 l 199 924 l 199 883 q 168 924 189 924 q 128 865 128 924 m 347 789 q 296 738 296 789 l 296 642 l 450 642 l 450 675 l 394 675 q 395 700 394 686 q 396 715 396 714 q 347 789 396 789 m 282 104 l 226 104 q 227 129 226 115 q 228 144 228 143 q 179 218 228 218 q 142 203 156 218 q 128 165 128 189 l 128 71 l 282 71 l 282 104 m 617 894 l 617 926 l 463 926 l 463 863 l 617 836 l 463 806 l 463 775 l 617 804 l 617 867 l 464 894 l 617 894 m 128 765 l 128 639 l 282 639 l 282 765 l 250 765 l 250 674 l 218 674 l 218 765 l 189 765 l 189 674 l 160 674 l 160 765 l 128 765 m 326 833 l 326 926 l 296 926 l 296 800 l 450 800 l 450 926 l 418 926 l 418 833 l 386 833 l 386 926 l 357 926 l 357 833 l 326 833 m 617 476 q 561 556 617 542 l 561 521 q 585 476 585 513 q 539 432 585 432 q 494 476 494 432 q 517 521 494 514 l 517 554 q 463 478 463 546 q 483 419 463 440 q 539 397 503 397 q 596 419 575 397 q 617 476 617 440 m 281 453 l 128 429 l 128 394 l 282 418 l 282 486 l 128 513 l 128 478 l 281 453 m 128 546 l 128 513 l 282 540 l 282 608 l 128 629 l 128 594 l 281 575 l 281 574 l 128 546 m 296 493 l 392 533 l 392 546 l 450 546 l 450 579 l 392 579 l 392 592 l 296 631 l 296 594 l 360 568 l 360 557 l 296 529 l 296 493 m 296 338 l 326 338 l 326 393 l 450 393 l 450 426 l 326 426 l 326 482 l 296 482 l 296 338 m 204 360 q 250 311 250 360 q 204 263 250 263 q 160 311 160 263 q 204 360 160 360 m 539 697 q 585 649 585 697 q 539 600 585 600 q 494 649 494 600 q 539 697 494 697 m 463 775 l 463 742 l 617 742 l 617 775 l 463 775 m 364 215 l 399 215 l 399 325 l 364 325 l 364 215 m 178 889 q 199 865 199 889 l 199 811 l 158 811 l 158 865 q 178 889 158 889 m 347 754 q 365 731 365 754 l 365 675 l 326 675 l 326 729 q 347 754 326 754 m 179 182 q 197 160 197 182 l 197 104 l 158 104 l 158 158 q 179 182 158 182 m 597 343 q 617 363 617 343 q 597 382 617 382 l 585 376 q 579 363 579 371 q 597 343 579 343 z "},"̉":{"ha":746,"x_min":56,"x_max":690,"o":"m 690 0 l 56 0 l 56 1000 l 690 1000 l 690 0 m 617 649 q 539 731 617 731 q 463 649 463 731 q 482 588 463 611 q 539 565 501 565 q 617 649 617 565 m 204 393 q 128 311 128 393 q 204 229 128 229 q 282 311 282 229 q 204 393 282 393 m 128 865 l 128 776 l 282 776 l 282 811 l 228 811 l 228 889 l 282 889 l 282 924 l 199 924 l 199 883 q 168 924 189 924 q 128 865 128 924 m 347 789 q 296 738 296 789 l 296 642 l 450 642 l 450 675 l 394 675 q 395 700 394 686 q 396 715 396 714 q 347 789 396 789 m 282 104 l 226 104 q 227 129 226 115 q 228 144 228 143 q 179 218 228 218 q 142 203 156 218 q 128 165 128 189 l 128 71 l 282 71 l 282 104 m 617 894 l 617 926 l 463 926 l 463 863 l 617 836 l 463 806 l 463 775 l 617 804 l 617 867 l 464 894 l 617 894 m 128 765 l 128 639 l 282 639 l 282 765 l 250 765 l 250 674 l 218 674 l 218 765 l 189 765 l 189 674 l 160 674 l 160 765 l 128 765 m 326 833 l 326 926 l 296 926 l 296 800 l 450 800 l 450 926 l 418 926 l 418 833 l 386 833 l 386 926 l 357 926 l 357 833 l 326 833 m 617 476 q 561 556 617 542 l 561 521 q 585 476 585 513 q 539 432 585 432 q 494 476 494 432 q 517 521 494 514 l 517 554 q 463 478 463 546 q 483 419 463 440 q 539 397 503 397 q 596 419 575 397 q 617 476 617 440 m 281 453 l 128 429 l 128 394 l 282 418 l 282 486 l 128 513 l 128 478 l 281 453 m 128 546 l 128 513 l 282 540 l 282 608 l 128 629 l 128 594 l 281 575 l 281 574 l 128 546 m 296 493 l 392 533 l 392 546 l 450 546 l 450 579 l 392 579 l 392 592 l 296 631 l 296 594 l 360 568 l 360 557 l 296 529 l 296 493 m 296 338 l 326 338 l 326 393 l 450 393 l 450 426 l 326 426 l 326 482 l 296 482 l 296 338 m 204 360 q 250 311 250 360 q 204 263 250 263 q 160 311 160 263 q 204 360 160 360 m 539 697 q 585 649 585 697 q 539 600 585 600 q 494 649 494 600 q 539 697 494 697 m 463 775 l 463 742 l 617 742 l 617 775 l 463 775 m 364 215 l 399 215 l 399 325 l 364 325 l 364 215 m 178 889 q 199 865 199 889 l 199 811 l 158 811 l 158 865 q 178 889 158 889 m 347 754 q 365 731 365 754 l 365 675 l 326 675 l 326 729 q 347 754 326 754 m 179 182 q 197 160 197 182 l 197 104 l 158 104 l 158 158 q 179 182 158 182 m 597 343 q 617 363 617 343 q 597 382 617 382 l 585 376 q 579 363 579 371 q 597 343 579 343 z "},"̶":{"ha":746,"x_min":56,"x_max":690,"o":"m 690 0 l 56 0 l 56 1000 l 690 1000 l 690 0 m 617 649 q 539 731 617 731 q 463 649 463 731 q 482 588 463 611 q 539 565 501 565 q 617 649 617 565 m 204 393 q 128 311 128 393 q 204 229 128 229 q 282 311 282 229 q 204 393 282 393 m 128 865 l 128 776 l 282 776 l 282 811 l 228 811 l 228 889 l 282 889 l 282 924 l 199 924 l 199 883 q 168 924 189 924 q 128 865 128 924 m 347 789 q 296 738 296 789 l 296 642 l 450 642 l 450 675 l 394 675 q 395 700 394 686 q 396 715 396 714 q 347 789 396 789 m 282 104 l 226 104 q 227 129 226 115 q 228 144 228 143 q 179 218 228 218 q 142 203 156 218 q 128 165 128 189 l 128 71 l 282 71 l 282 104 m 617 894 l 617 926 l 463 926 l 463 863 l 617 836 l 463 806 l 463 775 l 617 804 l 617 867 l 464 894 l 617 894 m 128 765 l 128 639 l 282 639 l 282 765 l 250 765 l 250 674 l 218 674 l 218 765 l 189 765 l 189 674 l 160 674 l 160 765 l 128 765 m 326 833 l 326 926 l 296 926 l 296 800 l 450 800 l 450 926 l 418 926 l 418 833 l 386 833 l 386 926 l 357 926 l 357 833 l 326 833 m 617 476 q 561 556 617 542 l 561 521 q 585 476 585 513 q 539 432 585 432 q 494 476 494 432 q 517 521 494 514 l 517 554 q 463 478 463 546 q 483 419 463 440 q 539 397 503 397 q 596 419 575 397 q 617 476 617 440 m 281 453 l 128 429 l 128 394 l 282 418 l 282 486 l 128 513 l 128 478 l 281 453 m 128 546 l 128 513 l 282 540 l 282 608 l 128 629 l 128 594 l 281 575 l 281 574 l 128 546 m 296 493 l 392 533 l 392 546 l 450 546 l 450 579 l 392 579 l 392 592 l 296 631 l 296 594 l 360 568 l 360 557 l 296 529 l 296 493 m 296 338 l 326 338 l 326 393 l 450 393 l 450 426 l 326 426 l 326 482 l 296 482 l 296 338 m 204 360 q 250 311 250 360 q 204 263 250 263 q 160 311 160 263 q 204 360 160 360 m 539 697 q 585 649 585 697 q 539 600 585 600 q 494 649 494 600 q 539 697 494 697 m 463 775 l 463 742 l 617 742 l 617 775 l 463 775 m 364 215 l 399 215 l 399 325 l 364 325 l 364 215 m 178 889 q 199 865 199 889 l 199 811 l 158 811 l 158 865 q 178 889 158 889 m 347 754 q 365 731 365 754 l 365 675 l 326 675 l 326 729 q 347 754 326 754 m 179 182 q 197 160 197 182 l 197 104 l 158 104 l 158 158 q 179 182 158 182 m 597 343 q 617 363 617 343 q 597 382 617 382 l 585 376 q 579 363 579 371 q 597 343 579 343 z "},"ν":{"ha":746,"x_min":56,"x_max":690,"o":"m 690 0 l 56 0 l 56 1000 l 690 1000 l 690 0 m 617 649 q 539 731 617 731 q 463 649 463 731 q 482 588 463 611 q 539 565 501 565 q 617 649 617 565 m 204 393 q 128 311 128 393 q 204 229 128 229 q 282 311 282 229 q 204 393 282 393 m 128 865 l 128 776 l 282 776 l 282 811 l 228 811 l 228 889 l 282 889 l 282 924 l 199 924 l 199 883 q 168 924 189 924 q 128 865 128 924 m 347 789 q 296 738 296 789 l 296 642 l 450 642 l 450 675 l 394 675 q 395 700 394 686 q 396 715 396 714 q 347 789 396 789 m 282 104 l 226 104 q 227 129 226 115 q 228 144 228 143 q 179 218 228 218 q 142 203 156 218 q 128 165 128 189 l 128 71 l 282 71 l 282 104 m 617 894 l 617 926 l 463 926 l 463 863 l 617 836 l 463 806 l 463 775 l 617 804 l 617 867 l 464 894 l 617 894 m 128 765 l 128 639 l 282 639 l 282 765 l 250 765 l 250 674 l 218 674 l 218 765 l 189 765 l 189 674 l 160 674 l 160 765 l 128 765 m 326 833 l 326 926 l 296 926 l 296 800 l 450 800 l 450 926 l 418 926 l 418 833 l 386 833 l 386 926 l 357 926 l 357 833 l 326 833 m 617 476 q 561 556 617 542 l 561 521 q 585 476 585 513 q 539 432 585 432 q 494 476 494 432 q 517 521 494 514 l 517 554 q 463 478 463 546 q 483 419 463 440 q 539 397 503 397 q 596 419 575 397 q 617 476 617 440 m 281 453 l 128 429 l 128 394 l 282 418 l 282 486 l 128 513 l 128 478 l 281 453 m 128 546 l 128 513 l 282 540 l 282 608 l 128 629 l 128 594 l 281 575 l 281 574 l 128 546 m 296 493 l 392 533 l 392 546 l 450 546 l 450 579 l 392 579 l 392 592 l 296 631 l 296 594 l 360 568 l 360 557 l 296 529 l 296 493 m 296 338 l 326 338 l 326 393 l 450 393 l 450 426 l 326 426 l 326 482 l 296 482 l 296 338 m 204 360 q 250 311 250 360 q 204 263 250 263 q 160 311 160 263 q 204 360 160 360 m 539 697 q 585 649 585 697 q 539 600 585 600 q 494 649 494 600 q 539 697 494 697 m 463 775 l 463 742 l 617 742 l 617 775 l 463 775 m 364 215 l 399 215 l 399 325 l 364 325 l 364 215 m 178 889 q 199 865 199 889 l 199 811 l 158 811 l 158 865 q 178 889 158 889 m 347 754 q 365 731 365 754 l 365 675 l 326 675 l 326 729 q 347 754 326 754 m 179 182 q 197 160 197 182 l 197 104 l 158 104 l 158 158 q 179 182 158 182 m 597 343 q 617 363 617 343 q 597 382 617 382 l 585 376 q 579 363 579 371 q 597 343 579 343 z "},"ξ":{"ha":746,"x_min":56,"x_max":690,"o":"m 690 0 l 56 0 l 56 1000 l 690 1000 l 690 0 m 617 649 q 539 731 617 731 q 463 649 463 731 q 482 588 463 611 q 539 565 501 565 q 617 649 617 565 m 204 393 q 128 311 128 393 q 204 229 128 229 q 282 311 282 229 q 204 393 282 393 m 128 865 l 128 776 l 282 776 l 282 811 l 228 811 l 228 889 l 282 889 l 282 924 l 199 924 l 199 883 q 168 924 189 924 q 128 865 128 924 m 347 789 q 296 738 296 789 l 296 642 l 450 642 l 450 675 l 394 675 q 395 700 394 686 q 396 715 396 714 q 347 789 396 789 m 282 104 l 226 104 q 227 129 226 115 q 228 144 228 143 q 179 218 228 218 q 142 203 156 218 q 128 165 128 189 l 128 71 l 282 71 l 282 104 m 617 894 l 617 926 l 463 926 l 463 863 l 617 836 l 463 806 l 463 775 l 617 804 l 617 867 l 464 894 l 617 894 m 128 765 l 128 639 l 282 639 l 282 765 l 250 765 l 250 674 l 218 674 l 218 765 l 189 765 l 189 674 l 160 674 l 160 765 l 128 765 m 326 833 l 326 926 l 296 926 l 296 800 l 450 800 l 450 926 l 418 926 l 418 833 l 386 833 l 386 926 l 357 926 l 357 833 l 326 833 m 617 476 q 561 556 617 542 l 561 521 q 585 476 585 513 q 539 432 585 432 q 494 476 494 432 q 517 521 494 514 l 517 554 q 463 478 463 546 q 483 419 463 440 q 539 397 503 397 q 596 419 575 397 q 617 476 617 440 m 281 453 l 128 429 l 128 394 l 282 418 l 282 486 l 128 513 l 128 478 l 281 453 m 128 546 l 128 513 l 282 540 l 282 608 l 128 629 l 128 594 l 281 575 l 281 574 l 128 546 m 296 493 l 392 533 l 392 546 l 450 546 l 450 579 l 392 579 l 392 592 l 296 631 l 296 594 l 360 568 l 360 557 l 296 529 l 296 493 m 296 338 l 326 338 l 326 393 l 450 393 l 450 426 l 326 426 l 326 482 l 296 482 l 296 338 m 204 360 q 250 311 250 360 q 204 263 250 263 q 160 311 160 263 q 204 360 160 360 m 539 697 q 585 649 585 697 q 539 600 585 600 q 494 649 494 600 q 539 697 494 697 m 463 775 l 463 742 l 617 742 l 617 775 l 463 775 m 364 215 l 399 215 l 399 325 l 364 325 l 364 215 m 178 889 q 199 865 199 889 l 199 811 l 158 811 l 158 865 q 178 889 158 889 m 347 754 q 365 731 365 754 l 365 675 l 326 675 l 326 729 q 347 754 326 754 m 179 182 q 197 160 197 182 l 197 104 l 158 104 l 158 158 q 179 182 158 182 m 597 343 q 617 363 617 343 q 597 382 617 382 l 585 376 q 579 363 579 371 q 597 343 579 343 z "},"ο":{"ha":746,"x_min":56,"x_max":690,"o":"m 690 0 l 56 0 l 56 1000 l 690 1000 l 690 0 m 617 649 q 539 731 617 731 q 463 649 463 731 q 482 588 463 611 q 539 565 501 565 q 617 649 617 565 m 204 393 q 128 311 128 393 q 204 229 128 229 q 282 311 282 229 q 204 393 282 393 m 128 865 l 128 776 l 282 776 l 282 811 l 228 811 l 228 889 l 282 889 l 282 924 l 199 924 l 199 883 q 168 924 189 924 q 128 865 128 924 m 347 789 q 296 738 296 789 l 296 642 l 450 642 l 450 675 l 394 675 q 395 700 394 686 q 396 715 396 714 q 347 789 396 789 m 282 104 l 226 104 q 227 129 226 115 q 228 144 228 143 q 179 218 228 218 q 142 203 156 218 q 128 165 128 189 l 128 71 l 282 71 l 282 104 m 617 894 l 617 926 l 463 926 l 463 863 l 617 836 l 463 806 l 463 775 l 617 804 l 617 867 l 464 894 l 617 894 m 128 765 l 128 639 l 282 639 l 282 765 l 250 765 l 250 674 l 218 674 l 218 765 l 189 765 l 189 674 l 160 674 l 160 765 l 128 765 m 326 833 l 326 926 l 296 926 l 296 800 l 450 800 l 450 926 l 418 926 l 418 833 l 386 833 l 386 926 l 357 926 l 357 833 l 326 833 m 617 476 q 561 556 617 542 l 561 521 q 585 476 585 513 q 539 432 585 432 q 494 476 494 432 q 517 521 494 514 l 517 554 q 463 478 463 546 q 483 419 463 440 q 539 397 503 397 q 596 419 575 397 q 617 476 617 440 m 281 453 l 128 429 l 128 394 l 282 418 l 282 486 l 128 513 l 128 478 l 281 453 m 128 546 l 128 513 l 282 540 l 282 608 l 128 629 l 128 594 l 281 575 l 281 574 l 128 546 m 296 493 l 392 533 l 392 546 l 450 546 l 450 579 l 392 579 l 392 592 l 296 631 l 296 594 l 360 568 l 360 557 l 296 529 l 296 493 m 296 338 l 326 338 l 326 393 l 450 393 l 450 426 l 326 426 l 326 482 l 296 482 l 296 338 m 204 360 q 250 311 250 360 q 204 263 250 263 q 160 311 160 263 q 204 360 160 360 m 539 697 q 585 649 585 697 q 539 600 585 600 q 494 649 494 600 q 539 697 494 697 m 463 775 l 463 742 l 617 742 l 617 775 l 463 775 m 364 215 l 399 215 l 399 325 l 364 325 l 364 215 m 178 889 q 199 865 199 889 l 199 811 l 158 811 l 158 865 q 178 889 158 889 m 347 754 q 365 731 365 754 l 365 675 l 326 675 l 326 729 q 347 754 326 754 m 179 182 q 197 160 197 182 l 197 104 l 158 104 l 158 158 q 179 182 158 182 m 597 343 q 617 363 617 343 q 597 382 617 382 l 585 376 q 579 363 579 371 q 597 343 579 343 z "},"―":{"ha":746,"x_min":56,"x_max":690,"o":"m 690 0 l 56 0 l 56 1000 l 690 1000 l 690 0 m 617 649 q 539 731 617 731 q 463 649 463 731 q 482 588 463 611 q 539 565 501 565 q 617 649 617 565 m 204 393 q 128 311 128 393 q 204 229 128 229 q 282 311 282 229 q 204 393 282 393 m 128 865 l 128 776 l 282 776 l 282 811 l 228 811 l 228 889 l 282 889 l 282 924 l 199 924 l 199 883 q 168 924 189 924 q 128 865 128 924 m 347 789 q 296 738 296 789 l 296 642 l 450 642 l 450 675 l 394 675 q 395 700 394 686 q 396 715 396 714 q 347 789 396 789 m 282 104 l 226 104 q 227 129 226 115 q 228 144 228 143 q 179 218 228 218 q 142 203 156 218 q 128 165 128 189 l 128 71 l 282 71 l 282 104 m 617 894 l 617 926 l 463 926 l 463 863 l 617 836 l 463 806 l 463 775 l 617 804 l 617 867 l 464 894 l 617 894 m 128 765 l 128 639 l 282 639 l 282 765 l 250 765 l 250 674 l 218 674 l 218 765 l 189 765 l 189 674 l 160 674 l 160 765 l 128 765 m 326 833 l 326 926 l 296 926 l 296 800 l 450 800 l 450 926 l 418 926 l 418 833 l 386 833 l 386 926 l 357 926 l 357 833 l 326 833 m 617 476 q 561 556 617 542 l 561 521 q 585 476 585 513 q 539 432 585 432 q 494 476 494 432 q 517 521 494 514 l 517 554 q 463 478 463 546 q 483 419 463 440 q 539 397 503 397 q 596 419 575 397 q 617 476 617 440 m 281 453 l 128 429 l 128 394 l 282 418 l 282 486 l 128 513 l 128 478 l 281 453 m 128 546 l 128 513 l 282 540 l 282 608 l 128 629 l 128 594 l 281 575 l 281 574 l 128 546 m 296 493 l 392 533 l 392 546 l 450 546 l 450 579 l 392 579 l 392 592 l 296 631 l 296 594 l 360 568 l 360 557 l 296 529 l 296 493 m 296 338 l 326 338 l 326 393 l 450 393 l 450 426 l 326 426 l 326 482 l 296 482 l 296 338 m 204 360 q 250 311 250 360 q 204 263 250 263 q 160 311 160 263 q 204 360 160 360 m 539 697 q 585 649 585 697 q 539 600 585 600 q 494 649 494 600 q 539 697 494 697 m 463 775 l 463 742 l 617 742 l 617 775 l 463 775 m 364 215 l 399 215 l 399 325 l 364 325 l 364 215 m 178 889 q 199 865 199 889 l 199 811 l 158 811 l 158 865 q 178 889 158 889 m 347 754 q 365 731 365 754 l 365 675 l 326 675 l 326 729 q 347 754 326 754 m 179 182 q 197 160 197 182 l 197 104 l 158 104 l 158 158 q 179 182 158 182 m 597 343 q 617 363 617 343 q 597 382 617 382 l 585 376 q 579 363 579 371 q 597 343 579 343 z "},"‖":{"ha":746,"x_min":56,"x_max":690,"o":"m 690 0 l 56 0 l 56 1000 l 690 1000 l 690 0 m 617 649 q 539 731 617 731 q 463 649 463 731 q 482 588 463 611 q 539 565 501 565 q 617 649 617 565 m 204 393 q 128 311 128 393 q 204 229 128 229 q 282 311 282 229 q 204 393 282 393 m 128 865 l 128 776 l 282 776 l 282 811 l 228 811 l 228 889 l 282 889 l 282 924 l 199 924 l 199 883 q 168 924 189 924 q 128 865 128 924 m 347 789 q 296 738 296 789 l 296 642 l 450 642 l 450 675 l 394 675 q 395 700 394 686 q 396 715 396 714 q 347 789 396 789 m 282 104 l 226 104 q 227 129 226 115 q 228 144 228 143 q 179 218 228 218 q 142 203 156 218 q 128 165 128 189 l 128 71 l 282 71 l 282 104 m 617 894 l 617 926 l 463 926 l 463 863 l 617 836 l 463 806 l 463 775 l 617 804 l 617 867 l 464 894 l 617 894 m 128 765 l 128 639 l 282 639 l 282 765 l 250 765 l 250 674 l 218 674 l 218 765 l 189 765 l 189 674 l 160 674 l 160 765 l 128 765 m 326 833 l 326 926 l 296 926 l 296 800 l 450 800 l 450 926 l 418 926 l 418 833 l 386 833 l 386 926 l 357 926 l 357 833 l 326 833 m 617 476 q 561 556 617 542 l 561 521 q 585 476 585 513 q 539 432 585 432 q 494 476 494 432 q 517 521 494 514 l 517 554 q 463 478 463 546 q 483 419 463 440 q 539 397 503 397 q 596 419 575 397 q 617 476 617 440 m 281 453 l 128 429 l 128 394 l 282 418 l 282 486 l 128 513 l 128 478 l 281 453 m 128 546 l 128 513 l 282 540 l 282 608 l 128 629 l 128 594 l 281 575 l 281 574 l 128 546 m 296 493 l 392 533 l 392 546 l 450 546 l 450 579 l 392 579 l 392 592 l 296 631 l 296 594 l 360 568 l 360 557 l 296 529 l 296 493 m 296 338 l 326 338 l 326 393 l 450 393 l 450 426 l 326 426 l 326 482 l 296 482 l 296 338 m 204 360 q 250 311 250 360 q 204 263 250 263 q 160 311 160 263 q 204 360 160 360 m 539 697 q 585 649 585 697 q 539 600 585 600 q 494 649 494 600 q 539 697 494 697 m 463 775 l 463 742 l 617 742 l 617 775 l 463 775 m 364 215 l 399 215 l 399 325 l 364 325 l 364 215 m 178 889 q 199 865 199 889 l 199 811 l 158 811 l 158 865 q 178 889 158 889 m 347 754 q 365 731 365 754 l 365 675 l 326 675 l 326 729 q 347 754 326 754 m 179 182 q 197 160 197 182 l 197 104 l 158 104 l 158 158 q 179 182 158 182 m 597 343 q 617 363 617 343 q 597 382 617 382 l 585 376 q 579 363 579 371 q 597 343 579 343 z "},"‗":{"ha":746,"x_min":56,"x_max":690,"o":"m 690 0 l 56 0 l 56 1000 l 690 1000 l 690 0 m 617 649 q 539 731 617 731 q 463 649 463 731 q 482 588 463 611 q 539 565 501 565 q 617 649 617 565 m 204 393 q 128 311 128 393 q 204 229 128 229 q 282 311 282 229 q 204 393 282 393 m 128 865 l 128 776 l 282 776 l 282 811 l 228 811 l 228 889 l 282 889 l 282 924 l 199 924 l 199 883 q 168 924 189 924 q 128 865 128 924 m 347 789 q 296 738 296 789 l 296 642 l 450 642 l 450 675 l 394 675 q 395 700 394 686 q 396 715 396 714 q 347 789 396 789 m 282 104 l 226 104 q 227 129 226 115 q 228 144 228 143 q 179 218 228 218 q 142 203 156 218 q 128 165 128 189 l 128 71 l 282 71 l 282 104 m 617 894 l 617 926 l 463 926 l 463 863 l 617 836 l 463 806 l 463 775 l 617 804 l 617 867 l 464 894 l 617 894 m 128 765 l 128 639 l 282 639 l 282 765 l 250 765 l 250 674 l 218 674 l 218 765 l 189 765 l 189 674 l 160 674 l 160 765 l 128 765 m 326 833 l 326 926 l 296 926 l 296 800 l 450 800 l 450 926 l 418 926 l 418 833 l 386 833 l 386 926 l 357 926 l 357 833 l 326 833 m 617 476 q 561 556 617 542 l 561 521 q 585 476 585 513 q 539 432 585 432 q 494 476 494 432 q 517 521 494 514 l 517 554 q 463 478 463 546 q 483 419 463 440 q 539 397 503 397 q 596 419 575 397 q 617 476 617 440 m 281 453 l 128 429 l 128 394 l 282 418 l 282 486 l 128 513 l 128 478 l 281 453 m 128 546 l 128 513 l 282 540 l 282 608 l 128 629 l 128 594 l 281 575 l 281 574 l 128 546 m 296 493 l 392 533 l 392 546 l 450 546 l 450 579 l 392 579 l 392 592 l 296 631 l 296 594 l 360 568 l 360 557 l 296 529 l 296 493 m 296 338 l 326 338 l 326 393 l 450 393 l 450 426 l 326 426 l 326 482 l 296 482 l 296 338 m 204 360 q 250 311 250 360 q 204 263 250 263 q 160 311 160 263 q 204 360 160 360 m 539 697 q 585 649 585 697 q 539 600 585 600 q 494 649 494 600 q 539 697 494 697 m 463 775 l 463 742 l 617 742 l 617 775 l 463 775 m 364 215 l 399 215 l 399 325 l 364 325 l 364 215 m 178 889 q 199 865 199 889 l 199 811 l 158 811 l 158 865 q 178 889 158 889 m 347 754 q 365 731 365 754 l 365 675 l 326 675 l 326 729 q 347 754 326 754 m 179 182 q 197 160 197 182 l 197 104 l 158 104 l 158 158 q 179 182 158 182 m 597 343 q 617 363 617 343 q 597 382 617 382 l 585 376 q 579 363 579 371 q 597 343 579 343 z "},"‛":{"ha":746,"x_min":56,"x_max":690,"o":"m 690 0 l 56 0 l 56 1000 l 690 1000 l 690 0 m 617 649 q 539 731 617 731 q 463 649 463 731 q 482 588 463 611 q 539 565 501 565 q 617 649 617 565 m 204 393 q 128 311 128 393 q 204 229 128 229 q 282 311 282 229 q 204 393 282 393 m 128 865 l 128 776 l 282 776 l 282 811 l 228 811 l 228 889 l 282 889 l 282 924 l 199 924 l 199 883 q 168 924 189 924 q 128 865 128 924 m 347 789 q 296 738 296 789 l 296 642 l 450 642 l 450 675 l 394 675 q 395 700 394 686 q 396 715 396 714 q 347 789 396 789 m 282 104 l 226 104 q 227 129 226 115 q 228 144 228 143 q 179 218 228 218 q 142 203 156 218 q 128 165 128 189 l 128 71 l 282 71 l 282 104 m 617 894 l 617 926 l 463 926 l 463 863 l 617 836 l 463 806 l 463 775 l 617 804 l 617 867 l 464 894 l 617 894 m 128 765 l 128 639 l 282 639 l 282 765 l 250 765 l 250 674 l 218 674 l 218 765 l 189 765 l 189 674 l 160 674 l 160 765 l 128 765 m 326 833 l 326 926 l 296 926 l 296 800 l 450 800 l 450 926 l 418 926 l 418 833 l 386 833 l 386 926 l 357 926 l 357 833 l 326 833 m 617 476 q 561 556 617 542 l 561 521 q 585 476 585 513 q 539 432 585 432 q 494 476 494 432 q 517 521 494 514 l 517 554 q 463 478 463 546 q 483 419 463 440 q 539 397 503 397 q 596 419 575 397 q 617 476 617 440 m 281 453 l 128 429 l 128 394 l 282 418 l 282 486 l 128 513 l 128 478 l 281 453 m 128 546 l 128 513 l 282 540 l 282 608 l 128 629 l 128 594 l 281 575 l 281 574 l 128 546 m 296 493 l 392 533 l 392 546 l 450 546 l 450 579 l 392 579 l 392 592 l 296 631 l 296 594 l 360 568 l 360 557 l 296 529 l 296 493 m 296 338 l 326 338 l 326 393 l 450 393 l 450 426 l 326 426 l 326 482 l 296 482 l 296 338 m 204 360 q 250 311 250 360 q 204 263 250 263 q 160 311 160 263 q 204 360 160 360 m 539 697 q 585 649 585 697 q 539 600 585 600 q 494 649 494 600 q 539 697 494 697 m 463 775 l 463 742 l 617 742 l 617 775 l 463 775 m 364 215 l 399 215 l 399 325 l 364 325 l 364 215 m 178 889 q 199 865 199 889 l 199 811 l 158 811 l 158 865 q 178 889 158 889 m 347 754 q 365 731 365 754 l 365 675 l 326 675 l 326 729 q 347 754 326 754 m 179 182 q 197 160 197 182 l 197 104 l 158 104 l 158 158 q 179 182 158 182 m 597 343 q 617 363 617 343 q 597 382 617 382 l 585 376 q 579 363 579 371 q 597 343 579 343 z "},"‟":{"ha":746,"x_min":56,"x_max":690,"o":"m 690 0 l 56 0 l 56 1000 l 690 1000 l 690 0 m 617 649 q 539 731 617 731 q 463 649 463 731 q 482 588 463 611 q 539 565 501 565 q 617 649 617 565 m 204 393 q 128 311 128 393 q 204 229 128 229 q 282 311 282 229 q 204 393 282 393 m 128 865 l 128 776 l 282 776 l 282 811 l 228 811 l 228 889 l 282 889 l 282 924 l 199 924 l 199 883 q 168 924 189 924 q 128 865 128 924 m 347 789 q 296 738 296 789 l 296 642 l 450 642 l 450 675 l 394 675 q 395 700 394 686 q 396 715 396 714 q 347 789 396 789 m 282 104 l 226 104 q 227 129 226 115 q 228 144 228 143 q 179 218 228 218 q 142 203 156 218 q 128 165 128 189 l 128 71 l 282 71 l 282 104 m 617 894 l 617 926 l 463 926 l 463 863 l 617 836 l 463 806 l 463 775 l 617 804 l 617 867 l 464 894 l 617 894 m 128 765 l 128 639 l 282 639 l 282 765 l 250 765 l 250 674 l 218 674 l 218 765 l 189 765 l 189 674 l 160 674 l 160 765 l 128 765 m 326 833 l 326 926 l 296 926 l 296 800 l 450 800 l 450 926 l 418 926 l 418 833 l 386 833 l 386 926 l 357 926 l 357 833 l 326 833 m 617 476 q 561 556 617 542 l 561 521 q 585 476 585 513 q 539 432 585 432 q 494 476 494 432 q 517 521 494 514 l 517 554 q 463 478 463 546 q 483 419 463 440 q 539 397 503 397 q 596 419 575 397 q 617 476 617 440 m 281 453 l 128 429 l 128 394 l 282 418 l 282 486 l 128 513 l 128 478 l 281 453 m 128 546 l 128 513 l 282 540 l 282 608 l 128 629 l 128 594 l 281 575 l 281 574 l 128 546 m 296 493 l 392 533 l 392 546 l 450 546 l 450 579 l 392 579 l 392 592 l 296 631 l 296 594 l 360 568 l 360 557 l 296 529 l 296 493 m 296 338 l 326 338 l 326 393 l 450 393 l 450 426 l 326 426 l 326 482 l 296 482 l 296 338 m 204 360 q 250 311 250 360 q 204 263 250 263 q 160 311 160 263 q 204 360 160 360 m 539 697 q 585 649 585 697 q 539 600 585 600 q 494 649 494 600 q 539 697 494 697 m 463 775 l 463 742 l 617 742 l 617 775 l 463 775 m 364 215 l 399 215 l 399 325 l 364 325 l 364 215 m 178 889 q 199 865 199 889 l 199 811 l 158 811 l 158 865 q 178 889 158 889 m 347 754 q 365 731 365 754 l 365 675 l 326 675 l 326 729 q 347 754 326 754 m 179 182 q 197 160 197 182 l 197 104 l 158 104 l 158 158 q 179 182 158 182 m 597 343 q 617 363 617 343 q 597 382 617 382 l 585 376 q 579 363 579 371 q 597 343 579 343 z "},"‣":{"ha":746,"x_min":56,"x_max":690,"o":"m 690 0 l 56 0 l 56 1000 l 690 1000 l 690 0 m 617 649 q 539 731 617 731 q 463 649 463 731 q 482 588 463 611 q 539 565 501 565 q 617 649 617 565 m 204 393 q 128 311 128 393 q 204 229 128 229 q 282 311 282 229 q 204 393 282 393 m 128 865 l 128 776 l 282 776 l 282 811 l 228 811 l 228 889 l 282 889 l 282 924 l 199 924 l 199 883 q 168 924 189 924 q 128 865 128 924 m 347 789 q 296 738 296 789 l 296 642 l 450 642 l 450 675 l 394 675 q 395 700 394 686 q 396 715 396 714 q 347 789 396 789 m 282 104 l 226 104 q 227 129 226 115 q 228 144 228 143 q 179 218 228 218 q 142 203 156 218 q 128 165 128 189 l 128 71 l 282 71 l 282 104 m 617 894 l 617 926 l 463 926 l 463 863 l 617 836 l 463 806 l 463 775 l 617 804 l 617 867 l 464 894 l 617 894 m 128 765 l 128 639 l 282 639 l 282 765 l 250 765 l 250 674 l 218 674 l 218 765 l 189 765 l 189 674 l 160 674 l 160 765 l 128 765 m 326 833 l 326 926 l 296 926 l 296 800 l 450 800 l 450 926 l 418 926 l 418 833 l 386 833 l 386 926 l 357 926 l 357 833 l 326 833 m 617 476 q 561 556 617 542 l 561 521 q 585 476 585 513 q 539 432 585 432 q 494 476 494 432 q 517 521 494 514 l 517 554 q 463 478 463 546 q 483 419 463 440 q 539 397 503 397 q 596 419 575 397 q 617 476 617 440 m 281 453 l 128 429 l 128 394 l 282 418 l 282 486 l 128 513 l 128 478 l 281 453 m 128 546 l 128 513 l 282 540 l 282 608 l 128 629 l 128 594 l 281 575 l 281 574 l 128 546 m 296 493 l 392 533 l 392 546 l 450 546 l 450 579 l 392 579 l 392 592 l 296 631 l 296 594 l 360 568 l 360 557 l 296 529 l 296 493 m 296 338 l 326 338 l 326 393 l 450 393 l 450 426 l 326 426 l 326 482 l 296 482 l 296 338 m 204 360 q 250 311 250 360 q 204 263 250 263 q 160 311 160 263 q 204 360 160 360 m 539 697 q 585 649 585 697 q 539 600 585 600 q 494 649 494 600 q 539 697 494 697 m 463 775 l 463 742 l 617 742 l 617 775 l 463 775 m 364 215 l 399 215 l 399 325 l 364 325 l 364 215 m 178 889 q 199 865 199 889 l 199 811 l 158 811 l 158 865 q 178 889 158 889 m 347 754 q 365 731 365 754 l 365 675 l 326 675 l 326 729 q 347 754 326 754 m 179 182 q 197 160 197 182 l 197 104 l 158 104 l 158 158 q 179 182 158 182 m 597 343 q 617 363 617 343 q 597 382 617 382 l 585 376 q 579 363 579 371 q 597 343 579 343 z "},"․":{"ha":746,"x_min":56,"x_max":690,"o":"m 690 0 l 56 0 l 56 1000 l 690 1000 l 690 0 m 617 649 q 539 731 617 731 q 463 649 463 731 q 482 588 463 611 q 539 565 501 565 q 617 649 617 565 m 204 393 q 128 311 128 393 q 204 229 128 229 q 282 311 282 229 q 204 393 282 393 m 128 865 l 128 776 l 282 776 l 282 811 l 228 811 l 228 889 l 282 889 l 282 924 l 199 924 l 199 883 q 168 924 189 924 q 128 865 128 924 m 347 789 q 296 738 296 789 l 296 642 l 450 642 l 450 675 l 394 675 q 395 700 394 686 q 396 715 396 714 q 347 789 396 789 m 282 104 l 226 104 q 227 129 226 115 q 228 144 228 143 q 179 218 228 218 q 142 203 156 218 q 128 165 128 189 l 128 71 l 282 71 l 282 104 m 617 894 l 617 926 l 463 926 l 463 863 l 617 836 l 463 806 l 463 775 l 617 804 l 617 867 l 464 894 l 617 894 m 128 765 l 128 639 l 282 639 l 282 765 l 250 765 l 250 674 l 218 674 l 218 765 l 189 765 l 189 674 l 160 674 l 160 765 l 128 765 m 326 833 l 326 926 l 296 926 l 296 800 l 450 800 l 450 926 l 418 926 l 418 833 l 386 833 l 386 926 l 357 926 l 357 833 l 326 833 m 617 476 q 561 556 617 542 l 561 521 q 585 476 585 513 q 539 432 585 432 q 494 476 494 432 q 517 521 494 514 l 517 554 q 463 478 463 546 q 483 419 463 440 q 539 397 503 397 q 596 419 575 397 q 617 476 617 440 m 281 453 l 128 429 l 128 394 l 282 418 l 282 486 l 128 513 l 128 478 l 281 453 m 128 546 l 128 513 l 282 540 l 282 608 l 128 629 l 128 594 l 281 575 l 281 574 l 128 546 m 296 493 l 392 533 l 392 546 l 450 546 l 450 579 l 392 579 l 392 592 l 296 631 l 296 594 l 360 568 l 360 557 l 296 529 l 296 493 m 296 338 l 326 338 l 326 393 l 450 393 l 450 426 l 326 426 l 326 482 l 296 482 l 296 338 m 204 360 q 250 311 250 360 q 204 263 250 263 q 160 311 160 263 q 204 360 160 360 m 539 697 q 585 649 585 697 q 539 600 585 600 q 494 649 494 600 q 539 697 494 697 m 463 775 l 463 742 l 617 742 l 617 775 l 463 775 m 364 215 l 399 215 l 399 325 l 364 325 l 364 215 m 178 889 q 199 865 199 889 l 199 811 l 158 811 l 158 865 q 178 889 158 889 m 347 754 q 365 731 365 754 l 365 675 l 326 675 l 326 729 q 347 754 326 754 m 179 182 q 197 160 197 182 l 197 104 l 158 104 l 158 158 q 179 182 158 182 m 597 343 q 617 363 617 343 q 597 382 617 382 l 585 376 q 579 363 579 371 q 597 343 579 343 z "},"‥":{"ha":746,"x_min":56,"x_max":690,"o":"m 690 0 l 56 0 l 56 1000 l 690 1000 l 690 0 m 617 649 q 539 731 617 731 q 463 649 463 731 q 482 588 463 611 q 539 565 501 565 q 617 649 617 565 m 204 393 q 128 311 128 393 q 204 229 128 229 q 282 311 282 229 q 204 393 282 393 m 128 865 l 128 776 l 282 776 l 282 811 l 228 811 l 228 889 l 282 889 l 282 924 l 199 924 l 199 883 q 168 924 189 924 q 128 865 128 924 m 347 789 q 296 738 296 789 l 296 642 l 450 642 l 450 675 l 394 675 q 395 700 394 686 q 396 715 396 714 q 347 789 396 789 m 282 104 l 226 104 q 227 129 226 115 q 228 144 228 143 q 179 218 228 218 q 142 203 156 218 q 128 165 128 189 l 128 71 l 282 71 l 282 104 m 617 894 l 617 926 l 463 926 l 463 863 l 617 836 l 463 806 l 463 775 l 617 804 l 617 867 l 464 894 l 617 894 m 128 765 l 128 639 l 282 639 l 282 765 l 250 765 l 250 674 l 218 674 l 218 765 l 189 765 l 189 674 l 160 674 l 160 765 l 128 765 m 326 833 l 326 926 l 296 926 l 296 800 l 450 800 l 450 926 l 418 926 l 418 833 l 386 833 l 386 926 l 357 926 l 357 833 l 326 833 m 617 476 q 561 556 617 542 l 561 521 q 585 476 585 513 q 539 432 585 432 q 494 476 494 432 q 517 521 494 514 l 517 554 q 463 478 463 546 q 483 419 463 440 q 539 397 503 397 q 596 419 575 397 q 617 476 617 440 m 281 453 l 128 429 l 128 394 l 282 418 l 282 486 l 128 513 l 128 478 l 281 453 m 128 546 l 128 513 l 282 540 l 282 608 l 128 629 l 128 594 l 281 575 l 281 574 l 128 546 m 296 493 l 392 533 l 392 546 l 450 546 l 450 579 l 392 579 l 392 592 l 296 631 l 296 594 l 360 568 l 360 557 l 296 529 l 296 493 m 296 338 l 326 338 l 326 393 l 450 393 l 450 426 l 326 426 l 326 482 l 296 482 l 296 338 m 204 360 q 250 311 250 360 q 204 263 250 263 q 160 311 160 263 q 204 360 160 360 m 539 697 q 585 649 585 697 q 539 600 585 600 q 494 649 494 600 q 539 697 494 697 m 463 775 l 463 742 l 617 742 l 617 775 l 463 775 m 364 215 l 399 215 l 399 325 l 364 325 l 364 215 m 178 889 q 199 865 199 889 l 199 811 l 158 811 l 158 865 q 178 889 158 889 m 347 754 q 365 731 365 754 l 365 675 l 326 675 l 326 729 q 347 754 326 754 m 179 182 q 197 160 197 182 l 197 104 l 158 104 l 158 158 q 179 182 158 182 m 597 343 q 617 363 617 343 q 597 382 617 382 l 585 376 q 579 363 579 371 q 597 343 579 343 z "},"₻":{"ha":746,"x_min":56,"x_max":690,"o":"m 690 0 l 56 0 l 56 1000 l 690 1000 l 690 0 m 617 649 q 539 731 617 731 q 463 649 463 731 q 482 588 463 611 q 539 565 501 565 q 617 649 617 565 m 204 393 q 128 311 128 393 q 204 229 128 229 q 282 311 282 229 q 204 393 282 393 m 128 865 l 128 776 l 282 776 l 282 811 l 228 811 l 228 889 l 282 889 l 282 924 l 199 924 l 199 883 q 168 924 189 924 q 128 865 128 924 m 347 789 q 296 738 296 789 l 296 642 l 450 642 l 450 675 l 394 675 q 395 700 394 686 q 396 715 396 714 q 347 789 396 789 m 282 104 l 226 104 q 227 129 226 115 q 228 144 228 143 q 179 218 228 218 q 142 203 156 218 q 128 165 128 189 l 128 71 l 282 71 l 282 104 m 617 894 l 617 926 l 463 926 l 463 863 l 617 836 l 463 806 l 463 775 l 617 804 l 617 867 l 464 894 l 617 894 m 128 765 l 128 639 l 282 639 l 282 765 l 250 765 l 250 674 l 218 674 l 218 765 l 189 765 l 189 674 l 160 674 l 160 765 l 128 765 m 326 833 l 326 926 l 296 926 l 296 800 l 450 800 l 450 926 l 418 926 l 418 833 l 386 833 l 386 926 l 357 926 l 357 833 l 326 833 m 617 476 q 561 556 617 542 l 561 521 q 585 476 585 513 q 539 432 585 432 q 494 476 494 432 q 517 521 494 514 l 517 554 q 463 478 463 546 q 483 419 463 440 q 539 397 503 397 q 596 419 575 397 q 617 476 617 440 m 281 453 l 128 429 l 128 394 l 282 418 l 282 486 l 128 513 l 128 478 l 281 453 m 128 546 l 128 513 l 282 540 l 282 608 l 128 629 l 128 594 l 281 575 l 281 574 l 128 546 m 296 493 l 392 533 l 392 546 l 450 546 l 450 579 l 392 579 l 392 592 l 296 631 l 296 594 l 360 568 l 360 557 l 296 529 l 296 493 m 296 338 l 326 338 l 326 393 l 450 393 l 450 426 l 326 426 l 326 482 l 296 482 l 296 338 m 204 360 q 250 311 250 360 q 204 263 250 263 q 160 311 160 263 q 204 360 160 360 m 539 697 q 585 649 585 697 q 539 600 585 600 q 494 649 494 600 q 539 697 494 697 m 463 775 l 463 742 l 617 742 l 617 775 l 463 775 m 364 215 l 399 215 l 399 325 l 364 325 l 364 215 m 178 889 q 199 865 199 889 l 199 811 l 158 811 l 158 865 q 178 889 158 889 m 347 754 q 365 731 365 754 l 365 675 l 326 675 l 326 729 q 347 754 326 754 m 179 182 q 197 160 197 182 l 197 104 l 158 104 l 158 158 q 179 182 158 182 m 597 343 q 617 363 617 343 q 597 382 617 382 l 585 376 q 579 363 579 371 q 597 343 579 343 z "},"₼":{"ha":746,"x_min":56,"x_max":690,"o":"m 690 0 l 56 0 l 56 1000 l 690 1000 l 690 0 m 617 649 q 539 731 617 731 q 463 649 463 731 q 482 588 463 611 q 539 565 501 565 q 617 649 617 565 m 204 393 q 128 311 128 393 q 204 229 128 229 q 282 311 282 229 q 204 393 282 393 m 128 865 l 128 776 l 282 776 l 282 811 l 228 811 l 228 889 l 282 889 l 282 924 l 199 924 l 199 883 q 168 924 189 924 q 128 865 128 924 m 347 789 q 296 738 296 789 l 296 642 l 450 642 l 450 675 l 394 675 q 395 700 394 686 q 396 715 396 714 q 347 789 396 789 m 282 104 l 226 104 q 227 129 226 115 q 228 144 228 143 q 179 218 228 218 q 142 203 156 218 q 128 165 128 189 l 128 71 l 282 71 l 282 104 m 617 894 l 617 926 l 463 926 l 463 863 l 617 836 l 463 806 l 463 775 l 617 804 l 617 867 l 464 894 l 617 894 m 128 765 l 128 639 l 282 639 l 282 765 l 250 765 l 250 674 l 218 674 l 218 765 l 189 765 l 189 674 l 160 674 l 160 765 l 128 765 m 326 833 l 326 926 l 296 926 l 296 800 l 450 800 l 450 926 l 418 926 l 418 833 l 386 833 l 386 926 l 357 926 l 357 833 l 326 833 m 617 476 q 561 556 617 542 l 561 521 q 585 476 585 513 q 539 432 585 432 q 494 476 494 432 q 517 521 494 514 l 517 554 q 463 478 463 546 q 483 419 463 440 q 539 397 503 397 q 596 419 575 397 q 617 476 617 440 m 281 453 l 128 429 l 128 394 l 282 418 l 282 486 l 128 513 l 128 478 l 281 453 m 128 546 l 128 513 l 282 540 l 282 608 l 128 629 l 128 594 l 281 575 l 281 574 l 128 546 m 296 493 l 392 533 l 392 546 l 450 546 l 450 579 l 392 579 l 392 592 l 296 631 l 296 594 l 360 568 l 360 557 l 296 529 l 296 493 m 296 338 l 326 338 l 326 393 l 450 393 l 450 426 l 326 426 l 326 482 l 296 482 l 296 338 m 204 360 q 250 311 250 360 q 204 263 250 263 q 160 311 160 263 q 204 360 160 360 m 539 697 q 585 649 585 697 q 539 600 585 600 q 494 649 494 600 q 539 697 494 697 m 463 775 l 463 742 l 617 742 l 617 775 l 463 775 m 364 215 l 399 215 l 399 325 l 364 325 l 364 215 m 178 889 q 199 865 199 889 l 199 811 l 158 811 l 158 865 q 178 889 158 889 m 347 754 q 365 731 365 754 l 365 675 l 326 675 l 326 729 q 347 754 326 754 m 179 182 q 197 160 197 182 l 197 104 l 158 104 l 158 158 q 179 182 158 182 m 597 343 q 617 363 617 343 q 597 382 617 382 l 585 376 q 579 363 579 371 q 597 343 579 343 z "},"⇅":{"ha":746,"x_min":56,"x_max":690,"o":"m 690 0 l 56 0 l 56 1000 l 690 1000 l 690 0 m 617 649 q 539 731 617 731 q 463 649 463 731 q 482 588 463 611 q 539 565 501 565 q 617 649 617 565 m 204 393 q 128 311 128 393 q 204 229 128 229 q 282 311 282 229 q 204 393 282 393 m 128 865 l 128 776 l 282 776 l 282 811 l 228 811 l 228 889 l 282 889 l 282 924 l 199 924 l 199 883 q 168 924 189 924 q 128 865 128 924 m 347 789 q 296 738 296 789 l 296 642 l 450 642 l 450 675 l 394 675 q 395 700 394 686 q 396 715 396 714 q 347 789 396 789 m 282 104 l 226 104 q 227 129 226 115 q 228 144 228 143 q 179 218 228 218 q 142 203 156 218 q 128 165 128 189 l 128 71 l 282 71 l 282 104 m 617 894 l 617 926 l 463 926 l 463 863 l 617 836 l 463 806 l 463 775 l 617 804 l 617 867 l 464 894 l 617 894 m 128 765 l 128 639 l 282 639 l 282 765 l 250 765 l 250 674 l 218 674 l 218 765 l 189 765 l 189 674 l 160 674 l 160 765 l 128 765 m 326 833 l 326 926 l 296 926 l 296 800 l 450 800 l 450 926 l 418 926 l 418 833 l 386 833 l 386 926 l 357 926 l 357 833 l 326 833 m 617 476 q 561 556 617 542 l 561 521 q 585 476 585 513 q 539 432 585 432 q 494 476 494 432 q 517 521 494 514 l 517 554 q 463 478 463 546 q 483 419 463 440 q 539 397 503 397 q 596 419 575 397 q 617 476 617 440 m 281 453 l 128 429 l 128 394 l 282 418 l 282 486 l 128 513 l 128 478 l 281 453 m 128 546 l 128 513 l 282 540 l 282 608 l 128 629 l 128 594 l 281 575 l 281 574 l 128 546 m 296 493 l 392 533 l 392 546 l 450 546 l 450 579 l 392 579 l 392 592 l 296 631 l 296 594 l 360 568 l 360 557 l 296 529 l 296 493 m 296 338 l 326 338 l 326 393 l 450 393 l 450 426 l 326 426 l 326 482 l 296 482 l 296 338 m 204 360 q 250 311 250 360 q 204 263 250 263 q 160 311 160 263 q 204 360 160 360 m 539 697 q 585 649 585 697 q 539 600 585 600 q 494 649 494 600 q 539 697 494 697 m 463 775 l 463 742 l 617 742 l 617 775 l 463 775 m 364 215 l 399 215 l 399 325 l 364 325 l 364 215 m 178 889 q 199 865 199 889 l 199 811 l 158 811 l 158 865 q 178 889 158 889 m 347 754 q 365 731 365 754 l 365 675 l 326 675 l 326 729 q 347 754 326 754 m 179 182 q 197 160 197 182 l 197 104 l 158 104 l 158 158 q 179 182 158 182 m 597 343 q 617 363 617 343 q 597 382 617 382 l 585 376 q 579 363 579 371 q 597 343 579 343 z "},"∃":{"ha":746,"x_min":56,"x_max":690,"o":"m 690 0 l 56 0 l 56 1000 l 690 1000 l 690 0 m 617 649 q 539 731 617 731 q 463 649 463 731 q 482 588 463 611 q 539 565 501 565 q 617 649 617 565 m 204 393 q 128 311 128 393 q 204 229 128 229 q 282 311 282 229 q 204 393 282 393 m 128 865 l 128 776 l 282 776 l 282 811 l 228 811 l 228 889 l 282 889 l 282 924 l 199 924 l 199 883 q 168 924 189 924 q 128 865 128 924 m 347 789 q 296 738 296 789 l 296 642 l 450 642 l 450 675 l 394 675 q 395 700 394 686 q 396 715 396 714 q 347 789 396 789 m 282 104 l 226 104 q 227 129 226 115 q 228 144 228 143 q 179 218 228 218 q 142 203 156 218 q 128 165 128 189 l 128 71 l 282 71 l 282 104 m 617 894 l 617 926 l 463 926 l 463 863 l 617 836 l 463 806 l 463 775 l 617 804 l 617 867 l 464 894 l 617 894 m 128 765 l 128 639 l 282 639 l 282 765 l 250 765 l 250 674 l 218 674 l 218 765 l 189 765 l 189 674 l 160 674 l 160 765 l 128 765 m 326 833 l 326 926 l 296 926 l 296 800 l 450 800 l 450 926 l 418 926 l 418 833 l 386 833 l 386 926 l 357 926 l 357 833 l 326 833 m 617 476 q 561 556 617 542 l 561 521 q 585 476 585 513 q 539 432 585 432 q 494 476 494 432 q 517 521 494 514 l 517 554 q 463 478 463 546 q 483 419 463 440 q 539 397 503 397 q 596 419 575 397 q 617 476 617 440 m 281 453 l 128 429 l 128 394 l 282 418 l 282 486 l 128 513 l 128 478 l 281 453 m 128 546 l 128 513 l 282 540 l 282 608 l 128 629 l 128 594 l 281 575 l 281 574 l 128 546 m 296 493 l 392 533 l 392 546 l 450 546 l 450 579 l 392 579 l 392 592 l 296 631 l 296 594 l 360 568 l 360 557 l 296 529 l 296 493 m 296 338 l 326 338 l 326 393 l 450 393 l 450 426 l 326 426 l 326 482 l 296 482 l 296 338 m 204 360 q 250 311 250 360 q 204 263 250 263 q 160 311 160 263 q 204 360 160 360 m 539 697 q 585 649 585 697 q 539 600 585 600 q 494 649 494 600 q 539 697 494 697 m 463 775 l 463 742 l 617 742 l 617 775 l 463 775 m 364 215 l 399 215 l 399 325 l 364 325 l 364 215 m 178 889 q 199 865 199 889 l 199 811 l 158 811 l 158 865 q 178 889 158 889 m 347 754 q 365 731 365 754 l 365 675 l 326 675 l 326 729 q 347 754 326 754 m 179 182 q 197 160 197 182 l 197 104 l 158 104 l 158 158 q 179 182 158 182 m 597 343 q 617 363 617 343 q 597 382 617 382 l 585 376 q 579 363 579 371 q 597 343 579 343 z "},"∄":{"ha":746,"x_min":56,"x_max":690,"o":"m 690 0 l 56 0 l 56 1000 l 690 1000 l 690 0 m 617 649 q 539 731 617 731 q 463 649 463 731 q 482 588 463 611 q 539 565 501 565 q 617 649 617 565 m 204 393 q 128 311 128 393 q 204 229 128 229 q 282 311 282 229 q 204 393 282 393 m 128 865 l 128 776 l 282 776 l 282 811 l 228 811 l 228 889 l 282 889 l 282 924 l 199 924 l 199 883 q 168 924 189 924 q 128 865 128 924 m 347 789 q 296 738 296 789 l 296 642 l 450 642 l 450 675 l 394 675 q 395 700 394 686 q 396 715 396 714 q 347 789 396 789 m 282 104 l 226 104 q 227 129 226 115 q 228 144 228 143 q 179 218 228 218 q 142 203 156 218 q 128 165 128 189 l 128 71 l 282 71 l 282 104 m 617 894 l 617 926 l 463 926 l 463 863 l 617 836 l 463 806 l 463 775 l 617 804 l 617 867 l 464 894 l 617 894 m 128 765 l 128 639 l 282 639 l 282 765 l 250 765 l 250 674 l 218 674 l 218 765 l 189 765 l 189 674 l 160 674 l 160 765 l 128 765 m 326 833 l 326 926 l 296 926 l 296 800 l 450 800 l 450 926 l 418 926 l 418 833 l 386 833 l 386 926 l 357 926 l 357 833 l 326 833 m 617 476 q 561 556 617 542 l 561 521 q 585 476 585 513 q 539 432 585 432 q 494 476 494 432 q 517 521 494 514 l 517 554 q 463 478 463 546 q 483 419 463 440 q 539 397 503 397 q 596 419 575 397 q 617 476 617 440 m 281 453 l 128 429 l 128 394 l 282 418 l 282 486 l 128 513 l 128 478 l 281 453 m 128 546 l 128 513 l 282 540 l 282 608 l 128 629 l 128 594 l 281 575 l 281 574 l 128 546 m 296 493 l 392 533 l 392 546 l 450 546 l 450 579 l 392 579 l 392 592 l 296 631 l 296 594 l 360 568 l 360 557 l 296 529 l 296 493 m 296 338 l 326 338 l 326 393 l 450 393 l 450 426 l 326 426 l 326 482 l 296 482 l 296 338 m 204 360 q 250 311 250 360 q 204 263 250 263 q 160 311 160 263 q 204 360 160 360 m 539 697 q 585 649 585 697 q 539 600 585 600 q 494 649 494 600 q 539 697 494 697 m 463 775 l 463 742 l 617 742 l 617 775 l 463 775 m 364 215 l 399 215 l 399 325 l 364 325 l 364 215 m 178 889 q 199 865 199 889 l 199 811 l 158 811 l 158 865 q 178 889 158 889 m 347 754 q 365 731 365 754 l 365 675 l 326 675 l 326 729 q 347 754 326 754 m 179 182 q 197 160 197 182 l 197 104 l 158 104 l 158 158 q 179 182 158 182 m 597 343 q 617 363 617 343 q 597 382 617 382 l 585 376 q 579 363 579 371 q 597 343 579 343 z "},"∅":{"ha":746,"x_min":56,"x_max":690,"o":"m 690 0 l 56 0 l 56 1000 l 690 1000 l 690 0 m 617 649 q 539 731 617 731 q 463 649 463 731 q 482 588 463 611 q 539 565 501 565 q 617 649 617 565 m 204 393 q 128 311 128 393 q 204 229 128 229 q 282 311 282 229 q 204 393 282 393 m 128 865 l 128 776 l 282 776 l 282 811 l 228 811 l 228 889 l 282 889 l 282 924 l 199 924 l 199 883 q 168 924 189 924 q 128 865 128 924 m 347 789 q 296 738 296 789 l 296 642 l 450 642 l 450 675 l 394 675 q 395 700 394 686 q 396 715 396 714 q 347 789 396 789 m 282 104 l 226 104 q 227 129 226 115 q 228 144 228 143 q 179 218 228 218 q 142 203 156 218 q 128 165 128 189 l 128 71 l 282 71 l 282 104 m 617 894 l 617 926 l 463 926 l 463 863 l 617 836 l 463 806 l 463 775 l 617 804 l 617 867 l 464 894 l 617 894 m 128 765 l 128 639 l 282 639 l 282 765 l 250 765 l 250 674 l 218 674 l 218 765 l 189 765 l 189 674 l 160 674 l 160 765 l 128 765 m 326 833 l 326 926 l 296 926 l 296 800 l 450 800 l 450 926 l 418 926 l 418 833 l 386 833 l 386 926 l 357 926 l 357 833 l 326 833 m 617 476 q 561 556 617 542 l 561 521 q 585 476 585 513 q 539 432 585 432 q 494 476 494 432 q 517 521 494 514 l 517 554 q 463 478 463 546 q 483 419 463 440 q 539 397 503 397 q 596 419 575 397 q 617 476 617 440 m 281 453 l 128 429 l 128 394 l 282 418 l 282 486 l 128 513 l 128 478 l 281 453 m 128 546 l 128 513 l 282 540 l 282 608 l 128 629 l 128 594 l 281 575 l 281 574 l 128 546 m 296 493 l 392 533 l 392 546 l 450 546 l 450 579 l 392 579 l 392 592 l 296 631 l 296 594 l 360 568 l 360 557 l 296 529 l 296 493 m 296 338 l 326 338 l 326 393 l 450 393 l 450 426 l 326 426 l 326 482 l 296 482 l 296 338 m 204 360 q 250 311 250 360 q 204 263 250 263 q 160 311 160 263 q 204 360 160 360 m 539 697 q 585 649 585 697 q 539 600 585 600 q 494 649 494 600 q 539 697 494 697 m 463 775 l 463 742 l 617 742 l 617 775 l 463 775 m 364 215 l 399 215 l 399 325 l 364 325 l 364 215 m 178 889 q 199 865 199 889 l 199 811 l 158 811 l 158 865 q 178 889 158 889 m 347 754 q 365 731 365 754 l 365 675 l 326 675 l 326 729 q 347 754 326 754 m 179 182 q 197 160 197 182 l 197 104 l 158 104 l 158 158 q 179 182 158 182 m 597 343 q 617 363 617 343 q 597 382 617 382 l 585 376 q 579 363 579 371 q 597 343 579 343 z "},"∐":{"ha":746,"x_min":56,"x_max":690,"o":"m 690 0 l 56 0 l 56 1000 l 690 1000 l 690 0 m 617 649 q 539 731 617 731 q 463 649 463 731 q 482 588 463 611 q 539 565 501 565 q 617 649 617 565 m 204 393 q 128 311 128 393 q 204 229 128 229 q 282 311 282 229 q 204 393 282 393 m 128 865 l 128 776 l 282 776 l 282 811 l 228 811 l 228 889 l 282 889 l 282 924 l 199 924 l 199 883 q 168 924 189 924 q 128 865 128 924 m 347 789 q 296 738 296 789 l 296 642 l 450 642 l 450 675 l 394 675 q 395 700 394 686 q 396 715 396 714 q 347 789 396 789 m 282 104 l 226 104 q 227 129 226 115 q 228 144 228 143 q 179 218 228 218 q 142 203 156 218 q 128 165 128 189 l 128 71 l 282 71 l 282 104 m 617 894 l 617 926 l 463 926 l 463 863 l 617 836 l 463 806 l 463 775 l 617 804 l 617 867 l 464 894 l 617 894 m 128 765 l 128 639 l 282 639 l 282 765 l 250 765 l 250 674 l 218 674 l 218 765 l 189 765 l 189 674 l 160 674 l 160 765 l 128 765 m 326 833 l 326 926 l 296 926 l 296 800 l 450 800 l 450 926 l 418 926 l 418 833 l 386 833 l 386 926 l 357 926 l 357 833 l 326 833 m 617 476 q 561 556 617 542 l 561 521 q 585 476 585 513 q 539 432 585 432 q 494 476 494 432 q 517 521 494 514 l 517 554 q 463 478 463 546 q 483 419 463 440 q 539 397 503 397 q 596 419 575 397 q 617 476 617 440 m 281 453 l 128 429 l 128 394 l 282 418 l 282 486 l 128 513 l 128 478 l 281 453 m 128 546 l 128 513 l 282 540 l 282 608 l 128 629 l 128 594 l 281 575 l 281 574 l 128 546 m 296 493 l 392 533 l 392 546 l 450 546 l 450 579 l 392 579 l 392 592 l 296 631 l 296 594 l 360 568 l 360 557 l 296 529 l 296 493 m 296 338 l 326 338 l 326 393 l 450 393 l 450 426 l 326 426 l 326 482 l 296 482 l 296 338 m 204 360 q 250 311 250 360 q 204 263 250 263 q 160 311 160 263 q 204 360 160 360 m 539 697 q 585 649 585 697 q 539 600 585 600 q 494 649 494 600 q 539 697 494 697 m 463 775 l 463 742 l 617 742 l 617 775 l 463 775 m 364 215 l 399 215 l 399 325 l 364 325 l 364 215 m 178 889 q 199 865 199 889 l 199 811 l 158 811 l 158 865 q 178 889 158 889 m 347 754 q 365 731 365 754 l 365 675 l 326 675 l 326 729 q 347 754 326 754 m 179 182 q 197 160 197 182 l 197 104 l 158 104 l 158 158 q 179 182 158 182 m 597 343 q 617 363 617 343 q 597 382 617 382 l 585 376 q 579 363 579 371 q 597 343 579 343 z "},"∓":{"ha":746,"x_min":56,"x_max":690,"o":"m 690 0 l 56 0 l 56 1000 l 690 1000 l 690 0 m 617 649 q 539 731 617 731 q 463 649 463 731 q 482 588 463 611 q 539 565 501 565 q 617 649 617 565 m 204 393 q 128 311 128 393 q 204 229 128 229 q 282 311 282 229 q 204 393 282 393 m 128 865 l 128 776 l 282 776 l 282 811 l 228 811 l 228 889 l 282 889 l 282 924 l 199 924 l 199 883 q 168 924 189 924 q 128 865 128 924 m 347 789 q 296 738 296 789 l 296 642 l 450 642 l 450 675 l 394 675 q 395 700 394 686 q 396 715 396 714 q 347 789 396 789 m 282 104 l 226 104 q 227 129 226 115 q 228 144 228 143 q 179 218 228 218 q 142 203 156 218 q 128 165 128 189 l 128 71 l 282 71 l 282 104 m 617 894 l 617 926 l 463 926 l 463 863 l 617 836 l 463 806 l 463 775 l 617 804 l 617 867 l 464 894 l 617 894 m 128 765 l 128 639 l 282 639 l 282 765 l 250 765 l 250 674 l 218 674 l 218 765 l 189 765 l 189 674 l 160 674 l 160 765 l 128 765 m 326 833 l 326 926 l 296 926 l 296 800 l 450 800 l 450 926 l 418 926 l 418 833 l 386 833 l 386 926 l 357 926 l 357 833 l 326 833 m 617 476 q 561 556 617 542 l 561 521 q 585 476 585 513 q 539 432 585 432 q 494 476 494 432 q 517 521 494 514 l 517 554 q 463 478 463 546 q 483 419 463 440 q 539 397 503 397 q 596 419 575 397 q 617 476 617 440 m 281 453 l 128 429 l 128 394 l 282 418 l 282 486 l 128 513 l 128 478 l 281 453 m 128 546 l 128 513 l 282 540 l 282 608 l 128 629 l 128 594 l 281 575 l 281 574 l 128 546 m 296 493 l 392 533 l 392 546 l 450 546 l 450 579 l 392 579 l 392 592 l 296 631 l 296 594 l 360 568 l 360 557 l 296 529 l 296 493 m 296 338 l 326 338 l 326 393 l 450 393 l 450 426 l 326 426 l 326 482 l 296 482 l 296 338 m 204 360 q 250 311 250 360 q 204 263 250 263 q 160 311 160 263 q 204 360 160 360 m 539 697 q 585 649 585 697 q 539 600 585 600 q 494 649 494 600 q 539 697 494 697 m 463 775 l 463 742 l 617 742 l 617 775 l 463 775 m 364 215 l 399 215 l 399 325 l 364 325 l 364 215 m 178 889 q 199 865 199 889 l 199 811 l 158 811 l 158 865 q 178 889 158 889 m 347 754 q 365 731 365 754 l 365 675 l 326 675 l 326 729 q 347 754 326 754 m 179 182 q 197 160 197 182 l 197 104 l 158 104 l 158 158 q 179 182 158 182 m 597 343 q 617 363 617 343 q 597 382 617 382 l 585 376 q 579 363 579 371 q 597 343 579 343 z "},"∔":{"ha":746,"x_min":56,"x_max":690,"o":"m 690 0 l 56 0 l 56 1000 l 690 1000 l 690 0 m 617 649 q 539 731 617 731 q 463 649 463 731 q 482 588 463 611 q 539 565 501 565 q 617 649 617 565 m 204 393 q 128 311 128 393 q 204 229 128 229 q 282 311 282 229 q 204 393 282 393 m 128 865 l 128 776 l 282 776 l 282 811 l 228 811 l 228 889 l 282 889 l 282 924 l 199 924 l 199 883 q 168 924 189 924 q 128 865 128 924 m 347 789 q 296 738 296 789 l 296 642 l 450 642 l 450 675 l 394 675 q 395 700 394 686 q 396 715 396 714 q 347 789 396 789 m 282 104 l 226 104 q 227 129 226 115 q 228 144 228 143 q 179 218 228 218 q 142 203 156 218 q 128 165 128 189 l 128 71 l 282 71 l 282 104 m 617 894 l 617 926 l 463 926 l 463 863 l 617 836 l 463 806 l 463 775 l 617 804 l 617 867 l 464 894 l 617 894 m 128 765 l 128 639 l 282 639 l 282 765 l 250 765 l 250 674 l 218 674 l 218 765 l 189 765 l 189 674 l 160 674 l 160 765 l 128 765 m 326 833 l 326 926 l 296 926 l 296 800 l 450 800 l 450 926 l 418 926 l 418 833 l 386 833 l 386 926 l 357 926 l 357 833 l 326 833 m 617 476 q 561 556 617 542 l 561 521 q 585 476 585 513 q 539 432 585 432 q 494 476 494 432 q 517 521 494 514 l 517 554 q 463 478 463 546 q 483 419 463 440 q 539 397 503 397 q 596 419 575 397 q 617 476 617 440 m 281 453 l 128 429 l 128 394 l 282 418 l 282 486 l 128 513 l 128 478 l 281 453 m 128 546 l 128 513 l 282 540 l 282 608 l 128 629 l 128 594 l 281 575 l 281 574 l 128 546 m 296 493 l 392 533 l 392 546 l 450 546 l 450 579 l 392 579 l 392 592 l 296 631 l 296 594 l 360 568 l 360 557 l 296 529 l 296 493 m 296 338 l 326 338 l 326 393 l 450 393 l 450 426 l 326 426 l 326 482 l 296 482 l 296 338 m 204 360 q 250 311 250 360 q 204 263 250 263 q 160 311 160 263 q 204 360 160 360 m 539 697 q 585 649 585 697 q 539 600 585 600 q 494 649 494 600 q 539 697 494 697 m 463 775 l 463 742 l 617 742 l 617 775 l 463 775 m 364 215 l 399 215 l 399 325 l 364 325 l 364 215 m 178 889 q 199 865 199 889 l 199 811 l 158 811 l 158 865 q 178 889 158 889 m 347 754 q 365 731 365 754 l 365 675 l 326 675 l 326 729 q 347 754 326 754 m 179 182 q 197 160 197 182 l 197 104 l 158 104 l 158 158 q 179 182 158 182 m 597 343 q 617 363 617 343 q 597 382 617 382 l 585 376 q 579 363 579 371 q 597 343 579 343 z "},"∖":{"ha":746,"x_min":56,"x_max":690,"o":"m 690 0 l 56 0 l 56 1000 l 690 1000 l 690 0 m 617 649 q 539 731 617 731 q 463 649 463 731 q 482 588 463 611 q 539 565 501 565 q 617 649 617 565 m 204 393 q 128 311 128 393 q 204 229 128 229 q 282 311 282 229 q 204 393 282 393 m 128 865 l 128 776 l 282 776 l 282 811 l 228 811 l 228 889 l 282 889 l 282 924 l 199 924 l 199 883 q 168 924 189 924 q 128 865 128 924 m 347 789 q 296 738 296 789 l 296 642 l 450 642 l 450 675 l 394 675 q 395 700 394 686 q 396 715 396 714 q 347 789 396 789 m 282 104 l 226 104 q 227 129 226 115 q 228 144 228 143 q 179 218 228 218 q 142 203 156 218 q 128 165 128 189 l 128 71 l 282 71 l 282 104 m 617 894 l 617 926 l 463 926 l 463 863 l 617 836 l 463 806 l 463 775 l 617 804 l 617 867 l 464 894 l 617 894 m 128 765 l 128 639 l 282 639 l 282 765 l 250 765 l 250 674 l 218 674 l 218 765 l 189 765 l 189 674 l 160 674 l 160 765 l 128 765 m 326 833 l 326 926 l 296 926 l 296 800 l 450 800 l 450 926 l 418 926 l 418 833 l 386 833 l 386 926 l 357 926 l 357 833 l 326 833 m 617 476 q 561 556 617 542 l 561 521 q 585 476 585 513 q 539 432 585 432 q 494 476 494 432 q 517 521 494 514 l 517 554 q 463 478 463 546 q 483 419 463 440 q 539 397 503 397 q 596 419 575 397 q 617 476 617 440 m 281 453 l 128 429 l 128 394 l 282 418 l 282 486 l 128 513 l 128 478 l 281 453 m 128 546 l 128 513 l 282 540 l 282 608 l 128 629 l 128 594 l 281 575 l 281 574 l 128 546 m 296 493 l 392 533 l 392 546 l 450 546 l 450 579 l 392 579 l 392 592 l 296 631 l 296 594 l 360 568 l 360 557 l 296 529 l 296 493 m 296 338 l 326 338 l 326 393 l 450 393 l 450 426 l 326 426 l 326 482 l 296 482 l 296 338 m 204 360 q 250 311 250 360 q 204 263 250 263 q 160 311 160 263 q 204 360 160 360 m 539 697 q 585 649 585 697 q 539 600 585 600 q 494 649 494 600 q 539 697 494 697 m 463 775 l 463 742 l 617 742 l 617 775 l 463 775 m 364 215 l 399 215 l 399 325 l 364 325 l 364 215 m 178 889 q 199 865 199 889 l 199 811 l 158 811 l 158 865 q 178 889 158 889 m 347 754 q 365 731 365 754 l 365 675 l 326 675 l 326 729 q 347 754 326 754 m 179 182 q 197 160 197 182 l 197 104 l 158 104 l 158 158 q 179 182 158 182 m 597 343 q 617 363 617 343 q 597 382 617 382 l 585 376 q 579 363 579 371 q 597 343 579 343 z "},"∗":{"ha":746,"x_min":56,"x_max":690,"o":"m 690 0 l 56 0 l 56 1000 l 690 1000 l 690 0 m 617 649 q 539 731 617 731 q 463 649 463 731 q 482 588 463 611 q 539 565 501 565 q 617 649 617 565 m 204 393 q 128 311 128 393 q 204 229 128 229 q 282 311 282 229 q 204 393 282 393 m 128 865 l 128 776 l 282 776 l 282 811 l 228 811 l 228 889 l 282 889 l 282 924 l 199 924 l 199 883 q 168 924 189 924 q 128 865 128 924 m 347 789 q 296 738 296 789 l 296 642 l 450 642 l 450 675 l 394 675 q 395 700 394 686 q 396 715 396 714 q 347 789 396 789 m 282 104 l 226 104 q 227 129 226 115 q 228 144 228 143 q 179 218 228 218 q 142 203 156 218 q 128 165 128 189 l 128 71 l 282 71 l 282 104 m 617 894 l 617 926 l 463 926 l 463 863 l 617 836 l 463 806 l 463 775 l 617 804 l 617 867 l 464 894 l 617 894 m 128 765 l 128 639 l 282 639 l 282 765 l 250 765 l 250 674 l 218 674 l 218 765 l 189 765 l 189 674 l 160 674 l 160 765 l 128 765 m 326 833 l 326 926 l 296 926 l 296 800 l 450 800 l 450 926 l 418 926 l 418 833 l 386 833 l 386 926 l 357 926 l 357 833 l 326 833 m 617 476 q 561 556 617 542 l 561 521 q 585 476 585 513 q 539 432 585 432 q 494 476 494 432 q 517 521 494 514 l 517 554 q 463 478 463 546 q 483 419 463 440 q 539 397 503 397 q 596 419 575 397 q 617 476 617 440 m 281 453 l 128 429 l 128 394 l 282 418 l 282 486 l 128 513 l 128 478 l 281 453 m 128 546 l 128 513 l 282 540 l 282 608 l 128 629 l 128 594 l 281 575 l 281 574 l 128 546 m 296 493 l 392 533 l 392 546 l 450 546 l 450 579 l 392 579 l 392 592 l 296 631 l 296 594 l 360 568 l 360 557 l 296 529 l 296 493 m 296 338 l 326 338 l 326 393 l 450 393 l 450 426 l 326 426 l 326 482 l 296 482 l 296 338 m 204 360 q 250 311 250 360 q 204 263 250 263 q 160 311 160 263 q 204 360 160 360 m 539 697 q 585 649 585 697 q 539 600 585 600 q 494 649 494 600 q 539 697 494 697 m 463 775 l 463 742 l 617 742 l 617 775 l 463 775 m 364 215 l 399 215 l 399 325 l 364 325 l 364 215 m 178 889 q 199 865 199 889 l 199 811 l 158 811 l 158 865 q 178 889 158 889 m 347 754 q 365 731 365 754 l 365 675 l 326 675 l 326 729 q 347 754 326 754 m 179 182 q 197 160 197 182 l 197 104 l 158 104 l 158 158 q 179 182 158 182 m 597 343 q 617 363 617 343 q 597 382 617 382 l 585 376 q 579 363 579 371 q 597 343 579 343 z "},"∘":{"ha":746,"x_min":56,"x_max":690,"o":"m 690 0 l 56 0 l 56 1000 l 690 1000 l 690 0 m 617 649 q 539 731 617 731 q 463 649 463 731 q 482 588 463 611 q 539 565 501 565 q 617 649 617 565 m 204 393 q 128 311 128 393 q 204 229 128 229 q 282 311 282 229 q 204 393 282 393 m 128 865 l 128 776 l 282 776 l 282 811 l 228 811 l 228 889 l 282 889 l 282 924 l 199 924 l 199 883 q 168 924 189 924 q 128 865 128 924 m 347 789 q 296 738 296 789 l 296 642 l 450 642 l 450 675 l 394 675 q 395 700 394 686 q 396 715 396 714 q 347 789 396 789 m 282 104 l 226 104 q 227 129 226 115 q 228 144 228 143 q 179 218 228 218 q 142 203 156 218 q 128 165 128 189 l 128 71 l 282 71 l 282 104 m 617 894 l 617 926 l 463 926 l 463 863 l 617 836 l 463 806 l 463 775 l 617 804 l 617 867 l 464 894 l 617 894 m 128 765 l 128 639 l 282 639 l 282 765 l 250 765 l 250 674 l 218 674 l 218 765 l 189 765 l 189 674 l 160 674 l 160 765 l 128 765 m 326 833 l 326 926 l 296 926 l 296 800 l 450 800 l 450 926 l 418 926 l 418 833 l 386 833 l 386 926 l 357 926 l 357 833 l 326 833 m 617 476 q 561 556 617 542 l 561 521 q 585 476 585 513 q 539 432 585 432 q 494 476 494 432 q 517 521 494 514 l 517 554 q 463 478 463 546 q 483 419 463 440 q 539 397 503 397 q 596 419 575 397 q 617 476 617 440 m 281 453 l 128 429 l 128 394 l 282 418 l 282 486 l 128 513 l 128 478 l 281 453 m 128 546 l 128 513 l 282 540 l 282 608 l 128 629 l 128 594 l 281 575 l 281 574 l 128 546 m 296 493 l 392 533 l 392 546 l 450 546 l 450 579 l 392 579 l 392 592 l 296 631 l 296 594 l 360 568 l 360 557 l 296 529 l 296 493 m 296 338 l 326 338 l 326 393 l 450 393 l 450 426 l 326 426 l 326 482 l 296 482 l 296 338 m 204 360 q 250 311 250 360 q 204 263 250 263 q 160 311 160 263 q 204 360 160 360 m 539 697 q 585 649 585 697 q 539 600 585 600 q 494 649 494 600 q 539 697 494 697 m 463 775 l 463 742 l 617 742 l 617 775 l 463 775 m 364 215 l 399 215 l 399 325 l 364 325 l 364 215 m 178 889 q 199 865 199 889 l 199 811 l 158 811 l 158 865 q 178 889 158 889 m 347 754 q 365 731 365 754 l 365 675 l 326 675 l 326 729 q 347 754 326 754 m 179 182 q 197 160 197 182 l 197 104 l 158 104 l 158 158 q 179 182 158 182 m 597 343 q 617 363 617 343 q 597 382 617 382 l 585 376 q 579 363 579 371 q 597 343 579 343 z "},"∛":{"ha":746,"x_min":56,"x_max":690,"o":"m 690 0 l 56 0 l 56 1000 l 690 1000 l 690 0 m 617 649 q 539 731 617 731 q 463 649 463 731 q 482 588 463 611 q 539 565 501 565 q 617 649 617 565 m 204 393 q 128 311 128 393 q 204 229 128 229 q 282 311 282 229 q 204 393 282 393 m 128 865 l 128 776 l 282 776 l 282 811 l 228 811 l 228 889 l 282 889 l 282 924 l 199 924 l 199 883 q 168 924 189 924 q 128 865 128 924 m 347 789 q 296 738 296 789 l 296 642 l 450 642 l 450 675 l 394 675 q 395 700 394 686 q 396 715 396 714 q 347 789 396 789 m 282 104 l 226 104 q 227 129 226 115 q 228 144 228 143 q 179 218 228 218 q 142 203 156 218 q 128 165 128 189 l 128 71 l 282 71 l 282 104 m 617 894 l 617 926 l 463 926 l 463 863 l 617 836 l 463 806 l 463 775 l 617 804 l 617 867 l 464 894 l 617 894 m 128 765 l 128 639 l 282 639 l 282 765 l 250 765 l 250 674 l 218 674 l 218 765 l 189 765 l 189 674 l 160 674 l 160 765 l 128 765 m 326 833 l 326 926 l 296 926 l 296 800 l 450 800 l 450 926 l 418 926 l 418 833 l 386 833 l 386 926 l 357 926 l 357 833 l 326 833 m 617 476 q 561 556 617 542 l 561 521 q 585 476 585 513 q 539 432 585 432 q 494 476 494 432 q 517 521 494 514 l 517 554 q 463 478 463 546 q 483 419 463 440 q 539 397 503 397 q 596 419 575 397 q 617 476 617 440 m 281 453 l 128 429 l 128 394 l 282 418 l 282 486 l 128 513 l 128 478 l 281 453 m 128 546 l 128 513 l 282 540 l 282 608 l 128 629 l 128 594 l 281 575 l 281 574 l 128 546 m 296 493 l 392 533 l 392 546 l 450 546 l 450 579 l 392 579 l 392 592 l 296 631 l 296 594 l 360 568 l 360 557 l 296 529 l 296 493 m 296 338 l 326 338 l 326 393 l 450 393 l 450 426 l 326 426 l 326 482 l 296 482 l 296 338 m 204 360 q 250 311 250 360 q 204 263 250 263 q 160 311 160 263 q 204 360 160 360 m 539 697 q 585 649 585 697 q 539 600 585 600 q 494 649 494 600 q 539 697 494 697 m 463 775 l 463 742 l 617 742 l 617 775 l 463 775 m 364 215 l 399 215 l 399 325 l 364 325 l 364 215 m 178 889 q 199 865 199 889 l 199 811 l 158 811 l 158 865 q 178 889 158 889 m 347 754 q 365 731 365 754 l 365 675 l 326 675 l 326 729 q 347 754 326 754 m 179 182 q 197 160 197 182 l 197 104 l 158 104 l 158 158 q 179 182 158 182 m 597 343 q 617 363 617 343 q 597 382 617 382 l 585 376 q 579 363 579 371 q 597 343 579 343 z "},"∜":{"ha":746,"x_min":56,"x_max":690,"o":"m 690 0 l 56 0 l 56 1000 l 690 1000 l 690 0 m 617 649 q 539 731 617 731 q 463 649 463 731 q 482 588 463 611 q 539 565 501 565 q 617 649 617 565 m 204 393 q 128 311 128 393 q 204 229 128 229 q 282 311 282 229 q 204 393 282 393 m 128 865 l 128 776 l 282 776 l 282 811 l 228 811 l 228 889 l 282 889 l 282 924 l 199 924 l 199 883 q 168 924 189 924 q 128 865 128 924 m 347 789 q 296 738 296 789 l 296 642 l 450 642 l 450 675 l 394 675 q 395 700 394 686 q 396 715 396 714 q 347 789 396 789 m 282 104 l 226 104 q 227 129 226 115 q 228 144 228 143 q 179 218 228 218 q 142 203 156 218 q 128 165 128 189 l 128 71 l 282 71 l 282 104 m 617 894 l 617 926 l 463 926 l 463 863 l 617 836 l 463 806 l 463 775 l 617 804 l 617 867 l 464 894 l 617 894 m 128 765 l 128 639 l 282 639 l 282 765 l 250 765 l 250 674 l 218 674 l 218 765 l 189 765 l 189 674 l 160 674 l 160 765 l 128 765 m 326 833 l 326 926 l 296 926 l 296 800 l 450 800 l 450 926 l 418 926 l 418 833 l 386 833 l 386 926 l 357 926 l 357 833 l 326 833 m 617 476 q 561 556 617 542 l 561 521 q 585 476 585 513 q 539 432 585 432 q 494 476 494 432 q 517 521 494 514 l 517 554 q 463 478 463 546 q 483 419 463 440 q 539 397 503 397 q 596 419 575 397 q 617 476 617 440 m 281 453 l 128 429 l 128 394 l 282 418 l 282 486 l 128 513 l 128 478 l 281 453 m 128 546 l 128 513 l 282 540 l 282 608 l 128 629 l 128 594 l 281 575 l 281 574 l 128 546 m 296 493 l 392 533 l 392 546 l 450 546 l 450 579 l 392 579 l 392 592 l 296 631 l 296 594 l 360 568 l 360 557 l 296 529 l 296 493 m 296 338 l 326 338 l 326 393 l 450 393 l 450 426 l 326 426 l 326 482 l 296 482 l 296 338 m 204 360 q 250 311 250 360 q 204 263 250 263 q 160 311 160 263 q 204 360 160 360 m 539 697 q 585 649 585 697 q 539 600 585 600 q 494 649 494 600 q 539 697 494 697 m 463 775 l 463 742 l 617 742 l 617 775 l 463 775 m 364 215 l 399 215 l 399 325 l 364 325 l 364 215 m 178 889 q 199 865 199 889 l 199 811 l 158 811 l 158 865 q 178 889 158 889 m 347 754 q 365 731 365 754 l 365 675 l 326 675 l 326 729 q 347 754 326 754 m 179 182 q 197 160 197 182 l 197 104 l 158 104 l 158 158 q 179 182 158 182 m 597 343 q 617 363 617 343 q 597 382 617 382 l 585 376 q 579 363 579 371 q 597 343 579 343 z "},"∝":{"ha":746,"x_min":56,"x_max":690,"o":"m 690 0 l 56 0 l 56 1000 l 690 1000 l 690 0 m 617 649 q 539 731 617 731 q 463 649 463 731 q 482 588 463 611 q 539 565 501 565 q 617 649 617 565 m 204 393 q 128 311 128 393 q 204 229 128 229 q 282 311 282 229 q 204 393 282 393 m 128 865 l 128 776 l 282 776 l 282 811 l 228 811 l 228 889 l 282 889 l 282 924 l 199 924 l 199 883 q 168 924 189 924 q 128 865 128 924 m 347 789 q 296 738 296 789 l 296 642 l 450 642 l 450 675 l 394 675 q 395 700 394 686 q 396 715 396 714 q 347 789 396 789 m 282 104 l 226 104 q 227 129 226 115 q 228 144 228 143 q 179 218 228 218 q 142 203 156 218 q 128 165 128 189 l 128 71 l 282 71 l 282 104 m 617 894 l 617 926 l 463 926 l 463 863 l 617 836 l 463 806 l 463 775 l 617 804 l 617 867 l 464 894 l 617 894 m 128 765 l 128 639 l 282 639 l 282 765 l 250 765 l 250 674 l 218 674 l 218 765 l 189 765 l 189 674 l 160 674 l 160 765 l 128 765 m 326 833 l 326 926 l 296 926 l 296 800 l 450 800 l 450 926 l 418 926 l 418 833 l 386 833 l 386 926 l 357 926 l 357 833 l 326 833 m 617 476 q 561 556 617 542 l 561 521 q 585 476 585 513 q 539 432 585 432 q 494 476 494 432 q 517 521 494 514 l 517 554 q 463 478 463 546 q 483 419 463 440 q 539 397 503 397 q 596 419 575 397 q 617 476 617 440 m 281 453 l 128 429 l 128 394 l 282 418 l 282 486 l 128 513 l 128 478 l 281 453 m 128 546 l 128 513 l 282 540 l 282 608 l 128 629 l 128 594 l 281 575 l 281 574 l 128 546 m 296 493 l 392 533 l 392 546 l 450 546 l 450 579 l 392 579 l 392 592 l 296 631 l 296 594 l 360 568 l 360 557 l 296 529 l 296 493 m 296 338 l 326 338 l 326 393 l 450 393 l 450 426 l 326 426 l 326 482 l 296 482 l 296 338 m 204 360 q 250 311 250 360 q 204 263 250 263 q 160 311 160 263 q 204 360 160 360 m 539 697 q 585 649 585 697 q 539 600 585 600 q 494 649 494 600 q 539 697 494 697 m 463 775 l 463 742 l 617 742 l 617 775 l 463 775 m 364 215 l 399 215 l 399 325 l 364 325 l 364 215 m 178 889 q 199 865 199 889 l 199 811 l 158 811 l 158 865 q 178 889 158 889 m 347 754 q 365 731 365 754 l 365 675 l 326 675 l 326 729 q 347 754 326 754 m 179 182 q 197 160 197 182 l 197 104 l 158 104 l 158 158 q 179 182 158 182 m 597 343 q 617 363 617 343 q 597 382 617 382 l 585 376 q 579 363 579 371 q 597 343 579 343 z "},"≡":{"ha":746,"x_min":56,"x_max":690,"o":"m 690 0 l 56 0 l 56 1000 l 690 1000 l 690 0 m 617 649 q 539 731 617 731 q 463 649 463 731 q 482 588 463 611 q 539 565 501 565 q 617 649 617 565 m 204 393 q 128 311 128 393 q 204 229 128 229 q 282 311 282 229 q 204 393 282 393 m 128 865 l 128 776 l 282 776 l 282 811 l 228 811 l 228 889 l 282 889 l 282 924 l 199 924 l 199 883 q 168 924 189 924 q 128 865 128 924 m 347 789 q 296 738 296 789 l 296 642 l 450 642 l 450 675 l 394 675 q 395 700 394 686 q 396 715 396 714 q 347 789 396 789 m 282 104 l 226 104 q 227 129 226 115 q 228 144 228 143 q 179 218 228 218 q 142 203 156 218 q 128 165 128 189 l 128 71 l 282 71 l 282 104 m 617 894 l 617 926 l 463 926 l 463 863 l 617 836 l 463 806 l 463 775 l 617 804 l 617 867 l 464 894 l 617 894 m 128 765 l 128 639 l 282 639 l 282 765 l 250 765 l 250 674 l 218 674 l 218 765 l 189 765 l 189 674 l 160 674 l 160 765 l 128 765 m 326 833 l 326 926 l 296 926 l 296 800 l 450 800 l 450 926 l 418 926 l 418 833 l 386 833 l 386 926 l 357 926 l 357 833 l 326 833 m 617 476 q 561 556 617 542 l 561 521 q 585 476 585 513 q 539 432 585 432 q 494 476 494 432 q 517 521 494 514 l 517 554 q 463 478 463 546 q 483 419 463 440 q 539 397 503 397 q 596 419 575 397 q 617 476 617 440 m 281 453 l 128 429 l 128 394 l 282 418 l 282 486 l 128 513 l 128 478 l 281 453 m 128 546 l 128 513 l 282 540 l 282 608 l 128 629 l 128 594 l 281 575 l 281 574 l 128 546 m 296 493 l 392 533 l 392 546 l 450 546 l 450 579 l 392 579 l 392 592 l 296 631 l 296 594 l 360 568 l 360 557 l 296 529 l 296 493 m 296 338 l 326 338 l 326 393 l 450 393 l 450 426 l 326 426 l 326 482 l 296 482 l 296 338 m 204 360 q 250 311 250 360 q 204 263 250 263 q 160 311 160 263 q 204 360 160 360 m 539 697 q 585 649 585 697 q 539 600 585 600 q 494 649 494 600 q 539 697 494 697 m 463 775 l 463 742 l 617 742 l 617 775 l 463 775 m 364 215 l 399 215 l 399 325 l 364 325 l 364 215 m 178 889 q 199 865 199 889 l 199 811 l 158 811 l 158 865 q 178 889 158 889 m 347 754 q 365 731 365 754 l 365 675 l 326 675 l 326 729 q 347 754 326 754 m 179 182 q 197 160 197 182 l 197 104 l 158 104 l 158 158 q 179 182 158 182 m 597 343 q 617 363 617 343 q 597 382 617 382 l 585 376 q 579 363 579 371 q 597 343 579 343 z "},"≢":{"ha":746,"x_min":56,"x_max":690,"o":"m 690 0 l 56 0 l 56 1000 l 690 1000 l 690 0 m 617 649 q 539 731 617 731 q 463 649 463 731 q 482 588 463 611 q 539 565 501 565 q 617 649 617 565 m 204 393 q 128 311 128 393 q 204 229 128 229 q 282 311 282 229 q 204 393 282 393 m 128 865 l 128 776 l 282 776 l 282 811 l 228 811 l 228 889 l 282 889 l 282 924 l 199 924 l 199 883 q 168 924 189 924 q 128 865 128 924 m 347 789 q 296 738 296 789 l 296 642 l 450 642 l 450 675 l 394 675 q 395 700 394 686 q 396 715 396 714 q 347 789 396 789 m 282 104 l 226 104 q 227 129 226 115 q 228 144 228 143 q 179 218 228 218 q 142 203 156 218 q 128 165 128 189 l 128 71 l 282 71 l 282 104 m 617 894 l 617 926 l 463 926 l 463 863 l 617 836 l 463 806 l 463 775 l 617 804 l 617 867 l 464 894 l 617 894 m 128 765 l 128 639 l 282 639 l 282 765 l 250 765 l 250 674 l 218 674 l 218 765 l 189 765 l 189 674 l 160 674 l 160 765 l 128 765 m 326 833 l 326 926 l 296 926 l 296 800 l 450 800 l 450 926 l 418 926 l 418 833 l 386 833 l 386 926 l 357 926 l 357 833 l 326 833 m 617 476 q 561 556 617 542 l 561 521 q 585 476 585 513 q 539 432 585 432 q 494 476 494 432 q 517 521 494 514 l 517 554 q 463 478 463 546 q 483 419 463 440 q 539 397 503 397 q 596 419 575 397 q 617 476 617 440 m 281 453 l 128 429 l 128 394 l 282 418 l 282 486 l 128 513 l 128 478 l 281 453 m 128 546 l 128 513 l 282 540 l 282 608 l 128 629 l 128 594 l 281 575 l 281 574 l 128 546 m 296 493 l 392 533 l 392 546 l 450 546 l 450 579 l 392 579 l 392 592 l 296 631 l 296 594 l 360 568 l 360 557 l 296 529 l 296 493 m 296 338 l 326 338 l 326 393 l 450 393 l 450 426 l 326 426 l 326 482 l 296 482 l 296 338 m 204 360 q 250 311 250 360 q 204 263 250 263 q 160 311 160 263 q 204 360 160 360 m 539 697 q 585 649 585 697 q 539 600 585 600 q 494 649 494 600 q 539 697 494 697 m 463 775 l 463 742 l 617 742 l 617 775 l 463 775 m 364 215 l 399 215 l 399 325 l 364 325 l 364 215 m 178 889 q 199 865 199 889 l 199 811 l 158 811 l 158 865 q 178 889 158 889 m 347 754 q 365 731 365 754 l 365 675 l 326 675 l 326 729 q 347 754 326 754 m 179 182 q 197 160 197 182 l 197 104 l 158 104 l 158 158 q 179 182 158 182 m 597 343 q 617 363 617 343 q 597 382 617 382 l 585 376 q 579 363 579 371 q 597 343 579 343 z "},"≣":{"ha":746,"x_min":56,"x_max":690,"o":"m 690 0 l 56 0 l 56 1000 l 690 1000 l 690 0 m 617 649 q 539 731 617 731 q 463 649 463 731 q 482 588 463 611 q 539 565 501 565 q 617 649 617 565 m 204 393 q 128 311 128 393 q 204 229 128 229 q 282 311 282 229 q 204 393 282 393 m 128 865 l 128 776 l 282 776 l 282 811 l 228 811 l 228 889 l 282 889 l 282 924 l 199 924 l 199 883 q 168 924 189 924 q 128 865 128 924 m 347 789 q 296 738 296 789 l 296 642 l 450 642 l 450 675 l 394 675 q 395 700 394 686 q 396 715 396 714 q 347 789 396 789 m 282 104 l 226 104 q 227 129 226 115 q 228 144 228 143 q 179 218 228 218 q 142 203 156 218 q 128 165 128 189 l 128 71 l 282 71 l 282 104 m 617 894 l 617 926 l 463 926 l 463 863 l 617 836 l 463 806 l 463 775 l 617 804 l 617 867 l 464 894 l 617 894 m 128 765 l 128 639 l 282 639 l 282 765 l 250 765 l 250 674 l 218 674 l 218 765 l 189 765 l 189 674 l 160 674 l 160 765 l 128 765 m 326 833 l 326 926 l 296 926 l 296 800 l 450 800 l 450 926 l 418 926 l 418 833 l 386 833 l 386 926 l 357 926 l 357 833 l 326 833 m 617 476 q 561 556 617 542 l 561 521 q 585 476 585 513 q 539 432 585 432 q 494 476 494 432 q 517 521 494 514 l 517 554 q 463 478 463 546 q 483 419 463 440 q 539 397 503 397 q 596 419 575 397 q 617 476 617 440 m 281 453 l 128 429 l 128 394 l 282 418 l 282 486 l 128 513 l 128 478 l 281 453 m 128 546 l 128 513 l 282 540 l 282 608 l 128 629 l 128 594 l 281 575 l 281 574 l 128 546 m 296 493 l 392 533 l 392 546 l 450 546 l 450 579 l 392 579 l 392 592 l 296 631 l 296 594 l 360 568 l 360 557 l 296 529 l 296 493 m 296 338 l 326 338 l 326 393 l 450 393 l 450 426 l 326 426 l 326 482 l 296 482 l 296 338 m 204 360 q 250 311 250 360 q 204 263 250 263 q 160 311 160 263 q 204 360 160 360 m 539 697 q 585 649 585 697 q 539 600 585 600 q 494 649 494 600 q 539 697 494 697 m 463 775 l 463 742 l 617 742 l 617 775 l 463 775 m 364 215 l 399 215 l 399 325 l 364 325 l 364 215 m 178 889 q 199 865 199 889 l 199 811 l 158 811 l 158 865 q 178 889 158 889 m 347 754 q 365 731 365 754 l 365 675 l 326 675 l 326 729 q 347 754 326 754 m 179 182 q 197 160 197 182 l 197 104 l 158 104 l 158 158 q 179 182 158 182 m 597 343 q 617 363 617 343 q 597 382 617 382 l 585 376 q 579 363 579 371 q 597 343 579 343 z "},"⌙":{"ha":746,"x_min":56,"x_max":690,"o":"m 690 0 l 56 0 l 56 1000 l 690 1000 l 690 0 m 617 649 q 539 731 617 731 q 463 649 463 731 q 482 588 463 611 q 539 565 501 565 q 617 649 617 565 m 204 393 q 128 311 128 393 q 204 229 128 229 q 282 311 282 229 q 204 393 282 393 m 128 865 l 128 776 l 282 776 l 282 811 l 228 811 l 228 889 l 282 889 l 282 924 l 199 924 l 199 883 q 168 924 189 924 q 128 865 128 924 m 347 789 q 296 738 296 789 l 296 642 l 450 642 l 450 675 l 394 675 q 395 700 394 686 q 396 715 396 714 q 347 789 396 789 m 282 104 l 226 104 q 227 129 226 115 q 228 144 228 143 q 179 218 228 218 q 142 203 156 218 q 128 165 128 189 l 128 71 l 282 71 l 282 104 m 617 894 l 617 926 l 463 926 l 463 863 l 617 836 l 463 806 l 463 775 l 617 804 l 617 867 l 464 894 l 617 894 m 128 765 l 128 639 l 282 639 l 282 765 l 250 765 l 250 674 l 218 674 l 218 765 l 189 765 l 189 674 l 160 674 l 160 765 l 128 765 m 326 833 l 326 926 l 296 926 l 296 800 l 450 800 l 450 926 l 418 926 l 418 833 l 386 833 l 386 926 l 357 926 l 357 833 l 326 833 m 617 476 q 561 556 617 542 l 561 521 q 585 476 585 513 q 539 432 585 432 q 494 476 494 432 q 517 521 494 514 l 517 554 q 463 478 463 546 q 483 419 463 440 q 539 397 503 397 q 596 419 575 397 q 617 476 617 440 m 281 453 l 128 429 l 128 394 l 282 418 l 282 486 l 128 513 l 128 478 l 281 453 m 128 546 l 128 513 l 282 540 l 282 608 l 128 629 l 128 594 l 281 575 l 281 574 l 128 546 m 296 493 l 392 533 l 392 546 l 450 546 l 450 579 l 392 579 l 392 592 l 296 631 l 296 594 l 360 568 l 360 557 l 296 529 l 296 493 m 296 338 l 326 338 l 326 393 l 450 393 l 450 426 l 326 426 l 326 482 l 296 482 l 296 338 m 204 360 q 250 311 250 360 q 204 263 250 263 q 160 311 160 263 q 204 360 160 360 m 539 697 q 585 649 585 697 q 539 600 585 600 q 494 649 494 600 q 539 697 494 697 m 463 775 l 463 742 l 617 742 l 617 775 l 463 775 m 364 215 l 399 215 l 399 325 l 364 325 l 364 215 m 178 889 q 199 865 199 889 l 199 811 l 158 811 l 158 865 q 178 889 158 889 m 347 754 q 365 731 365 754 l 365 675 l 326 675 l 326 729 q 347 754 326 754 m 179 182 q 197 160 197 182 l 197 104 l 158 104 l 158 158 q 179 182 158 182 m 597 343 q 617 363 617 343 q 597 382 617 382 l 585 376 q 579 363 579 371 q 597 343 579 343 z "},"⌚":{"ha":746,"x_min":56,"x_max":690,"o":"m 690 0 l 56 0 l 56 1000 l 690 1000 l 690 0 m 617 649 q 539 731 617 731 q 463 649 463 731 q 482 588 463 611 q 539 565 501 565 q 617 649 617 565 m 204 393 q 128 311 128 393 q 204 229 128 229 q 282 311 282 229 q 204 393 282 393 m 128 865 l 128 776 l 282 776 l 282 811 l 228 811 l 228 889 l 282 889 l 282 924 l 199 924 l 199 883 q 168 924 189 924 q 128 865 128 924 m 347 789 q 296 738 296 789 l 296 642 l 450 642 l 450 675 l 394 675 q 395 700 394 686 q 396 715 396 714 q 347 789 396 789 m 282 104 l 226 104 q 227 129 226 115 q 228 144 228 143 q 179 218 228 218 q 142 203 156 218 q 128 165 128 189 l 128 71 l 282 71 l 282 104 m 617 894 l 617 926 l 463 926 l 463 863 l 617 836 l 463 806 l 463 775 l 617 804 l 617 867 l 464 894 l 617 894 m 128 765 l 128 639 l 282 639 l 282 765 l 250 765 l 250 674 l 218 674 l 218 765 l 189 765 l 189 674 l 160 674 l 160 765 l 128 765 m 326 833 l 326 926 l 296 926 l 296 800 l 450 800 l 450 926 l 418 926 l 418 833 l 386 833 l 386 926 l 357 926 l 357 833 l 326 833 m 617 476 q 561 556 617 542 l 561 521 q 585 476 585 513 q 539 432 585 432 q 494 476 494 432 q 517 521 494 514 l 517 554 q 463 478 463 546 q 483 419 463 440 q 539 397 503 397 q 596 419 575 397 q 617 476 617 440 m 281 453 l 128 429 l 128 394 l 282 418 l 282 486 l 128 513 l 128 478 l 281 453 m 128 546 l 128 513 l 282 540 l 282 608 l 128 629 l 128 594 l 281 575 l 281 574 l 128 546 m 296 493 l 392 533 l 392 546 l 450 546 l 450 579 l 392 579 l 392 592 l 296 631 l 296 594 l 360 568 l 360 557 l 296 529 l 296 493 m 296 338 l 326 338 l 326 393 l 450 393 l 450 426 l 326 426 l 326 482 l 296 482 l 296 338 m 204 360 q 250 311 250 360 q 204 263 250 263 q 160 311 160 263 q 204 360 160 360 m 539 697 q 585 649 585 697 q 539 600 585 600 q 494 649 494 600 q 539 697 494 697 m 463 775 l 463 742 l 617 742 l 617 775 l 463 775 m 364 215 l 399 215 l 399 325 l 364 325 l 364 215 m 178 889 q 199 865 199 889 l 199 811 l 158 811 l 158 865 q 178 889 158 889 m 347 754 q 365 731 365 754 l 365 675 l 326 675 l 326 729 q 347 754 326 754 m 179 182 q 197 160 197 182 l 197 104 l 158 104 l 158 158 q 179 182 158 182 m 597 343 q 617 363 617 343 q 597 382 617 382 l 585 376 q 579 363 579 371 q 597 343 579 343 z "},"△":{"ha":746,"x_min":56,"x_max":690,"o":"m 690 0 l 56 0 l 56 1000 l 690 1000 l 690 0 m 617 649 q 539 731 617 731 q 463 649 463 731 q 482 588 463 611 q 539 565 501 565 q 617 649 617 565 m 204 393 q 128 311 128 393 q 204 229 128 229 q 282 311 282 229 q 204 393 282 393 m 128 865 l 128 776 l 282 776 l 282 811 l 228 811 l 228 889 l 282 889 l 282 924 l 199 924 l 199 883 q 168 924 189 924 q 128 865 128 924 m 347 789 q 296 738 296 789 l 296 642 l 450 642 l 450 675 l 394 675 q 395 700 394 686 q 396 715 396 714 q 347 789 396 789 m 282 104 l 226 104 q 227 129 226 115 q 228 144 228 143 q 179 218 228 218 q 142 203 156 218 q 128 165 128 189 l 128 71 l 282 71 l 282 104 m 617 894 l 617 926 l 463 926 l 463 863 l 617 836 l 463 806 l 463 775 l 617 804 l 617 867 l 464 894 l 617 894 m 128 765 l 128 639 l 282 639 l 282 765 l 250 765 l 250 674 l 218 674 l 218 765 l 189 765 l 189 674 l 160 674 l 160 765 l 128 765 m 326 833 l 326 926 l 296 926 l 296 800 l 450 800 l 450 926 l 418 926 l 418 833 l 386 833 l 386 926 l 357 926 l 357 833 l 326 833 m 617 476 q 561 556 617 542 l 561 521 q 585 476 585 513 q 539 432 585 432 q 494 476 494 432 q 517 521 494 514 l 517 554 q 463 478 463 546 q 483 419 463 440 q 539 397 503 397 q 596 419 575 397 q 617 476 617 440 m 281 453 l 128 429 l 128 394 l 282 418 l 282 486 l 128 513 l 128 478 l 281 453 m 128 546 l 128 513 l 282 540 l 282 608 l 128 629 l 128 594 l 281 575 l 281 574 l 128 546 m 296 493 l 392 533 l 392 546 l 450 546 l 450 579 l 392 579 l 392 592 l 296 631 l 296 594 l 360 568 l 360 557 l 296 529 l 296 493 m 296 338 l 326 338 l 326 393 l 450 393 l 450 426 l 326 426 l 326 482 l 296 482 l 296 338 m 204 360 q 250 311 250 360 q 204 263 250 263 q 160 311 160 263 q 204 360 160 360 m 539 697 q 585 649 585 697 q 539 600 585 600 q 494 649 494 600 q 539 697 494 697 m 463 775 l 463 742 l 617 742 l 617 775 l 463 775 m 364 215 l 399 215 l 399 325 l 364 325 l 364 215 m 178 889 q 199 865 199 889 l 199 811 l 158 811 l 158 865 q 178 889 158 889 m 347 754 q 365 731 365 754 l 365 675 l 326 675 l 326 729 q 347 754 326 754 m 179 182 q 197 160 197 182 l 197 104 l 158 104 l 158 158 q 179 182 158 182 m 597 343 q 617 363 617 343 q 597 382 617 382 l 585 376 q 579 363 579 371 q 597 343 579 343 z "},"▴":{"ha":746,"x_min":56,"x_max":690,"o":"m 690 0 l 56 0 l 56 1000 l 690 1000 l 690 0 m 617 649 q 539 731 617 731 q 463 649 463 731 q 482 588 463 611 q 539 565 501 565 q 617 649 617 565 m 204 393 q 128 311 128 393 q 204 229 128 229 q 282 311 282 229 q 204 393 282 393 m 128 865 l 128 776 l 282 776 l 282 811 l 228 811 l 228 889 l 282 889 l 282 924 l 199 924 l 199 883 q 168 924 189 924 q 128 865 128 924 m 347 789 q 296 738 296 789 l 296 642 l 450 642 l 450 675 l 394 675 q 395 700 394 686 q 396 715 396 714 q 347 789 396 789 m 282 104 l 226 104 q 227 129 226 115 q 228 144 228 143 q 179 218 228 218 q 142 203 156 218 q 128 165 128 189 l 128 71 l 282 71 l 282 104 m 617 894 l 617 926 l 463 926 l 463 863 l 617 836 l 463 806 l 463 775 l 617 804 l 617 867 l 464 894 l 617 894 m 128 765 l 128 639 l 282 639 l 282 765 l 250 765 l 250 674 l 218 674 l 218 765 l 189 765 l 189 674 l 160 674 l 160 765 l 128 765 m 326 833 l 326 926 l 296 926 l 296 800 l 450 800 l 450 926 l 418 926 l 418 833 l 386 833 l 386 926 l 357 926 l 357 833 l 326 833 m 617 476 q 561 556 617 542 l 561 521 q 585 476 585 513 q 539 432 585 432 q 494 476 494 432 q 517 521 494 514 l 517 554 q 463 478 463 546 q 483 419 463 440 q 539 397 503 397 q 596 419 575 397 q 617 476 617 440 m 281 453 l 128 429 l 128 394 l 282 418 l 282 486 l 128 513 l 128 478 l 281 453 m 128 546 l 128 513 l 282 540 l 282 608 l 128 629 l 128 594 l 281 575 l 281 574 l 128 546 m 296 493 l 392 533 l 392 546 l 450 546 l 450 579 l 392 579 l 392 592 l 296 631 l 296 594 l 360 568 l 360 557 l 296 529 l 296 493 m 296 338 l 326 338 l 326 393 l 450 393 l 450 426 l 326 426 l 326 482 l 296 482 l 296 338 m 204 360 q 250 311 250 360 q 204 263 250 263 q 160 311 160 263 q 204 360 160 360 m 539 697 q 585 649 585 697 q 539 600 585 600 q 494 649 494 600 q 539 697 494 697 m 463 775 l 463 742 l 617 742 l 617 775 l 463 775 m 364 215 l 399 215 l 399 325 l 364 325 l 364 215 m 178 889 q 199 865 199 889 l 199 811 l 158 811 l 158 865 q 178 889 158 889 m 347 754 q 365 731 365 754 l 365 675 l 326 675 l 326 729 q 347 754 326 754 m 179 182 q 197 160 197 182 l 197 104 l 158 104 l 158 158 q 179 182 158 182 m 597 343 q 617 363 617 343 q 597 382 617 382 l 585 376 q 579 363 579 371 q 597 343 579 343 z "},"▵":{"ha":746,"x_min":56,"x_max":690,"o":"m 690 0 l 56 0 l 56 1000 l 690 1000 l 690 0 m 617 649 q 539 731 617 731 q 463 649 463 731 q 482 588 463 611 q 539 565 501 565 q 617 649 617 565 m 204 393 q 128 311 128 393 q 204 229 128 229 q 282 311 282 229 q 204 393 282 393 m 128 865 l 128 776 l 282 776 l 282 811 l 228 811 l 228 889 l 282 889 l 282 924 l 199 924 l 199 883 q 168 924 189 924 q 128 865 128 924 m 347 789 q 296 738 296 789 l 296 642 l 450 642 l 450 675 l 394 675 q 395 700 394 686 q 396 715 396 714 q 347 789 396 789 m 282 104 l 226 104 q 227 129 226 115 q 228 144 228 143 q 179 218 228 218 q 142 203 156 218 q 128 165 128 189 l 128 71 l 282 71 l 282 104 m 617 894 l 617 926 l 463 926 l 463 863 l 617 836 l 463 806 l 463 775 l 617 804 l 617 867 l 464 894 l 617 894 m 128 765 l 128 639 l 282 639 l 282 765 l 250 765 l 250 674 l 218 674 l 218 765 l 189 765 l 189 674 l 160 674 l 160 765 l 128 765 m 326 833 l 326 926 l 296 926 l 296 800 l 450 800 l 450 926 l 418 926 l 418 833 l 386 833 l 386 926 l 357 926 l 357 833 l 326 833 m 617 476 q 561 556 617 542 l 561 521 q 585 476 585 513 q 539 432 585 432 q 494 476 494 432 q 517 521 494 514 l 517 554 q 463 478 463 546 q 483 419 463 440 q 539 397 503 397 q 596 419 575 397 q 617 476 617 440 m 281 453 l 128 429 l 128 394 l 282 418 l 282 486 l 128 513 l 128 478 l 281 453 m 128 546 l 128 513 l 282 540 l 282 608 l 128 629 l 128 594 l 281 575 l 281 574 l 128 546 m 296 493 l 392 533 l 392 546 l 450 546 l 450 579 l 392 579 l 392 592 l 296 631 l 296 594 l 360 568 l 360 557 l 296 529 l 296 493 m 296 338 l 326 338 l 326 393 l 450 393 l 450 426 l 326 426 l 326 482 l 296 482 l 296 338 m 204 360 q 250 311 250 360 q 204 263 250 263 q 160 311 160 263 q 204 360 160 360 m 539 697 q 585 649 585 697 q 539 600 585 600 q 494 649 494 600 q 539 697 494 697 m 463 775 l 463 742 l 617 742 l 617 775 l 463 775 m 364 215 l 399 215 l 399 325 l 364 325 l 364 215 m 178 889 q 199 865 199 889 l 199 811 l 158 811 l 158 865 q 178 889 158 889 m 347 754 q 365 731 365 754 l 365 675 l 326 675 l 326 729 q 347 754 326 754 m 179 182 q 197 160 197 182 l 197 104 l 158 104 l 158 158 q 179 182 158 182 m 597 343 q 617 363 617 343 q 597 382 617 382 l 585 376 q 579 363 579 371 q 597 343 579 343 z "},"▽":{"ha":746,"x_min":56,"x_max":690,"o":"m 690 0 l 56 0 l 56 1000 l 690 1000 l 690 0 m 617 649 q 539 731 617 731 q 463 649 463 731 q 482 588 463 611 q 539 565 501 565 q 617 649 617 565 m 204 393 q 128 311 128 393 q 204 229 128 229 q 282 311 282 229 q 204 393 282 393 m 128 865 l 128 776 l 282 776 l 282 811 l 228 811 l 228 889 l 282 889 l 282 924 l 199 924 l 199 883 q 168 924 189 924 q 128 865 128 924 m 347 789 q 296 738 296 789 l 296 642 l 450 642 l 450 675 l 394 675 q 395 700 394 686 q 396 715 396 714 q 347 789 396 789 m 282 104 l 226 104 q 227 129 226 115 q 228 144 228 143 q 179 218 228 218 q 142 203 156 218 q 128 165 128 189 l 128 71 l 282 71 l 282 104 m 617 894 l 617 926 l 463 926 l 463 863 l 617 836 l 463 806 l 463 775 l 617 804 l 617 867 l 464 894 l 617 894 m 128 765 l 128 639 l 282 639 l 282 765 l 250 765 l 250 674 l 218 674 l 218 765 l 189 765 l 189 674 l 160 674 l 160 765 l 128 765 m 326 833 l 326 926 l 296 926 l 296 800 l 450 800 l 450 926 l 418 926 l 418 833 l 386 833 l 386 926 l 357 926 l 357 833 l 326 833 m 617 476 q 561 556 617 542 l 561 521 q 585 476 585 513 q 539 432 585 432 q 494 476 494 432 q 517 521 494 514 l 517 554 q 463 478 463 546 q 483 419 463 440 q 539 397 503 397 q 596 419 575 397 q 617 476 617 440 m 281 453 l 128 429 l 128 394 l 282 418 l 282 486 l 128 513 l 128 478 l 281 453 m 128 546 l 128 513 l 282 540 l 282 608 l 128 629 l 128 594 l 281 575 l 281 574 l 128 546 m 296 493 l 392 533 l 392 546 l 450 546 l 450 579 l 392 579 l 392 592 l 296 631 l 296 594 l 360 568 l 360 557 l 296 529 l 296 493 m 296 338 l 326 338 l 326 393 l 450 393 l 450 426 l 326 426 l 326 482 l 296 482 l 296 338 m 204 360 q 250 311 250 360 q 204 263 250 263 q 160 311 160 263 q 204 360 160 360 m 539 697 q 585 649 585 697 q 539 600 585 600 q 494 649 494 600 q 539 697 494 697 m 463 775 l 463 742 l 617 742 l 617 775 l 463 775 m 364 215 l 399 215 l 399 325 l 364 325 l 364 215 m 178 889 q 199 865 199 889 l 199 811 l 158 811 l 158 865 q 178 889 158 889 m 347 754 q 365 731 365 754 l 365 675 l 326 675 l 326 729 q 347 754 326 754 m 179 182 q 197 160 197 182 l 197 104 l 158 104 l 158 158 q 179 182 158 182 m 597 343 q 617 363 617 343 q 597 382 617 382 l 585 376 q 579 363 579 371 q 597 343 579 343 z "},"▾":{"ha":746,"x_min":56,"x_max":690,"o":"m 690 0 l 56 0 l 56 1000 l 690 1000 l 690 0 m 617 649 q 539 731 617 731 q 463 649 463 731 q 482 588 463 611 q 539 565 501 565 q 617 649 617 565 m 204 393 q 128 311 128 393 q 204 229 128 229 q 282 311 282 229 q 204 393 282 393 m 128 865 l 128 776 l 282 776 l 282 811 l 228 811 l 228 889 l 282 889 l 282 924 l 199 924 l 199 883 q 168 924 189 924 q 128 865 128 924 m 347 789 q 296 738 296 789 l 296 642 l 450 642 l 450 675 l 394 675 q 395 700 394 686 q 396 715 396 714 q 347 789 396 789 m 282 104 l 226 104 q 227 129 226 115 q 228 144 228 143 q 179 218 228 218 q 142 203 156 218 q 128 165 128 189 l 128 71 l 282 71 l 282 104 m 617 894 l 617 926 l 463 926 l 463 863 l 617 836 l 463 806 l 463 775 l 617 804 l 617 867 l 464 894 l 617 894 m 128 765 l 128 639 l 282 639 l 282 765 l 250 765 l 250 674 l 218 674 l 218 765 l 189 765 l 189 674 l 160 674 l 160 765 l 128 765 m 326 833 l 326 926 l 296 926 l 296 800 l 450 800 l 450 926 l 418 926 l 418 833 l 386 833 l 386 926 l 357 926 l 357 833 l 326 833 m 617 476 q 561 556 617 542 l 561 521 q 585 476 585 513 q 539 432 585 432 q 494 476 494 432 q 517 521 494 514 l 517 554 q 463 478 463 546 q 483 419 463 440 q 539 397 503 397 q 596 419 575 397 q 617 476 617 440 m 281 453 l 128 429 l 128 394 l 282 418 l 282 486 l 128 513 l 128 478 l 281 453 m 128 546 l 128 513 l 282 540 l 282 608 l 128 629 l 128 594 l 281 575 l 281 574 l 128 546 m 296 493 l 392 533 l 392 546 l 450 546 l 450 579 l 392 579 l 392 592 l 296 631 l 296 594 l 360 568 l 360 557 l 296 529 l 296 493 m 296 338 l 326 338 l 326 393 l 450 393 l 450 426 l 326 426 l 326 482 l 296 482 l 296 338 m 204 360 q 250 311 250 360 q 204 263 250 263 q 160 311 160 263 q 204 360 160 360 m 539 697 q 585 649 585 697 q 539 600 585 600 q 494 649 494 600 q 539 697 494 697 m 463 775 l 463 742 l 617 742 l 617 775 l 463 775 m 364 215 l 399 215 l 399 325 l 364 325 l 364 215 m 178 889 q 199 865 199 889 l 199 811 l 158 811 l 158 865 q 178 889 158 889 m 347 754 q 365 731 365 754 l 365 675 l 326 675 l 326 729 q 347 754 326 754 m 179 182 q 197 160 197 182 l 197 104 l 158 104 l 158 158 q 179 182 158 182 m 597 343 q 617 363 617 343 q 597 382 617 382 l 585 376 q 579 363 579 371 q 597 343 579 343 z "},"▿":{"ha":746,"x_min":56,"x_max":690,"o":"m 690 0 l 56 0 l 56 1000 l 690 1000 l 690 0 m 617 649 q 539 731 617 731 q 463 649 463 731 q 482 588 463 611 q 539 565 501 565 q 617 649 617 565 m 204 393 q 128 311 128 393 q 204 229 128 229 q 282 311 282 229 q 204 393 282 393 m 128 865 l 128 776 l 282 776 l 282 811 l 228 811 l 228 889 l 282 889 l 282 924 l 199 924 l 199 883 q 168 924 189 924 q 128 865 128 924 m 347 789 q 296 738 296 789 l 296 642 l 450 642 l 450 675 l 394 675 q 395 700 394 686 q 396 715 396 714 q 347 789 396 789 m 282 104 l 226 104 q 227 129 226 115 q 228 144 228 143 q 179 218 228 218 q 142 203 156 218 q 128 165 128 189 l 128 71 l 282 71 l 282 104 m 617 894 l 617 926 l 463 926 l 463 863 l 617 836 l 463 806 l 463 775 l 617 804 l 617 867 l 464 894 l 617 894 m 128 765 l 128 639 l 282 639 l 282 765 l 250 765 l 250 674 l 218 674 l 218 765 l 189 765 l 189 674 l 160 674 l 160 765 l 128 765 m 326 833 l 326 926 l 296 926 l 296 800 l 450 800 l 450 926 l 418 926 l 418 833 l 386 833 l 386 926 l 357 926 l 357 833 l 326 833 m 617 476 q 561 556 617 542 l 561 521 q 585 476 585 513 q 539 432 585 432 q 494 476 494 432 q 517 521 494 514 l 517 554 q 463 478 463 546 q 483 419 463 440 q 539 397 503 397 q 596 419 575 397 q 617 476 617 440 m 281 453 l 128 429 l 128 394 l 282 418 l 282 486 l 128 513 l 128 478 l 281 453 m 128 546 l 128 513 l 282 540 l 282 608 l 128 629 l 128 594 l 281 575 l 281 574 l 128 546 m 296 493 l 392 533 l 392 546 l 450 546 l 450 579 l 392 579 l 392 592 l 296 631 l 296 594 l 360 568 l 360 557 l 296 529 l 296 493 m 296 338 l 326 338 l 326 393 l 450 393 l 450 426 l 326 426 l 326 482 l 296 482 l 296 338 m 204 360 q 250 311 250 360 q 204 263 250 263 q 160 311 160 263 q 204 360 160 360 m 539 697 q 585 649 585 697 q 539 600 585 600 q 494 649 494 600 q 539 697 494 697 m 463 775 l 463 742 l 617 742 l 617 775 l 463 775 m 364 215 l 399 215 l 399 325 l 364 325 l 364 215 m 178 889 q 199 865 199 889 l 199 811 l 158 811 l 158 865 q 178 889 158 889 m 347 754 q 365 731 365 754 l 365 675 l 326 675 l 326 729 q 347 754 326 754 m 179 182 q 197 160 197 182 l 197 104 l 158 104 l 158 158 q 179 182 158 182 m 597 343 q 617 363 617 343 q 597 382 617 382 l 585 376 q 579 363 579 371 q 597 343 579 343 z "},"☠":{"ha":746,"x_min":56,"x_max":690,"o":"m 690 0 l 56 0 l 56 1000 l 690 1000 l 690 0 m 617 649 q 539 731 617 731 q 463 649 463 731 q 482 588 463 611 q 539 565 501 565 q 617 649 617 565 m 204 393 q 128 311 128 393 q 204 229 128 229 q 282 311 282 229 q 204 393 282 393 m 128 865 l 128 776 l 282 776 l 282 811 l 228 811 l 228 889 l 282 889 l 282 924 l 199 924 l 199 883 q 168 924 189 924 q 128 865 128 924 m 347 789 q 296 738 296 789 l 296 642 l 450 642 l 450 675 l 394 675 q 395 700 394 686 q 396 715 396 714 q 347 789 396 789 m 282 104 l 226 104 q 227 129 226 115 q 228 144 228 143 q 179 218 228 218 q 142 203 156 218 q 128 165 128 189 l 128 71 l 282 71 l 282 104 m 617 894 l 617 926 l 463 926 l 463 863 l 617 836 l 463 806 l 463 775 l 617 804 l 617 867 l 464 894 l 617 894 m 128 765 l 128 639 l 282 639 l 282 765 l 250 765 l 250 674 l 218 674 l 218 765 l 189 765 l 189 674 l 160 674 l 160 765 l 128 765 m 326 833 l 326 926 l 296 926 l 296 800 l 450 800 l 450 926 l 418 926 l 418 833 l 386 833 l 386 926 l 357 926 l 357 833 l 326 833 m 617 476 q 561 556 617 542 l 561 521 q 585 476 585 513 q 539 432 585 432 q 494 476 494 432 q 517 521 494 514 l 517 554 q 463 478 463 546 q 483 419 463 440 q 539 397 503 397 q 596 419 575 397 q 617 476 617 440 m 281 453 l 128 429 l 128 394 l 282 418 l 282 486 l 128 513 l 128 478 l 281 453 m 128 546 l 128 513 l 282 540 l 282 608 l 128 629 l 128 594 l 281 575 l 281 574 l 128 546 m 296 493 l 392 533 l 392 546 l 450 546 l 450 579 l 392 579 l 392 592 l 296 631 l 296 594 l 360 568 l 360 557 l 296 529 l 296 493 m 296 338 l 326 338 l 326 393 l 450 393 l 450 426 l 326 426 l 326 482 l 296 482 l 296 338 m 204 360 q 250 311 250 360 q 204 263 250 263 q 160 311 160 263 q 204 360 160 360 m 539 697 q 585 649 585 697 q 539 600 585 600 q 494 649 494 600 q 539 697 494 697 m 463 775 l 463 742 l 617 742 l 617 775 l 463 775 m 364 215 l 399 215 l 399 325 l 364 325 l 364 215 m 178 889 q 199 865 199 889 l 199 811 l 158 811 l 158 865 q 178 889 158 889 m 347 754 q 365 731 365 754 l 365 675 l 326 675 l 326 729 q 347 754 326 754 m 179 182 q 197 160 197 182 l 197 104 l 158 104 l 158 158 q 179 182 158 182 m 597 343 q 617 363 617 343 q 597 382 617 382 l 585 376 q 579 363 579 371 q 597 343 579 343 z "},"☡":{"ha":746,"x_min":56,"x_max":690,"o":"m 690 0 l 56 0 l 56 1000 l 690 1000 l 690 0 m 617 649 q 539 731 617 731 q 463 649 463 731 q 482 588 463 611 q 539 565 501 565 q 617 649 617 565 m 204 393 q 128 311 128 393 q 204 229 128 229 q 282 311 282 229 q 204 393 282 393 m 128 865 l 128 776 l 282 776 l 282 811 l 228 811 l 228 889 l 282 889 l 282 924 l 199 924 l 199 883 q 168 924 189 924 q 128 865 128 924 m 347 789 q 296 738 296 789 l 296 642 l 450 642 l 450 675 l 394 675 q 395 700 394 686 q 396 715 396 714 q 347 789 396 789 m 282 104 l 226 104 q 227 129 226 115 q 228 144 228 143 q 179 218 228 218 q 142 203 156 218 q 128 165 128 189 l 128 71 l 282 71 l 282 104 m 617 894 l 617 926 l 463 926 l 463 863 l 617 836 l 463 806 l 463 775 l 617 804 l 617 867 l 464 894 l 617 894 m 128 765 l 128 639 l 282 639 l 282 765 l 250 765 l 250 674 l 218 674 l 218 765 l 189 765 l 189 674 l 160 674 l 160 765 l 128 765 m 326 833 l 326 926 l 296 926 l 296 800 l 450 800 l 450 926 l 418 926 l 418 833 l 386 833 l 386 926 l 357 926 l 357 833 l 326 833 m 617 476 q 561 556 617 542 l 561 521 q 585 476 585 513 q 539 432 585 432 q 494 476 494 432 q 517 521 494 514 l 517 554 q 463 478 463 546 q 483 419 463 440 q 539 397 503 397 q 596 419 575 397 q 617 476 617 440 m 281 453 l 128 429 l 128 394 l 282 418 l 282 486 l 128 513 l 128 478 l 281 453 m 128 546 l 128 513 l 282 540 l 282 608 l 128 629 l 128 594 l 281 575 l 281 574 l 128 546 m 296 493 l 392 533 l 392 546 l 450 546 l 450 579 l 392 579 l 392 592 l 296 631 l 296 594 l 360 568 l 360 557 l 296 529 l 296 493 m 296 338 l 326 338 l 326 393 l 450 393 l 450 426 l 326 426 l 326 482 l 296 482 l 296 338 m 204 360 q 250 311 250 360 q 204 263 250 263 q 160 311 160 263 q 204 360 160 360 m 539 697 q 585 649 585 697 q 539 600 585 600 q 494 649 494 600 q 539 697 494 697 m 463 775 l 463 742 l 617 742 l 617 775 l 463 775 m 364 215 l 399 215 l 399 325 l 364 325 l 364 215 m 178 889 q 199 865 199 889 l 199 811 l 158 811 l 158 865 q 178 889 158 889 m 347 754 q 365 731 365 754 l 365 675 l 326 675 l 326 729 q 347 754 326 754 m 179 182 q 197 160 197 182 l 197 104 l 158 104 l 158 158 q 179 182 158 182 m 597 343 q 617 363 617 343 q 597 382 617 382 l 585 376 q 579 363 579 371 q 597 343 579 343 z "},"☻":{"ha":746,"x_min":56,"x_max":690,"o":"m 690 0 l 56 0 l 56 1000 l 690 1000 l 690 0 m 617 649 q 539 731 617 731 q 463 649 463 731 q 482 588 463 611 q 539 565 501 565 q 617 649 617 565 m 204 393 q 128 311 128 393 q 204 229 128 229 q 282 311 282 229 q 204 393 282 393 m 128 865 l 128 776 l 282 776 l 282 811 l 228 811 l 228 889 l 282 889 l 282 924 l 199 924 l 199 883 q 168 924 189 924 q 128 865 128 924 m 347 789 q 296 738 296 789 l 296 642 l 450 642 l 450 675 l 394 675 q 395 700 394 686 q 396 715 396 714 q 347 789 396 789 m 282 104 l 226 104 q 227 129 226 115 q 228 144 228 143 q 179 218 228 218 q 142 203 156 218 q 128 165 128 189 l 128 71 l 282 71 l 282 104 m 617 894 l 617 926 l 463 926 l 463 863 l 617 836 l 463 806 l 463 775 l 617 804 l 617 867 l 464 894 l 617 894 m 128 765 l 128 639 l 282 639 l 282 765 l 250 765 l 250 674 l 218 674 l 218 765 l 189 765 l 189 674 l 160 674 l 160 765 l 128 765 m 326 833 l 326 926 l 296 926 l 296 800 l 450 800 l 450 926 l 418 926 l 418 833 l 386 833 l 386 926 l 357 926 l 357 833 l 326 833 m 617 476 q 561 556 617 542 l 561 521 q 585 476 585 513 q 539 432 585 432 q 494 476 494 432 q 517 521 494 514 l 517 554 q 463 478 463 546 q 483 419 463 440 q 539 397 503 397 q 596 419 575 397 q 617 476 617 440 m 281 453 l 128 429 l 128 394 l 282 418 l 282 486 l 128 513 l 128 478 l 281 453 m 128 546 l 128 513 l 282 540 l 282 608 l 128 629 l 128 594 l 281 575 l 281 574 l 128 546 m 296 493 l 392 533 l 392 546 l 450 546 l 450 579 l 392 579 l 392 592 l 296 631 l 296 594 l 360 568 l 360 557 l 296 529 l 296 493 m 296 338 l 326 338 l 326 393 l 450 393 l 450 426 l 326 426 l 326 482 l 296 482 l 296 338 m 204 360 q 250 311 250 360 q 204 263 250 263 q 160 311 160 263 q 204 360 160 360 m 539 697 q 585 649 585 697 q 539 600 585 600 q 494 649 494 600 q 539 697 494 697 m 463 775 l 463 742 l 617 742 l 617 775 l 463 775 m 364 215 l 399 215 l 399 325 l 364 325 l 364 215 m 178 889 q 199 865 199 889 l 199 811 l 158 811 l 158 865 q 178 889 158 889 m 347 754 q 365 731 365 754 l 365 675 l 326 675 l 326 729 q 347 754 326 754 m 179 182 q 197 160 197 182 l 197 104 l 158 104 l 158 158 q 179 182 158 182 m 597 343 q 617 363 617 343 q 597 382 617 382 l 585 376 q 579 363 579 371 q 597 343 579 343 z "},"♢":{"ha":746,"x_min":56,"x_max":690,"o":"m 690 0 l 56 0 l 56 1000 l 690 1000 l 690 0 m 617 649 q 539 731 617 731 q 463 649 463 731 q 482 588 463 611 q 539 565 501 565 q 617 649 617 565 m 204 393 q 128 311 128 393 q 204 229 128 229 q 282 311 282 229 q 204 393 282 393 m 128 865 l 128 776 l 282 776 l 282 811 l 228 811 l 228 889 l 282 889 l 282 924 l 199 924 l 199 883 q 168 924 189 924 q 128 865 128 924 m 347 789 q 296 738 296 789 l 296 642 l 450 642 l 450 675 l 394 675 q 395 700 394 686 q 396 715 396 714 q 347 789 396 789 m 282 104 l 226 104 q 227 129 226 115 q 228 144 228 143 q 179 218 228 218 q 142 203 156 218 q 128 165 128 189 l 128 71 l 282 71 l 282 104 m 617 894 l 617 926 l 463 926 l 463 863 l 617 836 l 463 806 l 463 775 l 617 804 l 617 867 l 464 894 l 617 894 m 128 765 l 128 639 l 282 639 l 282 765 l 250 765 l 250 674 l 218 674 l 218 765 l 189 765 l 189 674 l 160 674 l 160 765 l 128 765 m 326 833 l 326 926 l 296 926 l 296 800 l 450 800 l 450 926 l 418 926 l 418 833 l 386 833 l 386 926 l 357 926 l 357 833 l 326 833 m 617 476 q 561 556 617 542 l 561 521 q 585 476 585 513 q 539 432 585 432 q 494 476 494 432 q 517 521 494 514 l 517 554 q 463 478 463 546 q 483 419 463 440 q 539 397 503 397 q 596 419 575 397 q 617 476 617 440 m 281 453 l 128 429 l 128 394 l 282 418 l 282 486 l 128 513 l 128 478 l 281 453 m 128 546 l 128 513 l 282 540 l 282 608 l 128 629 l 128 594 l 281 575 l 281 574 l 128 546 m 296 493 l 392 533 l 392 546 l 450 546 l 450 579 l 392 579 l 392 592 l 296 631 l 296 594 l 360 568 l 360 557 l 296 529 l 296 493 m 296 338 l 326 338 l 326 393 l 450 393 l 450 426 l 326 426 l 326 482 l 296 482 l 296 338 m 204 360 q 250 311 250 360 q 204 263 250 263 q 160 311 160 263 q 204 360 160 360 m 539 697 q 585 649 585 697 q 539 600 585 600 q 494 649 494 600 q 539 697 494 697 m 463 775 l 463 742 l 617 742 l 617 775 l 463 775 m 364 215 l 399 215 l 399 325 l 364 325 l 364 215 m 178 889 q 199 865 199 889 l 199 811 l 158 811 l 158 865 q 178 889 158 889 m 347 754 q 365 731 365 754 l 365 675 l 326 675 l 326 729 q 347 754 326 754 m 179 182 q 197 160 197 182 l 197 104 l 158 104 l 158 158 q 179 182 158 182 m 597 343 q 617 363 617 343 q 597 382 617 382 l 585 376 q 579 363 579 371 q 597 343 579 343 z "},"♤":{"ha":746,"x_min":56,"x_max":690,"o":"m 690 0 l 56 0 l 56 1000 l 690 1000 l 690 0 m 617 649 q 539 731 617 731 q 463 649 463 731 q 482 588 463 611 q 539 565 501 565 q 617 649 617 565 m 204 393 q 128 311 128 393 q 204 229 128 229 q 282 311 282 229 q 204 393 282 393 m 128 865 l 128 776 l 282 776 l 282 811 l 228 811 l 228 889 l 282 889 l 282 924 l 199 924 l 199 883 q 168 924 189 924 q 128 865 128 924 m 347 789 q 296 738 296 789 l 296 642 l 450 642 l 450 675 l 394 675 q 395 700 394 686 q 396 715 396 714 q 347 789 396 789 m 282 104 l 226 104 q 227 129 226 115 q 228 144 228 143 q 179 218 228 218 q 142 203 156 218 q 128 165 128 189 l 128 71 l 282 71 l 282 104 m 617 894 l 617 926 l 463 926 l 463 863 l 617 836 l 463 806 l 463 775 l 617 804 l 617 867 l 464 894 l 617 894 m 128 765 l 128 639 l 282 639 l 282 765 l 250 765 l 250 674 l 218 674 l 218 765 l 189 765 l 189 674 l 160 674 l 160 765 l 128 765 m 326 833 l 326 926 l 296 926 l 296 800 l 450 800 l 450 926 l 418 926 l 418 833 l 386 833 l 386 926 l 357 926 l 357 833 l 326 833 m 617 476 q 561 556 617 542 l 561 521 q 585 476 585 513 q 539 432 585 432 q 494 476 494 432 q 517 521 494 514 l 517 554 q 463 478 463 546 q 483 419 463 440 q 539 397 503 397 q 596 419 575 397 q 617 476 617 440 m 281 453 l 128 429 l 128 394 l 282 418 l 282 486 l 128 513 l 128 478 l 281 453 m 128 546 l 128 513 l 282 540 l 282 608 l 128 629 l 128 594 l 281 575 l 281 574 l 128 546 m 296 493 l 392 533 l 392 546 l 450 546 l 450 579 l 392 579 l 392 592 l 296 631 l 296 594 l 360 568 l 360 557 l 296 529 l 296 493 m 296 338 l 326 338 l 326 393 l 450 393 l 450 426 l 326 426 l 326 482 l 296 482 l 296 338 m 204 360 q 250 311 250 360 q 204 263 250 263 q 160 311 160 263 q 204 360 160 360 m 539 697 q 585 649 585 697 q 539 600 585 600 q 494 649 494 600 q 539 697 494 697 m 463 775 l 463 742 l 617 742 l 617 775 l 463 775 m 364 215 l 399 215 l 399 325 l 364 325 l 364 215 m 178 889 q 199 865 199 889 l 199 811 l 158 811 l 158 865 q 178 889 158 889 m 347 754 q 365 731 365 754 l 365 675 l 326 675 l 326 729 q 347 754 326 754 m 179 182 q 197 160 197 182 l 197 104 l 158 104 l 158 158 q 179 182 158 182 m 597 343 q 617 363 617 343 q 597 382 617 382 l 585 376 q 579 363 579 371 q 597 343 579 343 z "},"♧":{"ha":746,"x_min":56,"x_max":690,"o":"m 690 0 l 56 0 l 56 1000 l 690 1000 l 690 0 m 617 649 q 539 731 617 731 q 463 649 463 731 q 482 588 463 611 q 539 565 501 565 q 617 649 617 565 m 204 393 q 128 311 128 393 q 204 229 128 229 q 282 311 282 229 q 204 393 282 393 m 128 865 l 128 776 l 282 776 l 282 811 l 228 811 l 228 889 l 282 889 l 282 924 l 199 924 l 199 883 q 168 924 189 924 q 128 865 128 924 m 347 789 q 296 738 296 789 l 296 642 l 450 642 l 450 675 l 394 675 q 395 700 394 686 q 396 715 396 714 q 347 789 396 789 m 282 104 l 226 104 q 227 129 226 115 q 228 144 228 143 q 179 218 228 218 q 142 203 156 218 q 128 165 128 189 l 128 71 l 282 71 l 282 104 m 617 894 l 617 926 l 463 926 l 463 863 l 617 836 l 463 806 l 463 775 l 617 804 l 617 867 l 464 894 l 617 894 m 128 765 l 128 639 l 282 639 l 282 765 l 250 765 l 250 674 l 218 674 l 218 765 l 189 765 l 189 674 l 160 674 l 160 765 l 128 765 m 326 833 l 326 926 l 296 926 l 296 800 l 450 800 l 450 926 l 418 926 l 418 833 l 386 833 l 386 926 l 357 926 l 357 833 l 326 833 m 617 476 q 561 556 617 542 l 561 521 q 585 476 585 513 q 539 432 585 432 q 494 476 494 432 q 517 521 494 514 l 517 554 q 463 478 463 546 q 483 419 463 440 q 539 397 503 397 q 596 419 575 397 q 617 476 617 440 m 281 453 l 128 429 l 128 394 l 282 418 l 282 486 l 128 513 l 128 478 l 281 453 m 128 546 l 128 513 l 282 540 l 282 608 l 128 629 l 128 594 l 281 575 l 281 574 l 128 546 m 296 493 l 392 533 l 392 546 l 450 546 l 450 579 l 392 579 l 392 592 l 296 631 l 296 594 l 360 568 l 360 557 l 296 529 l 296 493 m 296 338 l 326 338 l 326 393 l 450 393 l 450 426 l 326 426 l 326 482 l 296 482 l 296 338 m 204 360 q 250 311 250 360 q 204 263 250 263 q 160 311 160 263 q 204 360 160 360 m 539 697 q 585 649 585 697 q 539 600 585 600 q 494 649 494 600 q 539 697 494 697 m 463 775 l 463 742 l 617 742 l 617 775 l 463 775 m 364 215 l 399 215 l 399 325 l 364 325 l 364 215 m 178 889 q 199 865 199 889 l 199 811 l 158 811 l 158 865 q 178 889 158 889 m 347 754 q 365 731 365 754 l 365 675 l 326 675 l 326 729 q 347 754 326 754 m 179 182 q 197 160 197 182 l 197 104 l 158 104 l 158 158 q 179 182 158 182 m 597 343 q 617 363 617 343 q 597 382 617 382 l 585 376 q 579 363 579 371 q 597 343 579 343 z "},"♩":{"ha":746,"x_min":56,"x_max":690,"o":"m 690 0 l 56 0 l 56 1000 l 690 1000 l 690 0 m 617 649 q 539 731 617 731 q 463 649 463 731 q 482 588 463 611 q 539 565 501 565 q 617 649 617 565 m 204 393 q 128 311 128 393 q 204 229 128 229 q 282 311 282 229 q 204 393 282 393 m 128 865 l 128 776 l 282 776 l 282 811 l 228 811 l 228 889 l 282 889 l 282 924 l 199 924 l 199 883 q 168 924 189 924 q 128 865 128 924 m 347 789 q 296 738 296 789 l 296 642 l 450 642 l 450 675 l 394 675 q 395 700 394 686 q 396 715 396 714 q 347 789 396 789 m 282 104 l 226 104 q 227 129 226 115 q 228 144 228 143 q 179 218 228 218 q 142 203 156 218 q 128 165 128 189 l 128 71 l 282 71 l 282 104 m 617 894 l 617 926 l 463 926 l 463 863 l 617 836 l 463 806 l 463 775 l 617 804 l 617 867 l 464 894 l 617 894 m 128 765 l 128 639 l 282 639 l 282 765 l 250 765 l 250 674 l 218 674 l 218 765 l 189 765 l 189 674 l 160 674 l 160 765 l 128 765 m 326 833 l 326 926 l 296 926 l 296 800 l 450 800 l 450 926 l 418 926 l 418 833 l 386 833 l 386 926 l 357 926 l 357 833 l 326 833 m 617 476 q 561 556 617 542 l 561 521 q 585 476 585 513 q 539 432 585 432 q 494 476 494 432 q 517 521 494 514 l 517 554 q 463 478 463 546 q 483 419 463 440 q 539 397 503 397 q 596 419 575 397 q 617 476 617 440 m 281 453 l 128 429 l 128 394 l 282 418 l 282 486 l 128 513 l 128 478 l 281 453 m 128 546 l 128 513 l 282 540 l 282 608 l 128 629 l 128 594 l 281 575 l 281 574 l 128 546 m 296 493 l 392 533 l 392 546 l 450 546 l 450 579 l 392 579 l 392 592 l 296 631 l 296 594 l 360 568 l 360 557 l 296 529 l 296 493 m 296 338 l 326 338 l 326 393 l 450 393 l 450 426 l 326 426 l 326 482 l 296 482 l 296 338 m 204 360 q 250 311 250 360 q 204 263 250 263 q 160 311 160 263 q 204 360 160 360 m 539 697 q 585 649 585 697 q 539 600 585 600 q 494 649 494 600 q 539 697 494 697 m 463 775 l 463 742 l 617 742 l 617 775 l 463 775 m 364 215 l 399 215 l 399 325 l 364 325 l 364 215 m 178 889 q 199 865 199 889 l 199 811 l 158 811 l 158 865 q 178 889 158 889 m 347 754 q 365 731 365 754 l 365 675 l 326 675 l 326 729 q 347 754 326 754 m 179 182 q 197 160 197 182 l 197 104 l 158 104 l 158 158 q 179 182 158 182 m 597 343 q 617 363 617 343 q 597 382 617 382 l 585 376 q 579 363 579 371 q 597 343 579 343 z "},"✉":{"ha":746,"x_min":56,"x_max":690,"o":"m 690 0 l 56 0 l 56 1000 l 690 1000 l 690 0 m 617 649 q 539 731 617 731 q 463 649 463 731 q 482 588 463 611 q 539 565 501 565 q 617 649 617 565 m 204 393 q 128 311 128 393 q 204 229 128 229 q 282 311 282 229 q 204 393 282 393 m 128 865 l 128 776 l 282 776 l 282 811 l 228 811 l 228 889 l 282 889 l 282 924 l 199 924 l 199 883 q 168 924 189 924 q 128 865 128 924 m 347 789 q 296 738 296 789 l 296 642 l 450 642 l 450 675 l 394 675 q 395 700 394 686 q 396 715 396 714 q 347 789 396 789 m 282 104 l 226 104 q 227 129 226 115 q 228 144 228 143 q 179 218 228 218 q 142 203 156 218 q 128 165 128 189 l 128 71 l 282 71 l 282 104 m 617 894 l 617 926 l 463 926 l 463 863 l 617 836 l 463 806 l 463 775 l 617 804 l 617 867 l 464 894 l 617 894 m 128 765 l 128 639 l 282 639 l 282 765 l 250 765 l 250 674 l 218 674 l 218 765 l 189 765 l 189 674 l 160 674 l 160 765 l 128 765 m 326 833 l 326 926 l 296 926 l 296 800 l 450 800 l 450 926 l 418 926 l 418 833 l 386 833 l 386 926 l 357 926 l 357 833 l 326 833 m 617 476 q 561 556 617 542 l 561 521 q 585 476 585 513 q 539 432 585 432 q 494 476 494 432 q 517 521 494 514 l 517 554 q 463 478 463 546 q 483 419 463 440 q 539 397 503 397 q 596 419 575 397 q 617 476 617 440 m 281 453 l 128 429 l 128 394 l 282 418 l 282 486 l 128 513 l 128 478 l 281 453 m 128 546 l 128 513 l 282 540 l 282 608 l 128 629 l 128 594 l 281 575 l 281 574 l 128 546 m 296 493 l 392 533 l 392 546 l 450 546 l 450 579 l 392 579 l 392 592 l 296 631 l 296 594 l 360 568 l 360 557 l 296 529 l 296 493 m 296 338 l 326 338 l 326 393 l 450 393 l 450 426 l 326 426 l 326 482 l 296 482 l 296 338 m 204 360 q 250 311 250 360 q 204 263 250 263 q 160 311 160 263 q 204 360 160 360 m 539 697 q 585 649 585 697 q 539 600 585 600 q 494 649 494 600 q 539 697 494 697 m 463 775 l 463 742 l 617 742 l 617 775 l 463 775 m 364 215 l 399 215 l 399 325 l 364 325 l 364 215 m 178 889 q 199 865 199 889 l 199 811 l 158 811 l 158 865 q 178 889 158 889 m 347 754 q 365 731 365 754 l 365 675 l 326 675 l 326 729 q 347 754 326 754 m 179 182 q 197 160 197 182 l 197 104 l 158 104 l 158 158 q 179 182 158 182 m 597 343 q 617 363 617 343 q 597 382 617 382 l 585 376 q 579 363 579 371 q 597 343 579 343 z "},"✊":{"ha":746,"x_min":56,"x_max":690,"o":"m 690 0 l 56 0 l 56 1000 l 690 1000 l 690 0 m 617 649 q 539 731 617 731 q 463 649 463 731 q 482 588 463 611 q 539 565 501 565 q 617 649 617 565 m 204 393 q 128 311 128 393 q 204 229 128 229 q 282 311 282 229 q 204 393 282 393 m 128 865 l 128 776 l 282 776 l 282 811 l 228 811 l 228 889 l 282 889 l 282 924 l 199 924 l 199 883 q 168 924 189 924 q 128 865 128 924 m 347 789 q 296 738 296 789 l 296 642 l 450 642 l 450 675 l 394 675 q 395 700 394 686 q 396 715 396 714 q 347 789 396 789 m 282 104 l 226 104 q 227 129 226 115 q 228 144 228 143 q 179 218 228 218 q 142 203 156 218 q 128 165 128 189 l 128 71 l 282 71 l 282 104 m 617 894 l 617 926 l 463 926 l 463 863 l 617 836 l 463 806 l 463 775 l 617 804 l 617 867 l 464 894 l 617 894 m 128 765 l 128 639 l 282 639 l 282 765 l 250 765 l 250 674 l 218 674 l 218 765 l 189 765 l 189 674 l 160 674 l 160 765 l 128 765 m 326 833 l 326 926 l 296 926 l 296 800 l 450 800 l 450 926 l 418 926 l 418 833 l 386 833 l 386 926 l 357 926 l 357 833 l 326 833 m 617 476 q 561 556 617 542 l 561 521 q 585 476 585 513 q 539 432 585 432 q 494 476 494 432 q 517 521 494 514 l 517 554 q 463 478 463 546 q 483 419 463 440 q 539 397 503 397 q 596 419 575 397 q 617 476 617 440 m 281 453 l 128 429 l 128 394 l 282 418 l 282 486 l 128 513 l 128 478 l 281 453 m 128 546 l 128 513 l 282 540 l 282 608 l 128 629 l 128 594 l 281 575 l 281 574 l 128 546 m 296 493 l 392 533 l 392 546 l 450 546 l 450 579 l 392 579 l 392 592 l 296 631 l 296 594 l 360 568 l 360 557 l 296 529 l 296 493 m 296 338 l 326 338 l 326 393 l 450 393 l 450 426 l 326 426 l 326 482 l 296 482 l 296 338 m 204 360 q 250 311 250 360 q 204 263 250 263 q 160 311 160 263 q 204 360 160 360 m 539 697 q 585 649 585 697 q 539 600 585 600 q 494 649 494 600 q 539 697 494 697 m 463 775 l 463 742 l 617 742 l 617 775 l 463 775 m 364 215 l 399 215 l 399 325 l 364 325 l 364 215 m 178 889 q 199 865 199 889 l 199 811 l 158 811 l 158 865 q 178 889 158 889 m 347 754 q 365 731 365 754 l 365 675 l 326 675 l 326 729 q 347 754 326 754 m 179 182 q 197 160 197 182 l 197 104 l 158 104 l 158 158 q 179 182 158 182 m 597 343 q 617 363 617 343 q 597 382 617 382 l 585 376 q 579 363 579 371 q 597 343 579 343 z "},"✋":{"ha":746,"x_min":56,"x_max":690,"o":"m 690 0 l 56 0 l 56 1000 l 690 1000 l 690 0 m 617 649 q 539 731 617 731 q 463 649 463 731 q 482 588 463 611 q 539 565 501 565 q 617 649 617 565 m 204 393 q 128 311 128 393 q 204 229 128 229 q 282 311 282 229 q 204 393 282 393 m 128 865 l 128 776 l 282 776 l 282 811 l 228 811 l 228 889 l 282 889 l 282 924 l 199 924 l 199 883 q 168 924 189 924 q 128 865 128 924 m 347 789 q 296 738 296 789 l 296 642 l 450 642 l 450 675 l 394 675 q 395 700 394 686 q 396 715 396 714 q 347 789 396 789 m 282 104 l 226 104 q 227 129 226 115 q 228 144 228 143 q 179 218 228 218 q 142 203 156 218 q 128 165 128 189 l 128 71 l 282 71 l 282 104 m 617 894 l 617 926 l 463 926 l 463 863 l 617 836 l 463 806 l 463 775 l 617 804 l 617 867 l 464 894 l 617 894 m 128 765 l 128 639 l 282 639 l 282 765 l 250 765 l 250 674 l 218 674 l 218 765 l 189 765 l 189 674 l 160 674 l 160 765 l 128 765 m 326 833 l 326 926 l 296 926 l 296 800 l 450 800 l 450 926 l 418 926 l 418 833 l 386 833 l 386 926 l 357 926 l 357 833 l 326 833 m 617 476 q 561 556 617 542 l 561 521 q 585 476 585 513 q 539 432 585 432 q 494 476 494 432 q 517 521 494 514 l 517 554 q 463 478 463 546 q 483 419 463 440 q 539 397 503 397 q 596 419 575 397 q 617 476 617 440 m 281 453 l 128 429 l 128 394 l 282 418 l 282 486 l 128 513 l 128 478 l 281 453 m 128 546 l 128 513 l 282 540 l 282 608 l 128 629 l 128 594 l 281 575 l 281 574 l 128 546 m 296 493 l 392 533 l 392 546 l 450 546 l 450 579 l 392 579 l 392 592 l 296 631 l 296 594 l 360 568 l 360 557 l 296 529 l 296 493 m 296 338 l 326 338 l 326 393 l 450 393 l 450 426 l 326 426 l 326 482 l 296 482 l 296 338 m 204 360 q 250 311 250 360 q 204 263 250 263 q 160 311 160 263 q 204 360 160 360 m 539 697 q 585 649 585 697 q 539 600 585 600 q 494 649 494 600 q 539 697 494 697 m 463 775 l 463 742 l 617 742 l 617 775 l 463 775 m 364 215 l 399 215 l 399 325 l 364 325 l 364 215 m 178 889 q 199 865 199 889 l 199 811 l 158 811 l 158 865 q 178 889 158 889 m 347 754 q 365 731 365 754 l 365 675 l 326 675 l 326 729 q 347 754 326 754 m 179 182 q 197 160 197 182 l 197 104 l 158 104 l 158 158 q 179 182 158 182 m 597 343 q 617 363 617 343 q 597 382 617 382 l 585 376 q 579 363 579 371 q 597 343 579 343 z "},"\u0000":{"ha":0,"x_min":0,"x_max":0,"o":""},"\r":{"ha":389,"x_min":0,"x_max":0,"o":""}," ":{"ha":290,"x_min":0,"x_max":0,"o":""},"!":{"ha":421,"x_min":56,"x_max":363,"o":"m 363 997 l 313 325 l 106 325 l 57 997 l 363 997 m 56 -7 l 56 253 l 357 253 l 357 -7 l 56 -7 z "},"\"":{"ha":658,"x_min":71,"x_max":588,"o":"m 285 997 l 271 576 l 85 576 l 71 997 l 285 997 m 588 997 l 574 576 l 388 576 l 374 997 l 588 997 z "},"#":{"ha":917,"x_min":75,"x_max":842,"o":"m 369 247 l 325 0 l 133 0 l 178 247 l 75 247 l 75 436 l 213 436 l 236 571 l 75 571 l 75 763 l 269 763 l 311 997 l 503 997 l 461 763 l 551 763 l 593 997 l 783 997 l 742 763 l 842 763 l 842 571 l 707 571 l 685 436 l 842 436 l 842 247 l 650 247 l 606 0 l 415 0 l 460 247 l 369 247 m 517 571 l 428 571 l 404 436 l 493 436 l 517 571 z "},"$":{"ha":921,"x_min":28,"x_max":896,"o":"m 896 326 q 844 147 896 224 q 697 29 793 71 q 561 -8 638 3 l 561 -150 l 339 -150 l 339 -1 l 340 -1 q 240 29 296 7 q 87 149 142 69 q 28 322 32 229 l 293 322 q 341 233 296 265 q 467 201 386 201 q 615 240 572 201 q 633 288 633 257 q 606 342 633 319 q 532 374 578 365 l 333 408 q 124 506 197 432 q 50 696 50 579 q 100 860 50 789 q 243 972 150 932 q 339 1000 282 988 l 339 1146 l 561 1146 l 561 1003 q 696 967 642 993 q 825 848 779 925 q 879 676 871 771 l 614 676 q 573 769 610 738 q 450 800 536 800 q 340 775 378 800 q 303 707 303 750 q 328 656 303 672 q 415 631 354 640 l 624 593 q 896 326 896 544 z "},"%":{"ha":1575,"x_min":25,"x_max":1550,"o":"m 564 500 q 518 457 564 500 q 340 414 472 414 q 117 500 208 414 q 25 706 25 586 q 117 912 25 826 q 340 997 208 997 l 1121 997 l 1151 942 l 614 0 l 389 0 l 854 818 l 849 829 l 626 829 q 656 706 656 772 q 564 500 656 586 m 340 582 q 428 613 393 582 q 463 706 463 644 q 428 798 463 767 q 340 829 394 829 q 252 798 288 829 q 217 706 217 767 q 253 614 217 646 q 340 582 289 582 m 1458 74 q 1413 31 1458 74 q 1235 -12 1367 -12 q 1011 74 1103 -12 q 919 279 919 160 q 1011 485 919 400 q 1235 571 1103 571 q 1458 485 1367 571 q 1550 279 1550 400 q 1458 74 1550 160 m 1235 156 q 1322 187 1288 156 q 1357 279 1357 218 q 1323 372 1357 340 q 1235 403 1289 403 q 1147 372 1182 403 q 1111 279 1111 340 q 1147 188 1111 219 q 1235 156 1183 156 z "},"&":{"ha":1017,"x_min":88,"x_max":972,"o":"m 625 383 l 506 383 q 346 358 393 383 q 299 278 299 332 q 419 183 299 183 q 601 306 543 183 q 625 383 614 328 m 636 576 l 636 640 l 854 640 l 854 576 l 972 576 l 972 383 l 854 383 l 854 0 l 636 0 l 636 74 q 581 36 615 57 q 401 -12 496 -12 q 231 26 304 -12 q 122 128 157 64 q 88 286 88 189 q 138 450 88 378 q 206 517 164 488 q 167 656 167 581 q 214 835 167 775 q 325 924 258 893 q 481 953 389 953 q 697 880 615 953 q 778 685 778 807 l 556 685 q 531 744 551 725 q 467 763 511 763 q 383 676 383 763 q 463 589 383 610 q 599 576 506 576 l 636 576 z "},"'":{"ha":356,"x_min":71,"x_max":285,"o":"m 285 997 l 271 576 l 85 576 l 71 997 l 285 997 z "},"(":{"ha":451,"x_min":49,"x_max":465,"o":"m 465 -268 l 225 -268 q 94 28 140 -137 q 49 365 49 193 q 94 702 49 538 q 225 997 140 867 l 465 997 q 296 365 296 736 q 465 -268 296 -7 z "},")":{"ha":451,"x_min":-14,"x_max":403,"o":"m 226 -268 l -14 -268 q 156 365 156 -12 q -14 997 156 742 l 226 997 q 358 703 313 868 q 403 365 403 539 q 358 26 403 192 q 226 -268 313 -139 z "},"*":{"ha":694,"x_min":35,"x_max":660,"o":"m 463 422 l 347 576 l 232 422 l 92 524 l 210 668 l 35 726 l 85 885 l 265 818 l 256 997 l 439 997 l 429 818 l 610 885 l 660 726 l 485 668 l 603 524 l 463 422 z "},"+":{"ha":917,"x_min":111,"x_max":806,"o":"m 571 374 l 571 139 l 346 139 l 346 374 l 111 374 l 111 582 l 346 582 l 346 817 l 571 817 l 571 582 l 806 582 l 806 374 l 571 374 z "},",":{"ha":368,"x_min":33,"x_max":335,"o":"m 33 -7 l 33 294 l 335 294 l 335 57 q 275 -136 335 -58 q 68 -215 214 -215 l 68 -97 l 78 -97 q 160 -72 128 -97 q 192 -7 192 -47 l 33 -7 z "},"-":{"ha":500,"x_min":42,"x_max":458,"o":"m 458 488 l 458 274 l 42 274 l 42 488 l 458 488 z "},".":{"ha":368,"x_min":33,"x_max":335,"o":"m 33 -7 l 33 294 l 335 294 l 335 -7 l 33 -7 z "},"/":{"ha":717,"x_min":-65,"x_max":782,"o":"m 782 997 l 171 -268 l -65 -268 l 546 997 l 782 997 z "},":":{"ha":368,"x_min":35,"x_max":336,"o":"m 35 446 l 35 750 l 336 750 l 336 446 l 35 446 m 35 25 l 35 329 l 336 329 l 336 25 l 35 25 z "},";":{"ha":403,"x_min":68,"x_max":369,"o":"m 68 28 l 68 329 l 369 329 l 369 92 q 310 -101 369 -24 q 103 -181 250 -181 l 103 -62 l 113 -62 q 194 -37 163 -62 q 226 28 226 -12 l 68 28 m 68 446 l 68 750 l 369 750 l 369 446 l 68 446 z "},"<":{"ha":917,"x_min":111,"x_max":806,"o":"m 111 375 l 111 564 l 806 836 l 806 629 l 350 469 l 806 310 l 806 103 l 111 375 z "},"=":{"ha":917,"x_min":111,"x_max":806,"o":"m 806 754 l 806 546 l 111 546 l 111 754 l 806 754 m 806 410 l 806 201 l 111 201 l 111 410 l 806 410 z "},">":{"ha":917,"x_min":111,"x_max":806,"o":"m 806 564 l 806 375 l 111 103 l 111 310 l 567 469 l 111 629 l 111 836 l 806 564 z "},"?":{"ha":771,"x_min":25,"x_max":746,"o":"m 208 -7 l 208 253 l 510 253 l 510 -7 l 208 -7 m 247 699 l 25 699 q 135 924 31 836 q 396 1011 240 1011 q 648 935 550 1011 q 746 736 746 858 q 621 532 746 608 l 525 474 q 478 432 488 449 q 465 325 465 411 l 258 325 l 258 443 q 367 597 258 540 l 426 629 q 481 718 481 657 q 451 778 481 757 q 369 800 422 800 q 287 773 319 800 q 247 699 254 746 z "},"@":{"ha":1369,"x_min":54,"x_max":1299,"o":"m 1064 7 l 1164 -133 q 914 -256 1025 -229 q 694 -282 803 -282 q 437 -233 557 -282 q 233 -101 317 -185 q 102 95 150 -18 q 54 335 54 208 q 239 774 54 596 q 708 953 424 953 q 1133 801 967 953 q 1299 446 1299 650 q 1167 106 1299 193 q 983 57 1093 57 q 757 175 803 57 q 619 57 710 57 q 456 141 519 57 q 392 368 392 225 q 461 576 392 483 q 629 667 531 667 q 754 576 729 667 l 754 661 l 936 661 l 936 329 q 1006 267 936 267 q 1086 424 1086 267 q 1047 587 1086 510 q 920 718 1008 664 q 708 772 832 772 q 387 647 508 772 q 265 335 265 522 q 383 24 265 149 q 694 -101 500 -101 q 1064 7 915 -101 m 590 375 q 612 303 590 329 q 672 276 633 276 q 756 375 756 276 q 674 479 756 479 q 590 375 590 479 z "},"A":{"ha":1036,"x_min":7,"x_max":1029,"o":"m 297 0 l 7 0 l 376 997 l 664 997 l 1029 0 l 721 0 l 675 140 l 344 140 l 297 0 m 513 633 l 425 378 l 597 378 l 513 633 z "},"B":{"ha":867,"x_min":42,"x_max":825,"o":"m 825 300 q 726 80 825 160 q 454 0 628 0 l 42 0 l 42 997 l 442 997 q 701 927 607 997 q 796 728 796 857 q 667 522 796 600 q 825 300 825 456 m 421 768 l 299 768 l 299 624 l 421 624 q 533 692 533 624 q 421 768 533 768 m 433 403 l 299 403 l 299 238 l 433 238 q 526 260 490 238 q 563 318 563 283 q 528 381 563 358 q 433 403 493 403 z "},"C":{"ha":1107,"x_min":42,"x_max":1065,"o":"m 549 -21 q 190 131 338 -21 q 42 500 42 282 q 189 867 42 717 q 549 1018 336 1018 q 899 894 754 1018 q 1065 572 1043 769 l 779 572 q 658 736 763 679 q 551 761 611 761 q 383 690 447 761 q 319 500 319 619 q 382 308 319 379 q 551 236 444 236 q 701 288 639 236 q 779 426 764 339 l 1065 426 q 897 103 1040 226 q 549 -21 754 -21 z "},"D":{"ha":986,"x_min":42,"x_max":944,"o":"m 431 0 l 42 0 l 42 997 l 431 997 q 805 861 665 997 q 944 504 944 725 q 802 142 944 285 q 431 0 660 0 m 415 740 l 306 740 l 306 257 l 415 257 q 610 322 544 257 q 675 504 675 386 q 609 680 675 619 q 415 740 543 740 z "},"E":{"ha":874,"x_min":42,"x_max":832,"o":"m 306 250 l 832 250 l 832 0 l 42 0 l 42 997 l 832 997 l 832 747 l 306 747 l 304 624 l 832 624 l 832 374 l 304 374 l 306 250 z "},"F":{"ha":871,"x_min":42,"x_max":829,"o":"m 304 374 l 304 0 l 42 0 l 42 997 l 829 997 l 829 747 l 304 747 l 304 624 l 829 624 l 829 374 l 304 374 z "},"G":{"ha":1063,"x_min":35,"x_max":1035,"o":"m 553 -21 q 183 126 332 -21 q 35 504 35 274 q 180 872 35 725 q 544 1018 325 1018 q 767 974 668 1018 q 932 850 867 929 q 1019 650 994 771 l 746 650 q 642 753 717 724 q 538 765 606 765 q 367 699 435 765 q 299 497 299 633 q 332 356 299 417 q 422 263 365 294 q 567 231 478 231 q 722 274 672 231 q 772 382 772 318 l 556 382 l 556 589 l 1035 589 q 1008 293 1032 382 q 928 133 981 201 q 772 22 871 64 q 553 -21 674 -21 z "},"H":{"ha":963,"x_min":35,"x_max":928,"o":"m 301 376 l 301 0 l 35 0 l 35 997 l 301 997 l 301 626 l 661 626 l 661 997 l 928 997 l 928 0 l 661 0 l 661 376 l 301 376 z "},"I":{"ha":350,"x_min":42,"x_max":308,"o":"m 308 997 l 308 0 l 42 0 l 42 997 l 308 997 z "},"J":{"ha":578,"x_min":42,"x_max":536,"o":"m 319 0 l 42 0 l 42 250 l 194 250 q 274 328 274 250 l 274 997 l 536 997 l 536 243 q 479 60 536 121 q 319 0 422 0 z "},"K":{"ha":928,"x_min":35,"x_max":921,"o":"m 301 396 l 301 0 l 35 0 l 35 997 l 301 997 l 301 601 l 572 997 l 911 997 l 560 503 l 921 0 l 572 0 l 301 396 z "},"L":{"ha":751,"x_min":35,"x_max":717,"o":"m 717 250 l 717 0 l 35 0 l 35 997 l 301 997 l 301 250 l 717 250 z "},"M":{"ha":1190,"x_min":35,"x_max":1156,"o":"m 703 0 l 486 0 l 299 539 l 299 0 l 35 0 l 35 997 l 385 997 l 596 428 l 806 997 l 1156 997 l 1156 0 l 892 0 l 892 546 l 703 0 z "},"N":{"ha":960,"x_min":35,"x_max":925,"o":"m 925 0 l 611 0 l 299 606 l 299 0 l 35 0 l 35 997 l 378 997 l 661 438 l 661 997 l 925 997 l 925 0 z "},"O":{"ha":1099,"x_min":35,"x_max":1064,"o":"m 915 127 q 841 53 915 127 q 549 -21 767 -21 q 183 127 331 -21 q 35 500 35 275 q 183 871 35 724 q 549 1018 331 1018 q 915 871 767 1018 q 1064 500 1064 724 q 915 127 1064 275 m 369 308 q 402 269 369 308 q 549 231 435 231 q 728 308 663 231 q 793 500 793 385 q 728 690 793 614 q 549 767 663 767 q 369 690 435 767 q 304 500 304 614 q 369 308 304 385 z "},"P":{"ha":876,"x_min":35,"x_max":842,"o":"m 424 304 l 301 304 l 301 0 l 35 0 l 35 1006 l 424 1006 q 731 913 619 1006 q 842 657 842 821 q 731 397 842 490 q 424 304 621 304 m 444 769 l 301 769 l 301 551 l 444 551 q 535 583 497 551 q 574 669 574 614 q 538 742 574 715 q 444 769 503 769 z "},"Q":{"ha":1099,"x_min":35,"x_max":1064,"o":"m 428 -79 l 428 -8 q 347 18 383 3 q 120 204 206 75 q 35 500 35 333 q 183 871 35 724 q 549 1018 331 1018 q 915 871 767 1018 q 1064 500 1064 724 q 978 205 1064 333 q 757 18 893 76 q 678 -8 725 3 l 678 -39 q 697 -79 678 -62 q 750 -96 715 -96 l 849 -96 l 849 -318 l 678 -319 q 491 -258 554 -319 q 428 -79 428 -196 m 369 308 q 402 269 369 308 q 549 231 435 231 q 728 308 663 231 q 793 500 793 385 q 728 690 793 614 q 549 767 663 767 q 369 690 435 767 q 304 500 304 614 q 369 308 304 385 z "},"R":{"ha":935,"x_min":35,"x_max":900,"o":"m 900 0 l 593 0 l 403 304 l 301 304 l 301 0 l 35 0 l 35 1006 l 424 1006 q 731 913 619 1006 q 842 657 842 821 q 792 467 842 544 q 667 354 747 396 l 900 0 m 444 769 l 301 769 l 301 551 l 444 551 q 535 583 497 551 q 574 669 574 614 q 538 742 574 715 q 444 769 503 769 z "},"S":{"ha":931,"x_min":28,"x_max":896,"o":"m 896 326 q 781 79 896 172 q 472 -14 667 -14 q 240 29 342 -14 q 85 153 138 72 q 28 322 32 235 l 296 322 q 342 245 299 268 q 467 222 385 222 q 589 240 550 222 q 628 300 628 258 q 526 374 628 354 l 336 408 q 124 506 197 432 q 50 696 50 579 q 100 860 50 789 q 242 971 150 932 q 442 1010 332 1010 l 449 1010 q 692 968 604 1008 q 828 846 779 928 q 879 676 874 764 l 608 676 q 569 757 604 733 q 450 781 533 781 q 325 751 358 781 q 306 707 306 735 q 331 656 306 672 q 415 631 357 640 l 618 593 q 896 326 896 540 z "},"T":{"ha":915,"x_min":21,"x_max":894,"o":"m 589 747 l 589 0 l 322 0 l 322 747 l 21 747 l 21 997 l 894 997 l 894 747 l 589 747 z "},"U":{"ha":935,"x_min":35,"x_max":900,"o":"m 633 997 l 900 997 l 900 397 q 787 95 900 211 q 468 -21 674 -21 q 148 94 261 -21 q 35 397 35 210 l 35 997 l 301 997 l 301 386 q 468 231 301 231 q 597 272 560 231 q 633 386 633 313 l 633 997 z "},"V":{"ha":1008,"x_min":7,"x_max":1001,"o":"m 729 997 l 1001 997 l 646 0 l 360 0 l 7 997 l 300 997 l 511 333 l 729 997 z "},"W":{"ha":1375,"x_min":7,"x_max":1368,"o":"m 1114 0 l 835 0 l 688 567 l 540 0 l 260 0 l 7 997 l 278 997 l 400 457 l 543 997 l 836 997 l 974 457 l 1097 997 l 1368 997 l 1114 0 z "},"X":{"ha":1044,"x_min":22,"x_max":1022,"o":"m 522 321 l 344 0 l 22 0 l 328 508 l 58 997 l 376 997 l 529 693 l 697 997 l 1003 997 l 722 499 l 1022 0 l 699 0 l 522 321 z "},"Y":{"ha":974,"x_min":6,"x_max":968,"o":"m 968 997 l 617 375 l 617 0 l 354 0 l 354 375 l 6 997 l 301 997 l 486 656 l 675 997 l 968 997 z "},"Z":{"ha":924,"x_min":53,"x_max":871,"o":"m 871 250 l 871 0 l 58 0 l 58 210 l 500 747 l 53 747 l 53 997 l 857 997 l 857 783 l 413 250 l 871 250 z "},"[":{"ha":463,"x_min":72,"x_max":454,"o":"m 454 -61 l 454 -268 l 72 -268 l 72 997 l 454 997 l 454 790 l 321 790 l 321 -61 l 454 -61 z "},"\\":{"ha":717,"x_min":-65,"x_max":782,"o":"m 171 997 l 782 -268 l 546 -268 l -65 997 l 171 997 z "},"]":{"ha":463,"x_min":8,"x_max":390,"o":"m 390 997 l 390 -268 l 8 -268 l 8 -61 l 142 -61 l 142 790 l 8 790 l 8 997 l 390 997 z "},"^":{"ha":918,"x_min":51,"x_max":867,"o":"m 867 381 l 624 381 l 460 706 l 294 381 l 51 381 l 343 939 l 576 939 l 867 381 z "},"_":{"ha":694,"x_min":0,"x_max":694,"o":"m 694 -61 l 694 -268 l 0 -268 l 0 -61 l 694 -61 z "},"`":{"ha":694,"x_min":140,"x_max":553,"o":"m 415 1018 l 553 793 l 308 793 l 140 1018 l 415 1018 z "},"a":{"ha":774,"x_min":35,"x_max":758,"o":"m 357 282 q 285 233 285 282 q 363 185 285 185 q 422 212 394 185 q 449 285 449 239 l 449 301 q 357 282 449 282 m 281 474 l 46 474 q 145 681 56 606 q 374 756 235 756 q 615 665 531 756 q 700 390 700 574 l 700 260 q 708 238 700 246 q 728 229 717 229 l 758 229 l 758 0 l 576 0 q 513 28 535 0 q 490 97 490 57 l 490 124 q 442 51 471 75 q 281 -14 360 -14 q 101 47 168 -14 q 35 221 35 108 q 367 446 35 446 q 449 492 449 446 l 449 499 q 372 550 449 550 q 281 474 292 550 z "},"b":{"ha":843,"x_min":35,"x_max":808,"o":"m 808 374 q 765 178 808 268 q 650 38 722 88 q 478 -14 578 -14 q 303 64 356 -14 q 293 78 301 65 l 293 0 l 35 0 l 35 997 l 293 997 l 293 664 q 374 738 325 714 q 475 761 424 761 q 716 650 624 761 q 808 374 808 539 m 547 382 q 512 499 547 461 q 418 536 476 536 q 327 496 361 536 q 293 375 293 456 q 358 246 293 278 q 418 233 382 233 q 510 273 474 233 q 547 382 547 313 z "},"c":{"ha":817,"x_min":31,"x_max":786,"o":"m 407 -14 q 135 94 240 -14 q 31 374 31 203 q 138 650 31 539 q 407 761 246 761 q 667 665 561 761 q 786 414 772 568 l 531 414 q 408 518 525 518 q 303 458 336 518 q 288 374 288 428 q 342 246 288 278 q 408 229 367 229 q 531 333 522 229 l 786 333 q 669 80 772 174 q 407 -14 567 -14 z "},"d":{"ha":843,"x_min":35,"x_max":808,"o":"m 296 382 q 333 273 296 313 q 425 233 369 233 q 531 288 492 233 q 550 375 550 318 q 516 496 550 456 q 425 536 482 536 q 331 499 367 536 q 296 382 296 461 m 35 374 q 127 650 35 539 q 368 761 219 761 q 471 738 419 761 q 550 664 518 715 l 550 997 l 808 997 l 808 0 l 550 0 l 550 78 l 542 64 q 365 -14 489 -14 q 78 178 169 -14 q 35 374 35 265 z "},"e":{"ha":826,"x_min":31,"x_max":790,"o":"m 415 -12 q 137 94 243 -12 q 31 375 31 201 q 139 652 31 543 q 414 761 247 761 q 708 631 600 761 q 790 392 790 528 q 783 308 790 357 l 296 308 q 306 281 301 289 q 424 222 340 222 q 501 234 475 222 q 542 278 526 246 l 779 278 q 415 -12 713 -12 m 304 478 l 529 478 q 497 524 526 496 q 414 553 467 553 q 306 481 339 553 q 304 478 306 479 z "},"f":{"ha":626,"x_min":18,"x_max":592,"o":"m 408 518 l 408 0 l 151 0 l 151 518 l 18 518 l 18 747 l 151 747 l 151 853 q 319 1014 151 1014 l 592 1013 l 592 815 l 440 815 q 408 790 408 815 l 408 747 l 592 747 l 592 518 l 408 518 z "},"g":{"ha":731,"x_min":7,"x_max":724,"o":"m 365 240 l 314 240 q 257 210 257 240 q 314 182 257 182 l 365 182 q 724 -96 724 182 q 633 -282 724 -204 q 365 -358 543 -358 q 7 -149 7 -358 q 151 25 7 6 q 222 43 192 29 l 215 43 l 208 43 q 71 78 122 43 q 19 172 19 114 q 51 268 19 228 q 139 325 83 308 q 76 488 76 389 q 160 697 76 633 q 365 761 242 761 q 419 840 365 825 q 715 857 474 854 l 715 671 l 599 671 q 654 488 654 607 q 572 308 654 375 q 365 240 490 240 m 303 493 q 365 425 303 425 q 428 493 428 425 q 365 564 428 564 q 303 493 303 564 m 365 -135 q 456 -124 431 -135 q 481 -82 481 -112 q 456 -42 481 -53 q 365 -31 431 -31 q 276 -42 303 -31 q 250 -82 250 -53 q 276 -123 250 -111 q 365 -135 303 -135 z "},"h":{"ha":761,"x_min":35,"x_max":726,"o":"m 292 388 l 292 0 l 35 0 l 35 997 l 292 997 l 292 667 q 475 761 378 761 q 658 688 589 761 q 726 481 726 614 l 726 0 l 469 0 l 469 396 q 447 504 469 467 q 383 542 424 542 q 292 388 292 542 z "},"i":{"ha":340,"x_min":42,"x_max":299,"o":"m 42 822 l 42 1015 l 299 1015 l 299 822 l 42 822 m 299 747 l 299 0 l 42 0 l 42 747 l 299 747 z "},"j":{"ha":338,"x_min":-139,"x_max":303,"o":"m 46 822 l 46 1015 l 303 1015 l 303 822 l 46 822 m 44 -37 l 44 749 l 301 749 l 301 -36 q 240 -238 301 -175 q 51 -301 178 -301 l -139 -300 l -139 -78 l 4 -78 q 44 -37 44 -78 z "},"k":{"ha":799,"x_min":35,"x_max":788,"o":"m 292 142 l 292 0 l 35 0 l 35 997 l 292 997 l 292 513 l 472 747 l 749 747 l 472 393 l 788 0 l 493 0 l 343 211 l 292 142 z "},"l":{"ha":326,"x_min":35,"x_max":292,"o":"m 292 1057 l 292 0 l 35 0 l 35 1057 l 292 1057 z "},"m":{"ha":1207,"x_min":35,"x_max":1172,"o":"m 35 0 l 35 747 l 292 747 l 292 610 q 326 671 306 644 q 493 761 397 761 q 628 731 583 761 q 703 632 672 700 q 910 761 765 761 q 1110 656 1046 761 q 1172 389 1172 550 l 1172 0 l 915 0 l 915 390 q 892 494 915 457 q 822 531 868 531 q 732 389 732 531 l 732 0 l 475 0 l 475 390 q 449 493 475 456 q 382 531 424 531 q 317 492 343 531 q 292 389 292 454 l 292 0 l 35 0 z "},"n":{"ha":761,"x_min":35,"x_max":726,"o":"m 292 396 l 292 0 l 35 0 l 35 747 l 292 747 l 292 661 q 301 675 300 674 q 489 761 363 761 q 679 672 632 761 q 726 396 726 583 l 726 0 l 469 0 l 469 396 q 381 538 469 538 q 292 396 292 538 z "},"o":{"ha":836,"x_min":28,"x_max":808,"o":"m 696 99 q 640 43 696 99 q 418 -14 583 -14 q 140 99 253 -14 q 28 374 28 213 q 140 648 28 535 q 418 761 253 761 q 696 648 583 761 q 808 374 808 535 q 696 99 808 213 m 324 254 q 343 233 324 254 q 418 211 363 211 q 513 253 474 211 q 551 374 551 296 q 513 493 551 451 q 418 535 474 535 q 324 493 363 535 q 285 374 285 451 q 324 254 285 297 z "},"p":{"ha":843,"x_min":35,"x_max":808,"o":"m 547 365 q 510 474 547 435 q 418 514 474 514 q 314 460 350 514 q 293 372 293 431 q 327 251 293 292 q 418 211 361 211 q 512 249 476 211 q 547 365 547 286 m 808 374 q 716 97 808 208 q 475 -14 624 -14 q 376 7 417 -14 q 292 68 338 26 l 292 -250 l 35 -250 l 35 747 l 292 747 l 292 654 l 303 671 q 474 761 368 761 q 765 571 675 761 q 808 374 808 483 z "},"q":{"ha":843,"x_min":35,"x_max":808,"o":"m 296 365 q 331 249 296 286 q 425 211 367 211 q 516 251 482 211 q 550 372 550 292 q 486 501 550 468 q 425 514 461 514 q 333 474 369 514 q 296 365 296 435 m 35 374 q 77 569 35 479 q 190 711 119 658 q 369 761 258 761 q 540 671 475 761 l 551 654 l 551 747 l 808 747 l 808 -250 l 551 -250 l 551 68 q 468 7 506 26 q 368 -14 426 -14 q 127 97 219 -14 q 35 374 35 208 z "},"r":{"ha":561,"x_min":35,"x_max":547,"o":"m 292 0 l 35 0 l 35 747 l 292 747 l 292 596 q 457 747 344 747 l 547 747 l 547 475 l 383 475 q 319 448 346 475 q 292 389 292 421 l 292 0 z "},"s":{"ha":772,"x_min":35,"x_max":738,"o":"m 738 254 q 648 57 738 128 q 390 -14 558 -14 q 130 57 225 -14 q 35 261 35 128 l 288 261 q 318 191 294 207 q 388 175 342 175 q 458 189 429 175 q 486 226 486 203 q 417 288 486 275 l 275 313 q 111 383 169 331 q 53 515 53 435 q 140 693 53 625 q 378 761 226 761 q 683 639 579 761 q 732 499 732 579 l 486 499 q 379 581 486 581 q 306 538 306 581 q 381 472 306 483 l 517 449 q 683 377 628 429 q 738 254 738 325 z "},"t":{"ha":619,"x_min":18,"x_max":592,"o":"m 151 997 l 408 997 l 408 747 l 592 747 l 592 518 l 408 518 l 408 274 q 418 239 408 247 q 450 231 428 231 l 592 231 l 592 1 l 301 0 q 151 144 151 0 l 151 518 l 18 518 l 18 747 l 151 747 l 151 997 z "},"u":{"ha":761,"x_min":35,"x_max":726,"o":"m 469 351 l 469 747 l 726 747 l 726 0 l 469 0 l 469 86 l 461 72 q 272 -14 400 -14 q 83 75 131 -14 q 35 351 35 165 l 35 747 l 292 747 l 292 351 q 381 210 292 210 q 469 351 469 210 z "},"v":{"ha":817,"x_min":7,"x_max":810,"o":"m 550 747 l 810 747 l 542 0 l 278 0 l 7 747 l 283 747 l 415 325 l 550 747 z "},"w":{"ha":1139,"x_min":7,"x_max":1132,"o":"m 921 0 l 664 0 l 569 407 l 475 0 l 217 0 l 7 747 l 258 747 l 343 349 l 433 747 l 708 747 l 794 349 l 881 747 l 1132 747 l 921 0 z "},"x":{"ha":846,"x_min":17,"x_max":829,"o":"m 418 203 l 306 0 l 17 0 l 258 379 l 33 747 l 319 747 l 435 529 l 550 747 l 811 747 l 590 369 l 829 0 l 536 0 l 418 203 z "},"y":{"ha":817,"x_min":7,"x_max":810,"o":"m 558 747 l 810 747 l 542 0 l 542 -142 q 505 -263 542 -225 q 392 -301 468 -301 l 121 -300 l 121 -78 l 269 -78 q 295 -69 286 -78 q 304 -50 304 -61 l 304 0 l 7 747 l 278 747 l 426 322 l 558 747 z "},"z":{"ha":732,"x_min":35,"x_max":697,"o":"m 697 229 l 697 0 l 43 0 l 43 224 l 376 518 l 35 518 l 35 747 l 689 747 l 689 519 l 351 229 l 697 229 z "},"{":{"ha":490,"x_min":8,"x_max":482,"o":"m 63 254 q 8 317 8 272 l 8 415 q 63 476 8 458 q 93 494 78 482 q 119 567 119 517 l 119 749 q 195 936 119 871 q 413 1001 271 1001 l 482 1001 l 482 794 l 442 794 q 368 726 368 794 l 368 539 q 231 368 368 393 q 368 193 368 338 l 368 4 q 443 -65 368 -65 l 482 -65 l 482 -272 l 411 -272 q 194 -207 269 -272 q 119 -19 119 -142 l 119 165 q 93 238 119 215 q 63 254 81 249 z "},"|":{"ha":499,"x_min":129,"x_max":369,"o":"m 369 997 l 369 -268 l 129 -268 l 129 997 l 369 997 z "},"}":{"ha":490,"x_min":8,"x_max":482,"o":"m 426 475 q 482 410 482 454 l 482 317 q 426 251 482 269 q 399 236 407 244 q 371 158 374 214 l 371 -19 q 295 -207 371 -142 q 78 -272 219 -272 l 8 -272 l 8 -65 l 49 -65 q 122 3 122 -65 l 122 190 q 260 361 122 336 q 122 536 122 392 l 122 725 q 47 794 122 794 l 8 794 l 8 1001 l 79 1001 q 296 937 221 1001 q 371 749 371 872 l 371 569 q 399 492 374 515 q 426 475 408 482 z "},"~":{"ha":917,"x_min":64,"x_max":854,"o":"m 626 318 q 502 343 567 318 q 388 393 438 368 q 314 418 338 418 q 275 399 286 418 q 264 333 264 379 l 264 313 l 71 313 q 64 385 64 354 q 160 592 64 521 q 292 632 217 632 q 414 607 349 632 q 530 557 479 582 q 604 532 581 532 q 643 551 632 532 q 654 615 654 571 l 654 638 l 847 638 q 854 563 854 593 q 760 360 854 429 q 626 318 703 318 z "}," ":{"ha":290,"x_min":0,"x_max":0,"o":""},"¡":{"ha":421,"x_min":64,"x_max":371,"o":"m 64 -257 l 114 415 l 321 415 l 369 -257 l 64 -257 m 371 747 l 371 488 l 69 488 l 69 747 l 371 747 z "},"¢":{"ha":844,"x_min":31,"x_max":814,"o":"m 492 -8 l 492 -104 l 339 -104 l 339 -6 q 117 125 204 19 q 31 374 31 231 q 117 623 31 518 q 339 753 203 728 l 339 872 l 492 872 l 492 756 q 713 643 625 735 q 814 414 800 551 l 561 414 q 519 508 558 469 q 422 547 481 547 q 316 501 356 547 q 276 374 276 454 q 317 247 276 296 q 422 199 357 199 q 519 238 481 199 q 561 333 558 278 l 814 333 q 712 105 800 197 q 492 -8 624 13 z "},"£":{"ha":857,"x_min":47,"x_max":828,"o":"m 601 -11 l 47 0 l 47 200 l 150 200 l 150 415 l 51 415 l 51 568 l 150 568 l 150 646 q 242 869 150 786 q 483 953 333 953 q 719 876 624 953 q 822 657 814 800 l 565 657 q 476 739 556 739 q 390 651 390 739 l 390 568 l 597 568 l 597 415 l 390 415 l 390 200 l 569 200 q 629 272 629 206 q 626 308 629 281 l 819 308 q 828 233 828 269 q 733 31 828 100 q 601 -11 678 -11 z "},"¤":{"ha":917,"x_min":69,"x_max":847,"o":"m 586 203 q 458 178 528 178 q 331 203 389 178 l 213 85 l 72 224 l 179 332 q 143 469 143 393 q 179 608 143 543 l 69 718 l 213 856 l 331 738 q 458 761 390 761 q 586 738 526 761 l 704 856 l 847 718 l 738 608 q 774 469 774 543 q 738 332 774 393 l 844 224 l 704 85 l 586 203 m 371 378 q 388 362 371 378 q 458 346 406 346 q 546 378 511 346 q 581 469 581 410 q 546 561 581 529 q 458 593 511 593 q 371 561 406 593 q 336 469 336 529 q 371 378 336 410 z "},"¥":{"ha":875,"x_min":22,"x_max":853,"o":"m 825 318 l 825 165 l 557 165 l 557 0 l 317 0 l 317 165 l 50 165 l 50 318 l 317 318 l 317 353 l 299 388 l 50 388 l 50 540 l 222 540 l 22 938 l 282 938 l 446 586 l 613 938 l 853 938 l 651 540 l 825 540 l 825 388 l 575 388 l 557 353 l 557 318 l 825 318 z "},"¦":{"ha":494,"x_min":129,"x_max":365,"o":"m 129 444 l 129 997 l 365 997 l 365 444 l 129 444 m 129 -268 l 129 285 l 365 285 l 365 -268 l 129 -268 z "},"§":{"ha":819,"x_min":32,"x_max":788,"o":"m 32 315 q 192 506 32 442 q 86 694 86 572 q 174 880 86 811 q 399 949 263 949 q 638 871 546 949 q 742 667 731 793 l 507 667 q 472 743 501 715 q 399 771 442 771 q 337 751 361 771 q 313 701 313 731 q 406 621 313 646 l 549 582 q 730 494 672 549 q 788 356 788 440 q 643 139 788 214 q 750 -35 750 86 q 658 -215 750 -143 q 426 -286 565 -286 q 163 -207 264 -286 q 51 4 63 -128 l 286 4 q 323 -78 289 -47 q 411 -108 357 -108 q 488 -87 460 -108 q 517 -31 517 -67 q 411 49 517 24 l 268 85 q 32 315 32 146 m 256 343 q 305 275 256 300 q 442 250 354 250 q 564 326 564 250 q 514 394 564 369 q 378 419 464 419 q 256 343 256 419 z "},"¨":{"ha":694,"x_min":63,"x_max":631,"o":"m 63 813 l 63 1040 l 289 1040 l 289 813 l 63 813 m 404 813 l 404 1040 l 631 1040 l 631 813 l 404 813 z "},"©":{"ha":1093,"x_min":54,"x_max":1039,"o":"m 546 -12 q 196 128 338 -12 q 54 469 54 268 q 195 813 54 672 q 546 953 336 953 q 897 813 756 953 q 1039 469 1039 672 q 897 128 1039 268 q 546 -12 756 -12 m 546 122 q 803 222 704 122 q 903 469 903 321 q 803 718 903 619 q 546 817 704 817 q 290 718 389 817 q 190 469 190 619 q 290 222 190 321 q 546 122 389 122 m 656 438 l 803 438 q 721 276 792 338 q 547 215 650 215 q 370 290 443 215 q 297 469 297 364 q 370 650 297 576 q 547 724 443 724 q 721 662 650 724 q 803 501 792 600 l 656 501 q 619 570 649 546 q 549 594 590 594 q 469 562 499 594 q 440 469 440 529 q 469 376 440 410 q 549 343 499 343 q 619 369 589 343 q 656 438 649 394 z "},"ª":{"ha":594,"x_min":21,"x_max":594,"o":"m 219 540 q 281 501 219 501 q 328 523 307 501 q 349 582 349 544 l 349 594 q 326 583 349 588 q 276 579 303 579 q 233 572 247 579 q 219 540 219 564 m 215 731 l 29 731 q 108 895 38 836 q 289 954 178 954 q 481 883 414 954 q 549 665 549 811 l 549 561 q 569 538 549 538 l 594 538 l 594 356 l 450 356 q 400 378 418 356 q 382 432 382 400 l 382 454 q 343 396 368 417 q 215 344 279 344 q 74 393 126 344 q 21 531 21 442 q 283 708 21 708 q 349 746 349 708 l 349 751 q 288 792 349 792 q 215 731 224 792 z "},"«":{"ha":872,"x_min":14,"x_max":858,"o":"m 292 371 l 483 86 l 219 86 l 14 371 l 219 656 l 483 656 l 292 371 m 667 371 l 858 86 l 594 86 l 389 371 l 594 656 l 858 656 l 667 371 z "},"¬":{"ha":917,"x_min":111,"x_max":792,"o":"m 792 739 l 792 217 l 568 217 l 568 532 l 111 532 l 111 739 l 792 739 z "},"­":{"ha":500,"x_min":42,"x_max":458,"o":"m 458 488 l 458 274 l 42 274 l 42 488 l 458 488 z "},"®":{"ha":574,"x_min":54,"x_max":519,"o":"m 452 608 q 418 575 452 608 q 286 542 385 542 q 121 608 188 542 q 54 769 54 675 q 121 931 54 864 q 286 997 188 997 q 452 931 385 997 q 519 769 519 864 q 452 608 519 675 m 286 621 q 392 663 351 621 q 432 769 432 706 q 392 876 432 833 q 286 918 351 918 q 181 876 222 918 q 140 769 140 833 q 181 663 140 706 q 286 621 222 621 m 268 740 l 268 672 l 208 672 l 208 878 l 292 878 q 378 807 378 878 q 335 749 378 765 l 385 672 l 317 672 l 275 740 l 268 740 m 292 828 l 268 828 l 268 789 l 286 789 q 318 810 318 789 q 292 828 318 828 z "},"¯":{"ha":694,"x_min":106,"x_max":590,"o":"m 590 963 l 590 810 l 106 810 l 106 963 l 590 963 z "},"°":{"ha":664,"x_min":22,"x_max":642,"o":"m 553 506 q 508 464 553 506 q 332 421 464 421 q 111 506 200 421 q 22 713 22 592 q 111 919 22 833 q 332 1004 200 1004 q 553 919 464 1004 q 642 713 642 833 q 553 506 642 592 m 332 589 q 415 622 382 589 q 449 713 449 656 q 415 803 449 769 q 332 836 382 836 q 249 803 283 836 q 214 713 214 769 q 249 623 214 657 q 332 589 283 589 z "},"±":{"ha":917,"x_min":111,"x_max":806,"o":"m 571 508 l 571 274 l 346 274 l 346 508 l 111 508 l 111 717 l 346 717 l 346 951 l 571 951 l 571 717 l 806 717 l 806 508 l 571 508 m 806 208 l 806 0 l 111 0 l 111 208 l 806 208 z "},"²":{"ha":535,"x_min":31,"x_max":442,"o":"m 268 846 l 442 846 l 442 721 l 49 721 l 49 797 l 206 967 q 278 1056 258 1022 q 292 1103 292 1079 q 232 1169 292 1169 q 161 1100 161 1169 l 31 1100 q 90 1237 31 1183 q 239 1290 149 1290 q 407 1206 357 1290 q 432 1114 432 1161 q 414 1021 432 1051 q 313 896 396 990 l 268 846 z "},"³":{"ha":565,"x_min":58,"x_max":482,"o":"m 265 697 q 116 747 174 697 q 58 876 58 797 l 192 876 q 213 828 193 846 q 267 810 233 810 q 342 874 342 810 q 250 936 342 936 l 190 936 l 190 1050 l 310 1144 l 310 1146 l 64 1146 l 64 1274 l 460 1278 l 458 1131 l 340 1035 q 482 878 482 1022 q 422 747 482 796 q 265 697 363 697 z "},"´":{"ha":694,"x_min":140,"x_max":553,"o":"m 553 1018 l 385 793 l 140 793 l 279 1018 l 553 1018 z "},"µ":{"ha":860,"x_min":78,"x_max":782,"o":"m 304 25 l 304 -268 l 78 -268 l 78 747 l 304 747 l 304 339 q 339 235 304 271 q 436 199 374 199 q 517 236 489 199 q 544 329 544 274 l 544 747 l 782 747 l 782 0 l 549 0 l 549 60 q 492 6 528 25 q 418 -14 457 -14 q 304 25 332 -14 z "},"¶":{"ha":1082,"x_min":36,"x_max":1054,"o":"m 611 726 l 611 -268 l 372 -268 l 372 254 q 124 358 211 271 q 36 594 36 446 q 146 850 36 760 q 449 940 256 940 l 1054 940 l 1054 726 l 963 726 l 963 -268 l 722 -268 l 722 726 l 611 726 z "},"·":{"ha":368,"x_min":33,"x_max":335,"o":"m 335 367 q 293 258 335 300 q 185 215 251 215 q 76 258 118 215 q 33 367 33 300 q 76 477 33 435 q 185 519 118 519 q 293 477 251 519 q 335 367 335 435 z "},"¸":{"ha":694,"x_min":161,"x_max":535,"o":"m 535 -136 q 486 -240 535 -206 q 351 -275 438 -275 q 219 -239 268 -275 q 161 -135 169 -203 l 304 -135 q 342 -168 310 -168 q 376 -137 376 -168 q 326 -100 376 -104 q 276 -97 285 -97 q 211 -100 258 -97 l 264 26 l 457 26 l 426 -24 q 511 -58 488 -31 q 535 -136 535 -86 z "},"¹":{"ha":349,"x_min":18,"x_max":253,"o":"m 117 718 l 117 1165 l 18 1165 l 18 1282 l 253 1282 l 253 718 l 117 718 z "},"º":{"ha":678,"x_min":25,"x_max":653,"o":"m 562 432 q 516 388 562 432 q 339 343 471 343 q 116 432 207 343 q 25 646 25 521 q 116 860 25 771 q 339 949 207 949 q 562 860 471 949 q 653 646 653 771 q 562 432 653 521 m 261 552 q 277 536 261 552 q 339 519 293 519 q 417 552 385 519 q 449 646 449 585 q 417 740 449 707 q 339 772 385 772 q 261 740 293 772 q 229 646 229 707 q 261 552 229 585 z "},"»":{"ha":872,"x_min":14,"x_max":858,"o":"m 206 371 l 14 656 l 278 656 l 483 371 l 278 86 l 14 86 l 206 371 m 581 371 l 389 656 l 653 656 l 858 371 l 653 86 l 389 86 l 581 371 z "},"¼":{"ha":1142,"x_min":18,"x_max":1104,"o":"m 860 357 l 742 231 l 860 231 l 860 357 m 290 939 l 290 375 l 135 375 l 135 804 l 18 804 l 18 939 l 290 939 m 879 939 l 343 0 l 156 0 l 692 939 l 879 939 m 1104 231 l 1104 96 l 1014 96 l 1014 0 l 860 0 l 860 96 l 564 96 l 564 213 l 889 564 l 1014 564 l 1014 231 l 1104 231 z "},"½":{"ha":1207,"x_min":18,"x_max":1176,"o":"m 879 939 l 343 0 l 156 0 l 692 939 l 879 939 m 961 139 l 1176 139 l 1176 0 l 713 0 l 714 88 l 901 246 q 982 321 960 294 q 1004 376 1004 347 q 983 417 1004 401 q 925 433 963 433 q 843 364 843 433 l 693 364 q 761 514 693 456 q 936 572 829 572 q 1103 519 1042 572 q 1165 399 1165 467 q 1135 301 1165 343 q 1018 186 1104 260 l 961 139 m 290 939 l 290 375 l 135 375 l 135 804 l 18 804 l 18 939 l 290 939 z "},"¾":{"ha":1358,"x_min":36,"x_max":1321,"o":"m 1076 357 l 958 231 l 1076 231 l 1076 357 m 529 551 q 460 419 529 469 q 278 369 390 369 q 104 420 172 369 q 36 550 36 471 l 188 550 q 279 490 194 490 q 346 506 322 490 q 369 547 369 521 q 261 603 369 603 l 190 603 l 190 725 l 251 725 q 342 775 342 725 q 269 826 342 826 q 197 767 197 826 l 47 767 q 114 896 47 843 q 276 949 181 949 q 441 904 381 949 q 501 789 501 860 q 419 674 501 722 q 529 551 529 638 m 1096 939 l 560 0 l 372 0 l 908 939 l 1096 939 m 1321 231 l 1321 96 l 1231 96 l 1231 0 l 1076 0 l 1076 96 l 781 96 l 781 213 l 1106 564 l 1231 564 l 1231 231 l 1321 231 z "},"¿":{"ha":771,"x_min":19,"x_max":740,"o":"m 518 43 l 740 43 q 630 -182 735 -94 q 369 -269 525 -269 q 117 -193 215 -269 q 19 6 19 -117 q 144 210 19 133 l 240 268 q 289 311 278 292 q 300 417 300 331 l 507 417 l 507 300 q 399 144 507 201 l 339 113 q 285 24 285 85 q 314 -37 285 -15 q 396 -58 343 -58 q 478 -31 446 -58 q 518 43 511 -4 m 557 749 l 557 489 l 256 489 l 256 749 l 557 749 z "},"À":{"ha":1039,"x_min":8,"x_max":1031,"o":"m 299 0 l 8 0 l 378 997 l 665 997 l 1031 0 l 722 0 l 676 140 l 346 140 l 299 0 m 514 633 l 426 378 l 599 378 l 514 633 m 501 1268 l 639 1043 l 394 1043 l 226 1268 l 501 1268 z "},"Á":{"ha":1036,"x_min":7,"x_max":1029,"o":"m 297 0 l 7 0 l 376 997 l 664 997 l 1029 0 l 721 0 l 675 140 l 344 140 l 297 0 m 513 633 l 425 378 l 597 378 l 513 633 m 814 1268 l 646 1043 l 401 1043 l 540 1268 l 814 1268 z "},"Â":{"ha":1036,"x_min":7,"x_max":1029,"o":"m 297 0 l 7 0 l 376 997 l 664 997 l 1029 0 l 721 0 l 675 140 l 344 140 l 297 0 m 513 633 l 425 378 l 597 378 l 513 633 m 518 1146 l 433 1043 l 172 1043 l 368 1268 l 669 1268 l 864 1043 l 604 1043 l 518 1146 z "},"Ã":{"ha":1036,"x_min":7,"x_max":1029,"o":"m 513 633 l 425 378 l 597 378 l 513 633 m 297 0 l 7 0 l 376 997 l 664 997 l 1029 0 l 721 0 l 675 140 l 344 140 l 297 0 m 392 1046 l 392 1036 l 249 1036 q 243 1093 243 1063 q 308 1240 243 1189 q 403 1269 347 1269 q 528 1243 456 1269 q 611 1217 600 1217 q 647 1267 647 1217 l 647 1281 l 790 1281 q 796 1228 796 1257 q 729 1078 796 1129 q 633 1047 690 1047 q 510 1074 581 1047 q 426 1100 440 1100 q 392 1046 392 1100 z "},"Ä":{"ha":1036,"x_min":7,"x_max":1029,"o":"m 513 633 l 425 378 l 597 378 l 513 633 m 297 0 l 7 0 l 376 997 l 664 997 l 1029 0 l 721 0 l 675 140 l 344 140 l 297 0 m 233 1063 l 233 1290 l 460 1290 l 460 1063 l 233 1063 m 575 1063 l 575 1290 l 801 1290 l 801 1063 l 575 1063 z "},"Å":{"ha":1036,"x_min":7,"x_max":1029,"o":"m 297 0 l 7 0 l 376 997 l 664 997 l 1029 0 l 721 0 l 675 140 l 344 140 l 297 0 m 513 633 l 425 378 l 597 378 l 513 633 m 518 1036 q 373 1090 429 1036 q 317 1218 317 1143 q 373 1349 317 1296 q 518 1403 429 1403 q 663 1349 606 1403 q 721 1218 721 1296 q 663 1090 721 1143 q 518 1036 606 1036 m 518 1153 q 585 1218 585 1153 q 518 1288 585 1288 q 470 1270 490 1288 q 450 1218 450 1253 q 470 1169 450 1186 q 518 1153 490 1153 z "},"Æ":{"ha":1400,"x_min":-19,"x_max":1353,"o":"m 613 0 l 613 178 l 357 178 l 276 0 l -19 0 l 447 997 l 1353 997 l 1353 771 l 874 771 l 874 626 l 1353 626 l 1353 399 l 874 399 l 874 226 l 1353 226 l 1353 0 l 613 0 m 613 747 l 444 375 l 613 375 l 613 747 z "},"Ç":{"ha":1101,"x_min":39,"x_max":1063,"o":"m 718 -153 q 667 -241 718 -207 q 535 -275 617 -275 q 402 -239 451 -275 q 344 -135 353 -203 l 488 -135 q 525 -168 493 -168 q 560 -137 560 -168 q 499 -97 560 -97 q 461 -100 489 -97 l 481 -17 q 349 19 413 -8 q 124 208 208 78 q 39 500 39 338 q 186 867 39 717 q 546 1018 333 1018 q 896 894 751 1018 q 1063 572 1040 769 l 785 572 q 705 725 771 667 q 549 783 639 783 q 373 706 438 783 q 308 500 308 629 q 373 292 308 371 q 549 214 438 214 q 703 273 639 214 q 785 426 768 332 l 1063 426 q 976 193 1046 294 q 794 36 906 92 q 592 -19 704 -11 l 586 -42 q 683 -80 647 -50 q 718 -153 718 -110 z "},"È":{"ha":874,"x_min":42,"x_max":832,"o":"m 306 250 l 832 250 l 832 0 l 42 0 l 42 997 l 832 997 l 832 747 l 306 747 l 304 624 l 832 624 l 832 374 l 304 374 l 306 250 m 374 1268 l 511 1043 l 267 1043 l 99 1268 l 374 1268 z "},"É":{"ha":874,"x_min":42,"x_max":832,"o":"m 306 250 l 832 250 l 832 0 l 42 0 l 42 997 l 832 997 l 832 747 l 306 747 l 304 624 l 832 624 l 832 374 l 304 374 l 306 250 m 688 1268 l 519 1043 l 275 1043 l 414 1268 l 688 1268 z "},"Ê":{"ha":874,"x_min":42,"x_max":832,"o":"m 306 250 l 832 250 l 832 0 l 42 0 l 42 997 l 832 997 l 832 747 l 306 747 l 304 624 l 832 624 l 832 374 l 304 374 l 306 250 m 394 1146 l 310 1043 l 49 1043 l 244 1268 l 546 1268 l 740 1043 l 481 1043 l 394 1146 z "},"Ë":{"ha":874,"x_min":42,"x_max":832,"o":"m 306 250 l 832 250 l 832 0 l 42 0 l 42 997 l 832 997 l 832 747 l 306 747 l 304 624 l 832 624 l 832 374 l 304 374 l 306 250 m 110 1063 l 110 1290 l 336 1290 l 336 1063 l 110 1063 m 451 1063 l 451 1290 l 678 1290 l 678 1063 l 451 1063 z "},"Ì":{"ha":350,"x_min":-114,"x_max":308,"o":"m 308 997 l 308 0 l 42 0 l 42 997 l 308 997 m 161 1268 l 299 1043 l 54 1043 l -114 1268 l 161 1268 z "},"Í":{"ha":350,"x_min":42,"x_max":475,"o":"m 308 997 l 308 0 l 42 0 l 42 997 l 308 997 m 475 1268 l 307 1043 l 63 1043 l 201 1268 l 475 1268 z "},"Î":{"ha":350,"x_min":-171,"x_max":521,"o":"m 308 997 l 308 0 l 42 0 l 42 997 l 308 997 m 175 1146 l 90 1043 l -171 1043 l 25 1268 l 326 1268 l 521 1043 l 261 1043 l 175 1146 z "},"Ï":{"ha":350,"x_min":-110,"x_max":458,"o":"m 308 997 l 308 0 l 42 0 l 42 997 l 308 997 m -110 1063 l -110 1290 l 117 1290 l 117 1063 l -110 1063 m 232 1063 l 232 1290 l 458 1290 l 458 1063 l 232 1063 z "},"Ð":{"ha":1072,"x_min":8,"x_max":1033,"o":"m 519 0 l 131 0 l 131 406 l 8 406 l 8 619 l 131 619 l 131 997 l 519 997 q 894 861 754 997 q 1033 504 1033 725 q 891 142 1033 285 q 519 0 749 0 m 504 771 l 393 771 l 393 619 l 583 619 l 583 406 l 393 406 l 393 226 l 504 226 q 764 504 764 226 q 504 771 764 771 z "},"Ñ":{"ha":960,"x_min":35,"x_max":925,"o":"m 925 0 l 611 0 l 299 606 l 299 0 l 35 0 l 35 997 l 378 997 l 661 438 l 661 997 l 925 997 l 925 0 m 351 1046 l 351 1036 l 208 1036 q 203 1093 203 1063 q 268 1240 203 1189 q 363 1269 308 1269 q 488 1243 417 1269 q 571 1217 558 1217 q 607 1267 607 1217 l 607 1281 l 750 1281 q 756 1228 756 1257 q 689 1078 756 1129 q 593 1047 650 1047 q 470 1074 540 1047 q 386 1100 400 1100 q 351 1046 351 1100 z "},"Ò":{"ha":1099,"x_min":35,"x_max":1064,"o":"m 915 127 q 841 53 915 127 q 549 -21 767 -21 q 183 127 331 -21 q 35 500 35 275 q 183 871 35 724 q 549 1018 331 1018 q 915 871 767 1018 q 1064 500 1064 724 q 915 127 1064 275 m 369 308 q 402 269 369 308 q 549 231 435 231 q 728 308 663 231 q 793 500 793 385 q 728 690 793 614 q 549 767 663 767 q 369 690 435 767 q 304 500 304 614 q 369 308 304 385 m 529 1268 l 667 1043 l 422 1043 l 254 1268 l 529 1268 z "},"Ó":{"ha":1099,"x_min":35,"x_max":1064,"o":"m 915 127 q 841 53 915 127 q 549 -21 767 -21 q 183 127 331 -21 q 35 500 35 275 q 183 871 35 724 q 549 1018 331 1018 q 915 871 767 1018 q 1064 500 1064 724 q 915 127 1064 275 m 369 308 q 402 269 369 308 q 549 231 435 231 q 728 308 663 231 q 793 500 793 385 q 728 690 793 614 q 549 767 663 767 q 369 690 435 767 q 304 500 304 614 q 369 308 304 385 m 843 1268 l 675 1043 l 431 1043 l 569 1268 l 843 1268 z "},"Ô":{"ha":1099,"x_min":35,"x_max":1064,"o":"m 915 127 q 841 53 915 127 q 549 -21 767 -21 q 183 127 331 -21 q 35 500 35 275 q 183 871 35 724 q 549 1018 331 1018 q 915 871 767 1018 q 1064 500 1064 724 q 915 127 1064 275 m 369 308 q 402 269 369 308 q 549 231 435 231 q 728 308 663 231 q 793 500 793 385 q 728 690 793 614 q 549 767 663 767 q 369 690 435 767 q 304 500 304 614 q 369 308 304 385 m 550 1146 l 465 1043 l 204 1043 l 400 1268 l 701 1268 l 896 1043 l 636 1043 l 550 1146 z "},"Õ":{"ha":1099,"x_min":35,"x_max":1064,"o":"m 369 308 q 402 269 369 308 q 549 231 435 231 q 728 308 663 231 q 793 500 793 385 q 728 690 793 614 q 549 767 663 767 q 369 690 435 767 q 304 500 304 614 q 369 308 304 385 m 915 127 q 841 53 915 127 q 549 -21 767 -21 q 183 127 331 -21 q 35 500 35 275 q 183 871 35 724 q 549 1018 331 1018 q 915 871 767 1018 q 1064 500 1064 724 q 915 127 1064 275 m 421 1046 l 421 1036 l 278 1036 q 272 1093 272 1063 q 338 1240 272 1189 q 432 1269 378 1269 q 557 1243 486 1269 q 640 1217 628 1217 q 676 1267 676 1217 l 676 1281 l 819 1281 q 825 1228 825 1257 q 758 1078 825 1129 q 663 1047 719 1047 q 540 1074 610 1047 q 456 1100 469 1100 q 421 1046 421 1100 z "},"Ö":{"ha":1099,"x_min":35,"x_max":1064,"o":"m 369 308 q 402 269 369 308 q 549 231 435 231 q 728 308 663 231 q 793 500 793 385 q 728 690 793 614 q 549 767 663 767 q 369 690 435 767 q 304 500 304 614 q 369 308 304 385 m 915 127 q 841 53 915 127 q 549 -21 767 -21 q 183 127 331 -21 q 35 500 35 275 q 183 871 35 724 q 549 1018 331 1018 q 915 871 767 1018 q 1064 500 1064 724 q 915 127 1064 275 m 265 1063 l 265 1290 l 492 1290 l 492 1063 l 265 1063 m 607 1063 l 607 1290 l 833 1290 l 833 1063 l 607 1063 z "},"×":{"ha":917,"x_min":113,"x_max":804,"o":"m 457 331 l 250 124 l 113 264 l 318 469 l 113 676 l 250 817 l 457 608 l 661 815 l 804 678 l 596 469 l 801 264 l 661 125 l 457 331 z "},"Ø":{"ha":1107,"x_min":39,"x_max":1068,"o":"m 553 -21 q 351 18 443 -21 q 321 32 326 29 l 297 0 l 65 0 l 172 143 q 79 292 114 207 q 39 500 39 388 q 187 871 39 724 q 553 1018 335 1018 q 756 981 663 1018 q 786 965 771 974 l 810 997 l 1040 997 l 935 856 q 1029 708 994 789 q 1068 500 1068 617 q 919 127 1068 275 q 553 -21 771 -21 m 335 361 l 639 768 q 553 783 597 783 q 374 702 439 783 q 308 500 308 621 q 325 390 308 442 q 335 361 331 371 m 553 214 q 732 296 667 214 q 797 500 797 378 q 782 610 797 556 q 777 622 781 613 q 771 636 774 631 l 467 228 q 553 214 504 214 z "},"Ù":{"ha":935,"x_min":35,"x_max":900,"o":"m 633 997 l 900 997 l 900 397 q 787 95 900 211 q 468 -21 674 -21 q 148 94 261 -21 q 35 397 35 210 l 35 997 l 301 997 l 301 386 q 468 231 301 231 q 597 272 560 231 q 633 386 633 313 l 633 997 m 449 1268 l 586 1043 l 342 1043 l 174 1268 l 449 1268 z "},"Ú":{"ha":935,"x_min":35,"x_max":900,"o":"m 633 997 l 900 997 l 900 397 q 787 95 900 211 q 468 -21 674 -21 q 148 94 261 -21 q 35 397 35 210 l 35 997 l 301 997 l 301 386 q 468 231 301 231 q 597 272 560 231 q 633 386 633 313 l 633 997 m 763 1268 l 594 1043 l 350 1043 l 489 1268 l 763 1268 z "},"Û":{"ha":935,"x_min":35,"x_max":900,"o":"m 633 997 l 900 997 l 900 397 q 787 95 900 211 q 468 -21 674 -21 q 148 94 261 -21 q 35 397 35 210 l 35 997 l 301 997 l 301 386 q 468 231 301 231 q 597 272 560 231 q 633 386 633 313 l 633 997 m 468 1146 l 383 1043 l 122 1043 l 318 1268 l 619 1268 l 814 1043 l 554 1043 l 468 1146 z "},"Ü":{"ha":935,"x_min":35,"x_max":900,"o":"m 633 997 l 900 997 l 900 397 q 787 95 900 211 q 468 -21 674 -21 q 148 94 261 -21 q 35 397 35 210 l 35 997 l 301 997 l 301 386 q 468 231 301 231 q 597 272 560 231 q 633 386 633 313 l 633 997 m 183 1063 l 183 1290 l 410 1290 l 410 1063 l 183 1063 m 525 1063 l 525 1290 l 751 1290 l 751 1063 l 525 1063 z "},"Ý":{"ha":974,"x_min":6,"x_max":968,"o":"m 968 997 l 617 375 l 617 0 l 354 0 l 354 375 l 6 997 l 301 997 l 486 656 l 675 997 l 968 997 m 789 1268 l 621 1043 l 376 1043 l 515 1268 l 789 1268 z "},"Þ":{"ha":933,"x_min":97,"x_max":897,"o":"m 479 156 l 360 156 l 360 0 l 97 0 l 97 997 l 360 997 l 360 849 l 479 849 q 788 762 678 849 q 897 508 897 675 q 787 249 897 342 q 479 156 676 156 m 478 628 l 360 628 l 360 376 l 478 376 q 595 412 554 376 q 636 506 636 447 q 596 596 636 564 q 478 628 556 628 z "},"ß":{"ha":792,"x_min":35,"x_max":767,"o":"m 767 296 q 608 29 767 89 q 419 0 531 0 l 333 0 l 333 189 l 403 189 q 522 294 522 189 q 485 385 522 353 q 381 418 449 418 l 332 418 l 332 610 l 361 610 q 444 641 413 610 q 475 724 475 672 q 449 796 475 769 q 378 822 422 822 q 300 791 328 822 q 272 704 272 760 l 272 0 l 35 0 l 35 675 q 208 975 35 885 q 381 1011 283 1011 q 628 933 539 1011 q 718 742 718 856 q 592 542 718 613 q 720 451 674 515 q 767 296 767 386 z "},"à":{"ha":774,"x_min":35,"x_max":758,"o":"m 357 282 q 285 233 285 282 q 363 185 285 185 q 422 212 394 185 q 449 285 449 239 l 449 301 q 357 282 449 282 m 281 474 l 46 474 q 145 681 56 606 q 374 756 235 756 q 615 665 531 756 q 700 390 700 574 l 700 260 q 708 238 700 246 q 728 229 717 229 l 758 229 l 758 0 l 576 0 q 513 28 535 0 q 490 97 490 57 l 490 124 q 442 51 471 75 q 281 -14 360 -14 q 101 47 168 -14 q 35 221 35 108 q 367 446 35 446 q 449 492 449 446 l 449 499 q 372 550 449 550 q 281 474 292 550 m 360 1018 l 497 793 l 253 793 l 85 1018 l 360 1018 z "},"á":{"ha":774,"x_min":35,"x_max":758,"o":"m 357 282 q 285 233 285 282 q 363 185 285 185 q 422 212 394 185 q 449 285 449 239 l 449 301 q 357 282 449 282 m 281 474 l 46 474 q 145 681 56 606 q 374 756 235 756 q 615 665 531 756 q 700 390 700 574 l 700 260 q 708 238 700 246 q 728 229 717 229 l 758 229 l 758 0 l 576 0 q 513 28 535 0 q 490 97 490 57 l 490 124 q 442 51 471 75 q 281 -14 360 -14 q 101 47 168 -14 q 35 221 35 108 q 367 446 35 446 q 449 492 449 446 l 449 499 q 372 550 449 550 q 281 474 292 550 m 674 1018 l 506 793 l 261 793 l 400 1018 l 674 1018 z "},"â":{"ha":774,"x_min":35,"x_max":758,"o":"m 357 282 q 285 233 285 282 q 363 185 285 185 q 422 212 394 185 q 449 285 449 239 l 449 301 q 357 282 449 282 m 281 474 l 46 474 q 145 681 56 606 q 374 756 235 756 q 615 665 531 756 q 700 390 700 574 l 700 260 q 708 238 700 246 q 728 229 717 229 l 758 229 l 758 0 l 576 0 q 513 28 535 0 q 490 97 490 57 l 490 124 q 442 51 471 75 q 281 -14 360 -14 q 101 47 168 -14 q 35 221 35 108 q 367 446 35 446 q 449 492 449 446 l 449 499 q 372 550 449 550 q 281 474 292 550 m 388 896 l 303 793 l 42 793 l 238 1018 l 539 1018 l 733 793 l 474 793 l 388 896 z "},"ã":{"ha":774,"x_min":35,"x_max":758,"o":"m 357 282 q 285 233 285 282 q 363 185 285 185 q 422 212 394 185 q 449 285 449 239 l 449 301 q 357 282 449 282 m 281 474 l 46 474 q 145 681 56 606 q 374 756 235 756 q 615 665 531 756 q 700 390 700 574 l 700 260 q 708 238 700 246 q 728 229 717 229 l 758 229 l 758 0 l 576 0 q 513 28 535 0 q 490 97 490 57 l 490 124 q 442 51 471 75 q 281 -14 360 -14 q 101 47 168 -14 q 35 221 35 108 q 367 446 35 446 q 449 492 449 446 l 449 499 q 372 550 449 550 q 281 474 292 550 m 251 796 l 251 786 l 108 786 q 103 843 103 813 q 168 990 103 939 q 263 1019 207 1019 q 388 993 317 1019 q 471 967 458 967 q 507 1017 507 967 l 507 1031 l 650 1031 q 656 978 656 1007 q 589 828 656 879 q 493 797 550 797 q 370 824 440 797 q 286 850 300 850 q 251 796 251 850 z "},"ä":{"ha":774,"x_min":35,"x_max":758,"o":"m 357 282 q 285 233 285 282 q 363 185 285 185 q 422 212 394 185 q 449 285 449 239 l 449 301 q 357 282 449 282 m 281 474 l 46 474 q 145 681 56 606 q 374 756 235 756 q 615 665 531 756 q 700 390 700 574 l 700 260 q 708 238 700 246 q 728 229 717 229 l 758 229 l 758 0 l 576 0 q 513 28 535 0 q 490 97 490 57 l 490 124 q 442 51 471 75 q 281 -14 360 -14 q 101 47 168 -14 q 35 221 35 108 q 367 446 35 446 q 449 492 449 446 l 449 499 q 372 550 449 550 q 281 474 292 550 m 103 813 l 103 1040 l 329 1040 l 329 813 l 103 813 m 444 813 l 444 1040 l 671 1040 l 671 813 l 444 813 z "},"å":{"ha":774,"x_min":35,"x_max":758,"o":"m 357 282 q 285 233 285 282 q 363 185 285 185 q 422 212 394 185 q 449 285 449 239 l 449 301 q 357 282 449 282 m 386 903 q 453 968 453 903 q 386 1038 453 1038 q 338 1020 358 1038 q 318 968 318 1003 q 338 919 318 936 q 386 903 358 903 m 281 474 l 46 474 q 145 681 56 606 q 374 756 235 756 q 615 665 531 756 q 700 390 700 574 l 700 260 q 708 238 700 246 q 728 229 717 229 l 758 229 l 758 0 l 576 0 q 513 28 535 0 q 490 97 490 57 l 490 124 q 442 51 471 75 q 281 -14 360 -14 q 101 47 168 -14 q 35 221 35 108 q 367 446 35 446 q 449 492 449 446 l 449 499 q 372 550 449 550 q 281 474 292 550 m 386 786 q 241 840 297 786 q 185 968 185 893 q 241 1099 185 1046 q 386 1153 297 1153 q 531 1099 474 1153 q 589 968 589 1046 q 531 840 589 893 q 386 786 474 786 z "},"æ":{"ha":1215,"x_min":42,"x_max":1185,"o":"m 42 221 q 129 396 42 332 q 374 460 217 460 q 460 474 438 460 q 483 513 483 488 l 483 519 q 458 560 483 544 q 389 575 432 575 q 315 550 343 575 q 286 474 288 525 l 53 474 q 140 681 53 601 q 378 761 226 761 q 611 675 538 761 q 839 761 701 761 q 1036 707 953 761 q 1153 567 1119 653 q 1185 397 1185 479 q 1179 314 1185 353 l 722 314 q 757 264 726 285 q 833 243 788 243 q 933 289 911 243 l 1183 289 q 839 -12 1114 -12 q 687 17 757 -12 q 582 94 617 47 q 485 13 535 36 q 315 -14 433 -14 q 117 51 193 -14 q 42 221 42 115 m 832 538 q 726 464 738 538 l 935 464 q 832 538 932 538 m 306 263 q 328 215 306 233 q 389 197 351 197 q 483 290 483 197 l 483 325 q 406 310 468 310 q 306 263 306 310 z "},"ç":{"ha":817,"x_min":31,"x_max":786,"o":"m 596 -136 q 547 -240 596 -206 q 413 -275 499 -275 q 280 -239 329 -275 q 222 -135 231 -203 l 365 -135 q 403 -168 371 -168 q 438 -137 438 -168 q 388 -100 438 -104 q 338 -97 346 -97 q 272 -100 319 -97 l 313 -4 q 211 36 261 7 q 78 174 126 86 q 31 374 31 261 q 138 650 31 539 q 407 761 246 761 q 667 665 561 761 q 786 414 772 568 l 531 414 q 408 518 525 518 q 303 458 336 518 q 288 374 288 428 q 342 246 288 278 q 408 229 367 229 q 531 333 522 229 l 786 333 q 596 29 767 118 q 499 -6 549 4 l 488 -24 q 572 -58 549 -31 q 596 -136 596 -86 z "},"è":{"ha":826,"x_min":31,"x_max":790,"o":"m 415 -12 q 137 94 243 -12 q 31 375 31 201 q 139 652 31 543 q 414 761 247 761 q 708 631 600 761 q 790 392 790 528 q 783 308 790 357 l 296 308 q 306 281 301 289 q 424 222 340 222 q 501 234 475 222 q 542 278 526 246 l 779 278 q 415 -12 713 -12 m 304 478 l 529 478 q 497 524 526 496 q 414 553 467 553 q 306 481 339 553 q 304 478 306 479 m 382 1018 l 519 793 l 275 793 l 107 1018 l 382 1018 z "},"é":{"ha":826,"x_min":31,"x_max":790,"o":"m 415 -12 q 137 94 243 -12 q 31 375 31 201 q 139 652 31 543 q 414 761 247 761 q 708 631 600 761 q 790 392 790 528 q 783 308 790 357 l 296 308 q 306 281 301 289 q 424 222 340 222 q 501 234 475 222 q 542 278 526 246 l 779 278 q 415 -12 713 -12 m 304 478 l 529 478 q 497 524 526 496 q 414 553 467 553 q 306 481 339 553 q 304 478 306 479 m 696 1018 l 528 793 l 283 793 l 422 1018 l 696 1018 z "},"ê":{"ha":826,"x_min":31,"x_max":790,"o":"m 415 -12 q 137 94 243 -12 q 31 375 31 201 q 139 652 31 543 q 414 761 247 761 q 708 631 600 761 q 790 392 790 528 q 783 308 790 357 l 296 308 q 306 281 301 289 q 424 222 340 222 q 501 234 475 222 q 542 278 526 246 l 779 278 q 415 -12 713 -12 m 304 478 l 529 478 q 497 524 526 496 q 414 553 467 553 q 306 481 339 553 q 304 478 306 479 m 414 896 l 329 793 l 68 793 l 264 1018 l 565 1018 l 760 793 l 500 793 l 414 896 z "},"ë":{"ha":826,"x_min":31,"x_max":790,"o":"m 304 478 l 529 478 q 497 524 526 496 q 414 553 467 553 q 306 481 339 553 q 304 478 306 479 m 415 -12 q 137 94 243 -12 q 31 375 31 201 q 139 652 31 543 q 414 761 247 761 q 708 631 600 761 q 790 392 790 528 q 783 308 790 357 l 296 308 q 306 281 301 289 q 424 222 340 222 q 501 234 475 222 q 542 278 526 246 l 779 278 q 415 -12 713 -12 m 129 813 l 129 1040 l 356 1040 l 356 813 l 129 813 m 471 813 l 471 1040 l 697 1040 l 697 813 l 471 813 z "},"ì":{"ha":393,"x_min":-99,"x_max":325,"o":"m 325 747 l 325 0 l 68 0 l 68 747 l 325 747 m 176 1018 l 314 793 l 69 793 l -99 1018 l 176 1018 z "},"í":{"ha":393,"x_min":68,"x_max":490,"o":"m 325 747 l 325 0 l 68 0 l 68 747 l 325 747 m 490 1018 l 322 793 l 78 793 l 217 1018 l 490 1018 z "},"î":{"ha":393,"x_min":-150,"x_max":542,"o":"m 325 747 l 325 0 l 68 0 l 68 747 l 325 747 m 196 896 l 111 793 l -150 793 l 46 1018 l 347 1018 l 542 793 l 282 793 l 196 896 z "},"ï":{"ha":393,"x_min":-89,"x_max":479,"o":"m 325 747 l 325 0 l 68 0 l 68 747 l 325 747 m -89 813 l -89 1040 l 138 1040 l 138 813 l -89 813 m 253 813 l 253 1040 l 479 1040 l 479 813 l 253 813 z "},"ð":{"ha":829,"x_min":31,"x_max":799,"o":"m 31 368 q 125 626 31 525 q 382 726 219 726 l 401 726 l 353 790 l 165 746 l 165 899 l 254 919 l 196 997 l 465 997 l 483 974 l 688 1021 l 688 868 l 582 843 l 671 725 q 771 556 743 632 q 799 368 799 481 q 690 102 799 218 q 415 -14 581 -14 q 139 97 247 -14 q 31 368 31 208 m 276 371 q 317 245 276 290 q 414 200 357 200 q 510 244 469 200 q 550 371 550 289 q 510 499 550 454 q 414 543 471 543 q 317 499 357 543 q 276 371 276 454 z "},"ñ":{"ha":761,"x_min":35,"x_max":726,"o":"m 292 396 l 292 0 l 35 0 l 35 747 l 292 747 l 292 661 q 301 675 300 674 q 489 761 363 761 q 679 672 632 761 q 726 396 726 583 l 726 0 l 469 0 l 469 396 q 381 538 469 538 q 292 396 292 538 m 249 796 l 249 786 l 106 786 q 100 843 100 813 q 165 990 100 939 q 260 1019 206 1019 q 385 993 314 1019 q 468 967 456 967 q 504 1017 504 967 l 504 1031 l 647 1031 q 653 978 653 1007 q 586 828 653 879 q 490 797 547 797 q 367 824 438 797 q 283 850 297 850 q 249 796 249 850 z "},"ò":{"ha":836,"x_min":28,"x_max":808,"o":"m 696 99 q 640 43 696 99 q 418 -14 583 -14 q 140 99 253 -14 q 28 374 28 213 q 140 648 28 535 q 418 761 253 761 q 696 648 583 761 q 808 374 808 535 q 696 99 808 213 m 324 254 q 343 233 324 254 q 418 211 363 211 q 513 253 474 211 q 551 374 551 296 q 513 493 551 451 q 418 535 474 535 q 324 493 363 535 q 285 374 285 451 q 324 254 285 297 m 399 1018 l 536 793 l 292 793 l 124 1018 l 399 1018 z "},"ó":{"ha":836,"x_min":28,"x_max":808,"o":"m 696 99 q 640 43 696 99 q 418 -14 583 -14 q 140 99 253 -14 q 28 374 28 213 q 140 648 28 535 q 418 761 253 761 q 696 648 583 761 q 808 374 808 535 q 696 99 808 213 m 324 254 q 343 233 324 254 q 418 211 363 211 q 513 253 474 211 q 551 374 551 296 q 513 493 551 451 q 418 535 474 535 q 324 493 363 535 q 285 374 285 451 q 324 254 285 297 m 713 1018 l 544 793 l 300 793 l 439 1018 l 713 1018 z "},"ô":{"ha":836,"x_min":28,"x_max":808,"o":"m 696 99 q 640 43 696 99 q 418 -14 583 -14 q 140 99 253 -14 q 28 374 28 213 q 140 648 28 535 q 418 761 253 761 q 696 648 583 761 q 808 374 808 535 q 696 99 808 213 m 324 254 q 343 233 324 254 q 418 211 363 211 q 513 253 474 211 q 551 374 551 296 q 513 493 551 451 q 418 535 474 535 q 324 493 363 535 q 285 374 285 451 q 324 254 285 297 m 418 896 l 333 793 l 72 793 l 268 1018 l 569 1018 l 764 793 l 504 793 l 418 896 z "},"õ":{"ha":836,"x_min":28,"x_max":808,"o":"m 324 254 q 343 233 324 254 q 418 211 363 211 q 513 253 474 211 q 551 374 551 296 q 513 493 551 451 q 418 535 474 535 q 324 493 363 535 q 285 374 285 451 q 324 254 285 297 m 696 99 q 640 43 696 99 q 418 -14 583 -14 q 140 99 253 -14 q 28 374 28 213 q 140 648 28 535 q 418 761 253 761 q 696 648 583 761 q 808 374 808 535 q 696 99 808 213 m 290 796 l 290 786 l 147 786 q 142 843 142 813 q 207 990 142 939 q 301 1019 247 1019 q 427 993 356 1019 q 510 967 499 967 q 546 1017 546 967 l 546 1031 l 689 1031 q 694 978 694 1007 q 628 828 694 879 q 532 797 589 797 q 409 824 479 797 q 325 850 339 850 q 290 796 290 850 z "},"ö":{"ha":836,"x_min":28,"x_max":808,"o":"m 324 254 q 343 233 324 254 q 418 211 363 211 q 513 253 474 211 q 551 374 551 296 q 513 493 551 451 q 418 535 474 535 q 324 493 363 535 q 285 374 285 451 q 324 254 285 297 m 696 99 q 640 43 696 99 q 418 -14 583 -14 q 140 99 253 -14 q 28 374 28 213 q 140 648 28 535 q 418 761 253 761 q 696 648 583 761 q 808 374 808 535 q 696 99 808 213 m 133 813 l 133 1040 l 360 1040 l 360 813 l 133 813 m 475 813 l 475 1040 l 701 1040 l 701 813 l 475 813 z "},"÷":{"ha":917,"x_min":111,"x_max":806,"o":"m 608 749 q 567 640 608 682 q 458 597 525 597 q 349 640 392 597 q 307 749 307 682 q 349 859 307 817 q 458 901 392 901 q 567 859 525 901 q 608 749 608 817 m 806 582 l 806 374 l 111 374 l 111 582 l 806 582 m 608 211 q 567 102 608 144 q 458 60 525 60 q 349 102 392 60 q 307 211 307 144 q 349 322 307 279 q 458 364 392 364 q 567 322 525 364 q 608 211 608 279 z "},"ø":{"ha":842,"x_min":31,"x_max":811,"o":"m 286 307 l 456 543 q 421 547 439 547 q 319 502 361 547 q 278 374 278 457 q 286 307 278 336 m 421 199 q 522 244 481 199 q 564 374 564 290 q 557 438 564 407 l 388 203 q 421 199 404 199 m 421 -14 q 267 17 336 -14 q 262 19 265 18 q 257 19 258 19 l 243 0 l 67 0 l 140 103 q 61 224 89 156 q 31 374 31 290 q 143 648 31 535 q 421 761 256 761 q 575 732 504 761 l 586 726 l 601 747 l 778 747 l 703 643 q 782 525 753 590 q 811 374 811 454 q 699 99 811 213 q 421 -14 586 -14 z "},"ù":{"ha":761,"x_min":35,"x_max":726,"o":"m 469 351 l 469 747 l 726 747 l 726 0 l 469 0 l 469 86 l 461 72 q 272 -14 400 -14 q 83 75 131 -14 q 35 351 35 165 l 35 747 l 292 747 l 292 351 q 381 210 292 210 q 469 351 469 210 m 354 1018 l 492 793 l 247 793 l 79 1018 l 354 1018 z "},"ú":{"ha":761,"x_min":35,"x_max":726,"o":"m 469 351 l 469 747 l 726 747 l 726 0 l 469 0 l 469 86 l 461 72 q 272 -14 400 -14 q 83 75 131 -14 q 35 351 35 165 l 35 747 l 292 747 l 292 351 q 381 210 292 210 q 469 351 469 210 m 668 1018 l 500 793 l 256 793 l 394 1018 l 668 1018 z "},"û":{"ha":761,"x_min":35,"x_max":726,"o":"m 469 351 l 469 747 l 726 747 l 726 0 l 469 0 l 469 86 l 461 72 q 272 -14 400 -14 q 83 75 131 -14 q 35 351 35 165 l 35 747 l 292 747 l 292 351 q 381 210 292 210 q 469 351 469 210 m 381 896 l 296 793 l 35 793 l 231 1018 l 532 1018 l 726 793 l 467 793 l 381 896 z "},"ü":{"ha":761,"x_min":35,"x_max":726,"o":"m 469 351 l 469 747 l 726 747 l 726 0 l 469 0 l 469 86 l 461 72 q 272 -14 400 -14 q 83 75 131 -14 q 35 351 35 165 l 35 747 l 292 747 l 292 351 q 381 210 292 210 q 469 351 469 210 m 96 813 l 96 1040 l 322 1040 l 322 813 l 96 813 m 438 813 l 438 1040 l 664 1040 l 664 813 l 438 813 z "},"ý":{"ha":817,"x_min":7,"x_max":810,"o":"m 558 747 l 810 747 l 542 0 l 542 -142 q 505 -263 542 -225 q 392 -301 468 -301 l 121 -300 l 121 -78 l 269 -78 q 295 -69 286 -78 q 304 -50 304 -61 l 304 0 l 7 747 l 278 747 l 426 322 l 558 747 m 704 1018 l 536 793 l 292 793 l 431 1018 l 704 1018 z "},"þ":{"ha":858,"x_min":43,"x_max":817,"o":"m 301 78 l 301 -268 l 43 -268 l 43 997 l 301 997 l 301 664 q 382 738 333 714 q 483 761 432 761 q 724 650 632 761 q 817 374 817 539 q 774 178 817 268 q 658 38 731 88 q 486 -14 586 -14 q 311 64 364 -14 q 301 78 310 65 m 556 382 q 520 499 556 461 q 426 536 485 536 q 335 496 369 536 q 301 375 301 456 q 367 246 301 278 q 426 233 389 233 q 519 273 482 233 q 556 382 556 313 z "},"ÿ":{"ha":817,"x_min":7,"x_max":810,"o":"m 558 747 l 810 747 l 542 0 l 542 -142 q 505 -263 542 -225 q 392 -301 468 -301 l 121 -300 l 121 -78 l 269 -78 q 295 -69 286 -78 q 304 -50 304 -61 l 304 0 l 7 747 l 278 747 l 426 322 l 558 747 m 124 813 l 124 1040 l 350 1040 l 350 813 l 124 813 m 465 813 l 465 1040 l 692 1040 l 692 813 l 465 813 z "},"Ā":{"ha":1036,"x_min":7,"x_max":1029,"o":"m 297 0 l 7 0 l 376 997 l 664 997 l 1029 0 l 721 0 l 675 140 l 344 140 l 297 0 m 513 633 l 425 378 l 597 378 l 513 633 m 761 1213 l 761 1060 l 276 1060 l 276 1213 l 761 1213 z "},"ā":{"ha":774,"x_min":35,"x_max":758,"o":"m 357 282 q 285 233 285 282 q 363 185 285 185 q 422 212 394 185 q 449 285 449 239 l 449 301 q 357 282 449 282 m 281 474 l 46 474 q 145 681 56 606 q 374 756 235 756 q 615 665 531 756 q 700 390 700 574 l 700 260 q 708 238 700 246 q 728 229 717 229 l 758 229 l 758 0 l 576 0 q 513 28 535 0 q 490 97 490 57 l 490 124 q 442 51 471 75 q 281 -14 360 -14 q 101 47 168 -14 q 35 221 35 108 q 367 446 35 446 q 449 492 449 446 l 449 499 q 372 550 449 550 q 281 474 292 550 m 629 963 l 629 810 l 144 810 l 144 963 l 629 963 z "},"Ă":{"ha":1036,"x_min":7,"x_max":1029,"o":"m 297 0 l 7 0 l 376 997 l 664 997 l 1029 0 l 721 0 l 675 140 l 344 140 l 297 0 m 513 633 l 425 378 l 597 378 l 513 633 m 614 1268 l 779 1268 q 710 1099 779 1161 q 519 1036 640 1036 q 328 1099 397 1036 q 258 1268 258 1161 l 425 1268 q 451 1206 425 1228 q 519 1185 476 1185 q 614 1268 614 1185 z "},"ă":{"ha":774,"x_min":35,"x_max":758,"o":"m 357 282 q 285 233 285 282 q 363 185 285 185 q 422 212 394 185 q 449 285 449 239 l 449 301 q 357 282 449 282 m 281 474 l 46 474 q 145 681 56 606 q 374 756 235 756 q 615 665 531 756 q 700 390 700 574 l 700 260 q 708 238 700 246 q 728 229 717 229 l 758 229 l 758 0 l 576 0 q 513 28 535 0 q 490 97 490 57 l 490 124 q 442 51 471 75 q 281 -14 360 -14 q 101 47 168 -14 q 35 221 35 108 q 367 446 35 446 q 449 492 449 446 l 449 499 q 372 550 449 550 q 281 474 292 550 m 482 1018 l 647 1018 q 578 849 647 911 q 388 786 508 786 q 196 849 265 786 q 126 1018 126 911 l 293 1018 q 319 956 293 978 q 388 935 344 935 q 482 1018 482 935 z "},"Ą":{"ha":1036,"x_min":7,"x_max":1029,"o":"m 297 0 l 7 0 l 376 997 l 664 997 l 1029 0 l 989 0 q 957 -35 972 -14 q 933 -96 933 -65 q 988 -156 933 -156 q 1029 -147 1006 -156 l 1029 -301 q 931 -317 975 -317 q 802 -278 853 -317 q 751 -167 751 -239 q 804 -40 751 -97 l 844 0 l 721 0 l 675 140 l 344 140 l 297 0 m 513 633 l 425 378 l 597 378 l 513 633 z "},"ą":{"ha":774,"x_min":35,"x_max":758,"o":"m 281 474 l 46 474 q 145 681 56 606 q 374 756 235 756 q 615 665 531 756 q 700 390 700 574 l 700 260 q 708 238 700 246 q 728 229 717 229 l 758 229 l 758 0 l 718 0 q 686 -35 701 -14 q 663 -96 663 -65 q 717 -156 663 -156 q 758 -147 736 -156 l 758 -301 q 660 -317 704 -317 q 531 -278 582 -317 q 481 -167 481 -239 q 533 -40 481 -97 q 545 -28 538 -36 q 560 -12 553 -19 q 574 0 567 -6 q 511 31 529 3 q 490 97 490 60 l 490 124 q 442 51 471 75 q 281 -14 360 -14 q 101 47 168 -14 q 35 221 35 108 q 367 446 35 446 q 449 492 449 446 l 449 499 q 372 550 449 550 q 281 474 292 550 m 357 282 q 285 233 285 282 q 363 185 285 185 q 422 212 394 185 q 449 285 449 239 l 449 301 q 357 282 449 282 z "},"Ć":{"ha":1107,"x_min":42,"x_max":1065,"o":"m 549 -21 q 190 131 338 -21 q 42 500 42 282 q 189 867 42 717 q 549 1018 336 1018 q 899 894 754 1018 q 1065 572 1043 769 l 779 572 q 658 736 763 679 q 551 761 611 761 q 383 690 447 761 q 319 500 319 619 q 382 308 319 379 q 551 236 444 236 q 701 288 639 236 q 779 426 764 339 l 1065 426 q 897 103 1040 226 q 549 -21 754 -21 m 842 1268 l 674 1043 l 429 1043 l 568 1268 l 842 1268 z "},"ć":{"ha":817,"x_min":31,"x_max":786,"o":"m 407 -14 q 135 94 240 -14 q 31 374 31 203 q 138 650 31 539 q 407 761 246 761 q 667 665 561 761 q 786 414 772 568 l 531 414 q 408 518 525 518 q 303 458 336 518 q 288 374 288 428 q 342 246 288 278 q 408 229 367 229 q 531 333 522 229 l 786 333 q 669 80 772 174 q 407 -14 567 -14 m 697 1018 l 529 793 l 285 793 l 424 1018 l 697 1018 z "},"Ĉ":{"ha":1107,"x_min":42,"x_max":1065,"o":"m 549 -21 q 190 131 338 -21 q 42 500 42 282 q 189 867 42 717 q 549 1018 336 1018 q 899 894 754 1018 q 1065 572 1043 769 l 779 572 q 658 736 763 679 q 551 761 611 761 q 383 690 447 761 q 319 500 319 619 q 382 308 319 379 q 551 236 444 236 q 701 288 639 236 q 779 426 764 339 l 1065 426 q 897 103 1040 226 q 549 -21 754 -21 m 554 1146 l 469 1043 l 208 1043 l 404 1268 l 706 1268 l 900 1043 l 640 1043 l 554 1146 z "},"ĉ":{"ha":817,"x_min":31,"x_max":786,"o":"m 407 -14 q 135 94 240 -14 q 31 374 31 203 q 138 650 31 539 q 407 761 246 761 q 667 665 561 761 q 786 414 772 568 l 531 414 q 408 518 525 518 q 303 458 336 518 q 288 374 288 428 q 342 246 288 278 q 408 229 367 229 q 531 333 522 229 l 786 333 q 669 80 772 174 q 407 -14 567 -14 m 408 896 l 324 793 l 63 793 l 258 1018 l 560 1018 l 754 793 l 494 793 l 408 896 z "},"Ċ":{"ha":1107,"x_min":42,"x_max":1065,"o":"m 549 -21 q 190 131 338 -21 q 42 500 42 282 q 189 867 42 717 q 549 1018 336 1018 q 899 894 754 1018 q 1065 572 1043 769 l 779 572 q 658 736 763 679 q 551 761 611 761 q 383 690 447 761 q 319 500 319 619 q 382 308 319 379 q 551 236 444 236 q 701 288 639 236 q 779 426 764 339 l 1065 426 q 897 103 1040 226 q 549 -21 754 -21 m 707 1171 q 664 1074 707 1113 q 554 1036 621 1036 q 444 1074 488 1036 q 401 1171 401 1113 q 444 1269 401 1231 q 554 1307 486 1307 q 665 1269 622 1307 q 707 1171 707 1231 z "},"ċ":{"ha":817,"x_min":31,"x_max":786,"o":"m 407 -14 q 135 94 240 -14 q 31 374 31 203 q 138 650 31 539 q 407 761 246 761 q 667 665 561 761 q 786 414 772 568 l 531 414 q 408 518 525 518 q 303 458 336 518 q 288 374 288 428 q 342 246 288 278 q 408 229 367 229 q 531 333 522 229 l 786 333 q 669 80 772 174 q 407 -14 567 -14 m 561 921 q 518 824 561 863 q 408 786 475 786 q 299 824 342 786 q 256 921 256 863 q 298 1019 256 981 q 408 1057 340 1057 q 519 1019 476 1057 q 561 921 561 981 z "},"Č":{"ha":1107,"x_min":42,"x_max":1065,"o":"m 549 -21 q 190 131 338 -21 q 42 500 42 282 q 189 867 42 717 q 549 1018 336 1018 q 899 894 754 1018 q 1065 572 1043 769 l 779 572 q 658 736 763 679 q 551 761 611 761 q 383 690 447 761 q 319 500 319 619 q 382 308 319 379 q 551 236 444 236 q 701 288 639 236 q 779 426 764 339 l 1065 426 q 897 103 1040 226 q 549 -21 754 -21 m 900 1268 l 706 1043 l 404 1043 l 208 1268 l 469 1268 l 554 1165 l 640 1268 l 900 1268 z "},"č":{"ha":817,"x_min":31,"x_max":786,"o":"m 407 -14 q 135 94 240 -14 q 31 374 31 203 q 138 650 31 539 q 407 761 246 761 q 667 665 561 761 q 786 414 772 568 l 531 414 q 408 518 525 518 q 303 458 336 518 q 288 374 288 428 q 342 246 288 278 q 408 229 367 229 q 531 333 522 229 l 786 333 q 669 80 772 174 q 407 -14 567 -14 m 754 1018 l 560 793 l 258 793 l 63 1018 l 324 1018 l 408 915 l 494 1018 l 754 1018 z "},"Ď":{"ha":986,"x_min":42,"x_max":944,"o":"m 431 0 l 42 0 l 42 997 l 431 997 q 805 861 665 997 q 944 504 944 725 q 802 142 944 285 q 431 0 660 0 m 415 740 l 306 740 l 306 257 l 415 257 q 610 322 544 257 q 675 504 675 386 q 609 680 675 619 q 415 740 543 740 m 839 1268 l 644 1043 l 343 1043 l 147 1268 l 408 1268 l 493 1165 l 579 1268 l 839 1268 z "},"ď":{"ha":1064,"x_min":35,"x_max":1039,"o":"m 296 382 q 333 273 296 313 q 425 233 369 233 q 531 288 492 233 q 550 375 550 318 q 516 496 550 456 q 425 536 482 536 q 331 499 367 536 q 296 382 296 461 m 35 374 q 127 650 35 539 q 368 761 219 761 q 471 738 419 761 q 550 664 518 715 l 550 997 l 808 997 l 808 0 l 550 0 l 550 78 l 542 64 q 365 -14 489 -14 q 78 178 169 -14 q 35 374 35 265 m 844 804 l 844 997 l 1039 997 l 1039 844 q 997 719 1039 767 q 867 671 956 671 l 867 746 l 872 746 q 926 762 904 746 q 947 804 947 778 l 844 804 z "},"Đ":{"ha":1072,"x_min":8,"x_max":1033,"o":"m 519 0 l 131 0 l 131 406 l 8 406 l 8 619 l 131 619 l 131 997 l 519 997 q 894 861 754 997 q 1033 504 1033 725 q 891 142 1033 285 q 519 0 749 0 m 504 771 l 393 771 l 393 619 l 583 619 l 583 406 l 393 406 l 393 226 l 504 226 q 764 504 764 226 q 504 771 764 771 z "},"đ":{"ha":843,"x_min":35,"x_max":878,"o":"m 878 963 l 878 810 l 808 810 l 808 0 l 550 0 l 550 78 l 542 64 q 365 -14 489 -14 q 78 178 169 -14 q 35 374 35 265 q 127 650 35 539 q 368 761 219 761 q 471 738 419 761 q 550 664 518 715 l 550 810 l 393 810 l 393 963 l 550 963 l 550 997 l 808 997 l 808 963 l 878 963 m 296 382 q 333 273 296 313 q 425 233 369 233 q 531 288 492 233 q 550 375 550 318 q 516 496 550 456 q 425 536 482 536 q 331 499 367 536 q 296 382 296 461 z "},"Ē":{"ha":874,"x_min":42,"x_max":832,"o":"m 306 250 l 832 250 l 832 0 l 42 0 l 42 997 l 832 997 l 832 747 l 306 747 l 304 624 l 832 624 l 832 374 l 304 374 l 306 250 m 638 1213 l 638 1060 l 153 1060 l 153 1213 l 638 1213 z "},"ē":{"ha":826,"x_min":31,"x_max":790,"o":"m 415 -12 q 137 94 243 -12 q 31 375 31 201 q 139 652 31 543 q 414 761 247 761 q 708 631 600 761 q 790 392 790 528 q 783 308 790 357 l 296 308 q 306 281 301 289 q 424 222 340 222 q 501 234 475 222 q 542 278 526 246 l 779 278 q 415 -12 713 -12 m 304 478 l 529 478 q 497 524 526 496 q 414 553 467 553 q 306 481 339 553 q 304 478 306 479 m 656 963 l 656 810 l 171 810 l 171 963 l 656 963 z "},"Ĕ":{"ha":874,"x_min":42,"x_max":832,"o":"m 306 250 l 832 250 l 832 0 l 42 0 l 42 997 l 832 997 l 832 747 l 306 747 l 304 624 l 832 624 l 832 374 l 304 374 l 306 250 m 490 1268 l 656 1268 q 586 1099 656 1161 q 396 1036 517 1036 q 204 1099 274 1036 q 135 1268 135 1161 l 301 1268 q 327 1206 301 1228 q 396 1185 353 1185 q 490 1268 490 1185 z "},"ĕ":{"ha":826,"x_min":31,"x_max":790,"o":"m 415 -12 q 137 94 243 -12 q 31 375 31 201 q 139 652 31 543 q 414 761 247 761 q 708 631 600 761 q 790 392 790 528 q 783 308 790 357 l 296 308 q 306 281 301 289 q 424 222 340 222 q 501 234 475 222 q 542 278 526 246 l 779 278 q 415 -12 713 -12 m 304 478 l 529 478 q 497 524 526 496 q 414 553 467 553 q 306 481 339 553 q 304 478 306 479 m 508 1018 l 674 1018 q 604 849 674 911 q 414 786 535 786 q 222 849 292 786 q 153 1018 153 911 l 319 1018 q 345 956 319 978 q 414 935 371 935 q 508 1018 508 935 z "},"Ė":{"ha":789,"x_min":42,"x_max":832,"o":"m 306 250 l 832 250 l 832 0 l 42 0 l 42 997 l 832 997 l 832 747 l 306 747 l 304 624 l 832 624 l 832 374 l 304 374 l 306 250 m 589 1169 q 546 1073 589 1111 q 436 1035 503 1035 q 326 1073 369 1035 q 283 1169 283 1111 q 326 1267 283 1229 q 436 1306 368 1306 q 547 1267 504 1306 q 589 1169 589 1229 z "},"ė":{"ha":826,"x_min":31,"x_max":790,"o":"m 415 -12 q 137 94 243 -12 q 31 375 31 201 q 139 652 31 543 q 414 761 247 761 q 708 631 600 761 q 790 392 790 528 q 783 308 790 357 l 296 308 q 306 281 301 289 q 424 222 340 222 q 501 234 475 222 q 542 278 526 246 l 779 278 q 415 -12 713 -12 m 304 478 l 529 478 q 497 524 526 496 q 414 553 467 553 q 306 481 339 553 q 304 478 306 479 m 567 921 q 524 824 567 863 q 414 786 481 786 q 304 824 347 786 q 261 921 261 863 q 303 1019 261 981 q 414 1057 346 1057 q 524 1019 482 1057 q 567 921 567 981 z "},"Ę":{"ha":874,"x_min":42,"x_max":832,"o":"m 306 250 l 832 250 l 832 0 l 618 0 q 601 -53 601 -25 q 656 -112 601 -112 q 697 -104 675 -112 l 697 -258 q 599 -274 643 -274 q 470 -235 521 -274 q 419 -124 419 -196 q 469 0 419 -56 l 42 0 l 42 997 l 832 997 l 832 747 l 306 747 l 304 624 l 832 624 l 832 374 l 304 374 l 306 250 z "},"ę":{"ha":826,"x_min":31,"x_max":790,"o":"m 674 -100 l 674 -254 q 575 -269 619 -269 q 447 -231 497 -269 q 396 -119 396 -192 q 432 -12 396 -61 l 415 -12 q 137 94 243 -12 q 31 375 31 201 q 139 652 31 543 q 414 761 247 761 q 708 631 600 761 q 790 392 790 528 q 783 308 790 357 l 296 308 q 306 281 301 289 q 424 222 340 222 q 501 234 475 222 q 542 278 526 246 l 779 278 q 650 57 744 125 q 628 42 640 49 q 601 13 608 22 q 578 -49 578 -18 q 632 -108 578 -108 q 674 -100 650 -108 m 304 478 l 529 478 q 497 524 526 496 q 414 553 467 553 q 306 481 339 553 q 304 478 306 479 z "},"Ě":{"ha":874,"x_min":42,"x_max":832,"o":"m 306 250 l 832 250 l 832 0 l 42 0 l 42 997 l 832 997 l 832 747 l 306 747 l 304 624 l 832 624 l 832 374 l 304 374 l 306 250 m 740 1268 l 546 1043 l 244 1043 l 49 1268 l 310 1268 l 394 1165 l 481 1268 l 740 1268 z "},"ě":{"ha":826,"x_min":31,"x_max":790,"o":"m 415 -12 q 137 94 243 -12 q 31 375 31 201 q 139 652 31 543 q 414 761 247 761 q 708 631 600 761 q 790 392 790 528 q 783 308 790 357 l 296 308 q 306 281 301 289 q 424 222 340 222 q 501 234 475 222 q 542 278 526 246 l 779 278 q 415 -12 713 -12 m 304 478 l 529 478 q 497 524 526 496 q 414 553 467 553 q 306 481 339 553 q 304 478 306 479 m 760 1018 l 565 793 l 264 793 l 68 1018 l 329 1018 l 414 915 l 500 1018 l 760 1018 z "},"Ĝ":{"ha":1063,"x_min":35,"x_max":1035,"o":"m 553 -21 q 183 126 332 -21 q 35 504 35 274 q 180 872 35 725 q 544 1018 325 1018 q 767 974 668 1018 q 932 850 867 929 q 1019 650 994 771 l 746 650 q 642 753 717 724 q 538 765 606 765 q 367 699 435 765 q 299 497 299 633 q 332 356 299 417 q 422 263 365 294 q 567 231 478 231 q 722 274 672 231 q 772 382 772 318 l 556 382 l 556 589 l 1035 589 q 1008 293 1032 382 q 928 133 981 201 q 772 22 871 64 q 553 -21 674 -21 m 532 1146 l 447 1043 l 186 1043 l 382 1268 l 683 1268 l 878 1043 l 618 1043 l 532 1146 z "},"ĝ":{"ha":731,"x_min":7,"x_max":724,"o":"m 365 240 l 314 240 q 257 210 257 240 q 314 182 257 182 l 365 182 q 724 -96 724 182 q 633 -282 724 -204 q 365 -358 543 -358 q 7 -149 7 -358 q 151 25 7 6 q 222 43 192 29 l 215 43 l 208 43 q 71 78 122 43 q 19 172 19 114 q 51 268 19 228 q 139 325 83 308 q 76 488 76 389 q 160 697 76 633 q 365 761 242 761 q 419 840 365 825 q 715 857 474 854 l 715 671 l 599 671 q 654 488 654 607 q 572 308 654 375 q 365 240 490 240 m 303 493 q 365 425 303 425 q 428 493 428 425 q 365 564 428 564 q 303 493 303 564 m 365 -135 q 456 -124 431 -135 q 481 -82 481 -112 q 456 -42 481 -53 q 365 -31 431 -31 q 276 -42 303 -31 q 250 -82 250 -53 q 276 -123 250 -111 q 365 -135 303 -135 m 365 1000 l 281 897 l 19 897 l 215 1122 l 517 1122 l 711 897 l 451 897 l 365 1000 z "},"Ğ":{"ha":1063,"x_min":35,"x_max":1035,"o":"m 553 -21 q 183 126 332 -21 q 35 504 35 274 q 180 872 35 725 q 544 1018 325 1018 q 767 974 668 1018 q 932 850 867 929 q 1019 650 994 771 l 746 650 q 642 753 717 724 q 538 765 606 765 q 367 699 435 765 q 299 497 299 633 q 332 356 299 417 q 422 263 365 294 q 567 231 478 231 q 722 274 672 231 q 772 382 772 318 l 556 382 l 556 589 l 1035 589 q 1008 293 1032 382 q 928 133 981 201 q 772 22 871 64 q 553 -21 674 -21 m 626 1268 l 792 1268 q 722 1099 792 1161 q 532 1036 653 1036 q 340 1099 410 1036 q 271 1268 271 1161 l 438 1268 q 463 1206 438 1228 q 532 1185 489 1185 q 626 1268 626 1185 z "},"ğ":{"ha":731,"x_min":7,"x_max":724,"o":"m 365 240 l 314 240 q 257 210 257 240 q 314 182 257 182 l 365 182 q 724 -96 724 182 q 633 -282 724 -204 q 365 -358 543 -358 q 7 -149 7 -358 q 151 25 7 6 q 222 43 192 29 l 215 43 l 208 43 q 71 78 122 43 q 19 172 19 114 q 51 268 19 228 q 139 325 83 308 q 76 488 76 389 q 160 697 76 633 q 365 761 242 761 q 419 840 365 825 q 715 857 474 854 l 715 671 l 599 671 q 654 488 654 607 q 572 308 654 375 q 365 240 490 240 m 303 493 q 365 425 303 425 q 428 493 428 425 q 365 564 428 564 q 303 493 303 564 m 365 -135 q 456 -124 431 -135 q 481 -82 481 -112 q 456 -42 481 -53 q 365 -31 431 -31 q 276 -42 303 -31 q 250 -82 250 -53 q 276 -123 250 -111 q 365 -135 303 -135 m 460 1117 l 625 1117 q 556 947 625 1010 q 365 885 486 885 q 174 947 243 885 q 104 1117 104 1010 l 271 1117 q 297 1055 271 1076 q 365 1033 322 1033 q 460 1117 460 1033 z "},"Ġ":{"ha":1063,"x_min":35,"x_max":1035,"o":"m 553 -21 q 183 126 332 -21 q 35 504 35 274 q 180 872 35 725 q 544 1018 325 1018 q 767 974 668 1018 q 932 850 867 929 q 1019 650 994 771 l 746 650 q 642 753 717 724 q 538 765 606 765 q 367 699 435 765 q 299 497 299 633 q 332 356 299 417 q 422 263 365 294 q 567 231 478 231 q 722 274 672 231 q 772 382 772 318 l 556 382 l 556 589 l 1035 589 q 1008 293 1032 382 q 928 133 981 201 q 772 22 871 64 q 553 -21 674 -21 m 685 1171 q 642 1074 685 1113 q 532 1036 599 1036 q 422 1074 465 1036 q 379 1171 379 1113 q 422 1269 379 1231 q 532 1307 464 1307 q 642 1269 600 1307 q 685 1171 685 1231 z "},"ġ":{"ha":731,"x_min":7,"x_max":724,"o":"m 365 240 l 314 240 q 257 210 257 240 q 314 182 257 182 l 365 182 q 724 -96 724 182 q 633 -282 724 -204 q 365 -358 543 -358 q 7 -149 7 -358 q 151 25 7 6 q 222 43 192 29 l 215 43 l 208 43 q 71 78 122 43 q 19 172 19 114 q 51 268 19 228 q 139 325 83 308 q 76 488 76 389 q 160 697 76 633 q 365 761 242 761 q 419 840 365 825 q 715 857 474 854 l 715 671 l 599 671 q 654 488 654 607 q 572 308 654 375 q 365 240 490 240 m 303 493 q 365 425 303 425 q 428 493 428 425 q 365 564 428 564 q 303 493 303 564 m 365 -135 q 456 -124 431 -135 q 481 -82 481 -112 q 456 -42 481 -53 q 365 -31 431 -31 q 276 -42 303 -31 q 250 -82 250 -53 q 276 -123 250 -111 q 365 -135 303 -135 m 518 1029 q 475 933 518 971 q 365 894 432 894 q 256 933 299 894 q 213 1029 213 971 q 255 1127 213 1089 q 365 1165 297 1165 q 476 1127 433 1165 q 518 1029 518 1089 z "},"Ģ":{"ha":1063,"x_min":35,"x_max":1035,"o":"m 553 -21 q 183 126 332 -21 q 35 504 35 274 q 180 872 35 725 q 544 1018 325 1018 q 767 974 668 1018 q 932 850 867 929 q 1019 650 994 771 l 746 650 q 642 753 717 724 q 538 765 606 765 q 367 699 435 765 q 299 497 299 633 q 332 356 299 417 q 422 263 365 294 q 567 231 478 231 q 722 274 672 231 q 772 382 772 318 l 556 382 l 556 589 l 1035 589 q 1008 293 1032 382 q 928 133 981 201 q 772 22 871 64 q 553 -21 674 -21 m 443 -242 l 443 -49 l 638 -49 l 638 -201 q 596 -327 638 -279 q 465 -375 554 -375 l 465 -300 l 472 -300 q 524 -283 503 -300 q 544 -242 544 -267 l 443 -242 z "},"ģ":{"ha":731,"x_min":7,"x_max":724,"o":"m 303 493 q 365 425 303 425 q 428 493 428 425 q 365 564 428 564 q 303 493 303 564 m 365 -135 q 456 -124 431 -135 q 481 -82 481 -112 q 456 -42 481 -53 q 365 -31 431 -31 q 276 -42 303 -31 q 250 -82 250 -53 q 276 -123 250 -111 q 365 -135 303 -135 m 365 240 l 314 240 q 257 210 257 240 q 314 182 257 182 l 365 182 q 724 -96 724 182 q 633 -282 724 -204 q 365 -358 543 -358 q 7 -149 7 -358 q 151 25 7 6 q 222 43 192 29 l 215 43 l 208 43 q 71 78 122 43 q 19 172 19 114 q 51 268 19 228 q 139 325 83 308 q 76 488 76 389 q 160 697 76 633 q 365 761 242 761 q 419 840 365 825 q 715 857 474 854 l 715 671 l 599 671 q 654 488 654 607 q 572 308 654 375 q 365 240 490 240 m 463 1111 l 463 918 l 268 918 l 268 1071 q 310 1197 268 1149 q 440 1244 351 1244 l 440 1169 l 433 1169 q 382 1153 403 1169 q 361 1111 361 1136 l 463 1111 z "},"Ĥ":{"ha":963,"x_min":35,"x_max":928,"o":"m 301 376 l 301 0 l 35 0 l 35 997 l 301 997 l 301 626 l 661 626 l 661 997 l 928 997 l 928 0 l 661 0 l 661 376 l 301 376 m 482 1146 l 397 1043 l 136 1043 l 332 1268 l 633 1268 l 828 1043 l 568 1043 l 482 1146 z "},"ĥ":{"ha":761,"x_min":-181,"x_max":726,"o":"m 292 388 l 292 0 l 35 0 l 35 997 l 292 997 l 292 667 q 475 761 378 761 q 658 688 589 761 q 726 481 726 614 l 726 0 l 469 0 l 469 396 q 447 504 469 467 q 383 542 424 542 q 292 388 292 542 m 165 1138 l 81 1035 l -181 1035 l 15 1260 l 317 1260 l 511 1035 l 251 1035 l 165 1138 z "},"Ħ":{"ha":963,"x_min":0,"x_max":963,"o":"m 301 719 l 301 626 l 661 626 l 661 719 l 301 719 m 301 376 l 301 0 l 35 0 l 35 719 l 0 719 l 0 872 l 35 872 l 35 997 l 301 997 l 301 872 l 661 872 l 661 997 l 928 997 l 928 872 l 963 872 l 963 719 l 928 719 l 928 0 l 661 0 l 661 376 l 301 376 z "},"ħ":{"ha":761,"x_min":-31,"x_max":726,"o":"m 292 388 l 292 0 l 35 0 l 35 792 l -31 792 l -31 944 l 35 944 l 35 997 l 292 997 l 292 944 l 454 944 l 454 792 l 292 792 l 292 667 q 475 761 378 761 q 658 688 589 761 q 726 481 726 614 l 726 0 l 469 0 l 469 396 q 447 504 469 467 q 383 542 424 542 q 292 388 292 542 z "},"Ĩ":{"ha":350,"x_min":-96,"x_max":457,"o":"m 308 997 l 308 0 l 42 0 l 42 997 l 308 997 m 53 1046 l 53 1036 l -90 1036 q -96 1093 -96 1063 q -31 1240 -96 1189 q 64 1269 8 1269 q 189 1243 117 1269 q 272 1217 261 1217 q 308 1267 308 1217 l 308 1281 l 451 1281 q 457 1228 457 1257 q 390 1078 457 1129 q 294 1047 351 1047 q 172 1074 242 1047 q 88 1100 101 1100 q 53 1046 53 1100 z "},"ĩ":{"ha":393,"x_min":-81,"x_max":472,"o":"m 325 747 l 325 0 l 68 0 l 68 747 l 325 747 m 68 796 l 68 786 l -75 786 q -81 843 -81 813 q -15 990 -81 939 q 79 1019 25 1019 q 204 993 133 1019 q 288 967 275 967 q 324 1017 324 967 l 324 1031 l 467 1031 q 472 978 472 1007 q 406 828 472 879 q 310 797 367 797 q 187 824 257 797 q 103 850 117 850 q 68 796 68 850 z "},"Ī":{"ha":350,"x_min":-68,"x_max":417,"o":"m 308 997 l 308 0 l 42 0 l 42 997 l 308 997 m 417 1213 l 417 1060 l -68 1060 l -68 1213 l 417 1213 z "},"ī":{"ha":393,"x_min":-46,"x_max":439,"o":"m 325 747 l 325 0 l 68 0 l 68 747 l 325 747 m 439 963 l 439 810 l -46 810 l -46 963 l 439 963 z "},"Į":{"ha":350,"x_min":31,"x_max":308,"o":"m 308 997 l 308 0 l 268 0 q 236 -35 251 -14 q 213 -96 213 -65 q 267 -156 213 -156 q 308 -147 286 -156 l 308 -301 q 210 -317 254 -317 q 81 -278 132 -317 q 31 -167 31 -239 q 83 -40 31 -97 q 95 -28 88 -36 q 110 -12 103 -19 q 124 0 117 -6 l 42 0 l 42 997 l 308 997 z "},"į":{"ha":340,"x_min":31,"x_max":308,"o":"m 299 747 l 299 0 l 268 0 q 236 -35 251 -14 q 213 -96 213 -65 q 267 -156 213 -156 q 308 -147 286 -156 l 308 -301 q 210 -317 254 -317 q 81 -278 132 -317 q 31 -167 31 -239 q 83 -40 31 -97 q 95 -28 88 -36 q 110 -12 103 -19 q 124 0 117 -6 l 42 0 l 42 747 l 299 747 m 42 822 l 42 1015 l 299 1015 l 299 822 l 42 822 z "},"İ":{"ha":350,"x_min":22,"x_max":328,"o":"m 308 997 l 308 0 l 42 0 l 42 997 l 308 997 m 328 1171 q 285 1074 328 1113 q 175 1036 242 1036 q 65 1074 108 1036 q 22 1171 22 1113 q 65 1269 22 1231 q 175 1307 107 1307 q 285 1269 243 1307 q 328 1171 328 1231 z "},"ı":{"ha":393,"x_min":68,"x_max":325,"o":"m 325 747 l 325 0 l 68 0 l 68 747 l 325 747 z "},"Ĳ":{"ha":928,"x_min":42,"x_max":886,"o":"m 308 997 l 308 0 l 42 0 l 42 997 l 308 997 m 669 0 l 392 0 l 392 250 l 544 250 q 624 328 624 250 l 624 997 l 886 997 l 886 243 q 829 60 886 121 q 669 0 772 0 z "},"ĳ":{"ha":678,"x_min":42,"x_max":643,"o":"m 42 822 l 42 1015 l 299 1015 l 299 822 l 42 822 m 299 747 l 299 0 l 42 0 l 42 747 l 299 747 m 386 822 l 386 1015 l 643 1015 l 643 822 l 386 822 m 385 -37 l 385 749 l 642 749 l 642 -36 q 580 -238 642 -175 q 392 -301 518 -301 l 201 -300 l 201 -78 l 344 -78 q 385 -37 385 -78 z "},"Ĵ":{"ha":578,"x_min":42,"x_max":744,"o":"m 319 0 l 42 0 l 42 250 l 194 250 q 274 328 274 250 l 274 997 l 536 997 l 536 243 q 479 60 536 121 q 319 0 422 0 m 399 1146 l 314 1043 l 53 1043 l 249 1268 l 550 1268 l 744 1043 l 485 1043 l 399 1146 z "},"ĵ":{"ha":392,"x_min":-150,"x_max":542,"o":"m 65 -37 l 65 749 l 322 749 l 322 -36 q 260 -238 322 -175 q 72 -301 199 -301 l -118 -300 l -118 -78 l 25 -78 q 65 -37 65 -78 m 196 896 l 111 793 l -150 793 l 46 1018 l 347 1018 l 542 793 l 282 793 l 196 896 z "},"Ķ":{"ha":928,"x_min":35,"x_max":921,"o":"m 301 396 l 301 0 l 35 0 l 35 997 l 301 997 l 301 601 l 572 997 l 911 997 l 560 503 l 921 0 l 572 0 l 301 396 m 338 -242 l 338 -49 l 532 -49 l 532 -201 q 490 -327 532 -279 q 360 -375 449 -375 l 360 -300 l 367 -300 q 418 -283 397 -300 q 439 -242 439 -267 l 338 -242 z "},"ķ":{"ha":799,"x_min":35,"x_max":788,"o":"m 292 142 l 292 0 l 35 0 l 35 997 l 292 997 l 292 513 l 472 747 l 749 747 l 472 393 l 788 0 l 493 0 l 343 211 l 292 142 m 303 -242 l 303 -49 l 497 -49 l 497 -201 q 456 -327 497 -279 q 325 -375 414 -375 l 325 -300 l 332 -300 q 383 -283 363 -300 q 404 -242 404 -267 l 303 -242 z "},"ĸ":{"ha":799,"x_min":35,"x_max":788,"o":"m 292 142 l 292 0 l 35 0 l 35 747 l 292 747 l 292 513 l 472 747 l 749 747 l 472 393 l 788 0 l 493 0 l 343 211 l 292 142 z "},"Ĺ":{"ha":751,"x_min":35,"x_max":717,"o":"m 717 250 l 717 0 l 35 0 l 35 997 l 301 997 l 301 250 l 717 250 m 471 1268 l 303 1043 l 58 1043 l 197 1268 l 471 1268 z "},"ĺ":{"ha":326,"x_min":35,"x_max":447,"o":"m 292 1057 l 292 0 l 35 0 l 35 1057 l 292 1057 m 447 1347 l 279 1122 l 35 1122 l 174 1347 l 447 1347 z "},"Ļ":{"ha":751,"x_min":35,"x_max":717,"o":"m 717 250 l 717 0 l 35 0 l 35 997 l 301 997 l 301 250 l 717 250 m 263 -242 l 263 -49 l 457 -49 l 457 -201 q 415 -327 457 -279 q 285 -375 374 -375 l 285 -300 l 292 -300 q 343 -283 322 -300 q 364 -242 364 -267 l 263 -242 z "},"ļ":{"ha":326,"x_min":35,"x_max":292,"o":"m 292 1057 l 292 0 l 35 0 l 35 1057 l 292 1057 m 53 -242 l 53 -49 l 247 -49 l 247 -201 q 206 -327 247 -279 q 75 -375 164 -375 l 75 -300 l 82 -300 q 133 -283 113 -300 q 154 -242 154 -267 l 53 -242 z "},"Ľ":{"ha":751,"x_min":35,"x_max":717,"o":"m 717 250 l 717 0 l 35 0 l 35 997 l 301 997 l 301 250 l 717 250 m 472 793 l 472 986 l 667 986 l 667 833 q 625 708 667 756 q 494 660 583 660 l 494 735 l 500 735 q 553 751 532 735 q 575 793 575 767 l 472 793 z "},"ľ":{"ha":538,"x_min":35,"x_max":514,"o":"m 292 1057 l 292 0 l 35 0 l 35 1057 l 292 1057 m 319 864 l 319 1057 l 514 1057 l 514 904 q 472 778 514 826 q 342 731 431 731 l 342 806 l 347 806 q 401 822 379 806 q 422 864 422 838 l 319 864 z "},"Ŀ":{"ha":751,"x_min":35,"x_max":717,"o":"m 717 250 l 717 0 l 35 0 l 35 997 l 301 997 l 301 250 l 717 250 m 688 590 q 646 481 688 524 q 538 439 604 439 q 428 481 471 439 q 386 590 386 524 q 428 701 386 658 q 538 743 471 743 q 646 701 604 743 q 688 590 688 658 z "},"ŀ":{"ha":639,"x_min":35,"x_max":621,"o":"m 292 1057 l 292 0 l 35 0 l 35 1057 l 292 1057 m 621 581 q 579 472 621 514 q 471 429 538 429 q 362 472 404 429 q 319 581 319 514 q 362 691 319 649 q 471 733 404 733 q 579 691 538 733 q 621 581 621 649 z "},"Ł":{"ha":821,"x_min":-22,"x_max":779,"o":"m 779 238 l 779 0 l 97 0 l 97 357 l -22 329 l -22 538 l 97 565 l 97 997 l 360 997 l 360 626 l 638 690 l 638 483 l 360 418 l 360 238 l 779 238 z "},"ł":{"ha":396,"x_min":-39,"x_max":429,"o":"m 318 433 l 318 0 l 78 0 l 78 382 l -39 357 l -39 554 l 78 579 l 78 997 l 318 997 l 318 632 l 429 656 l 429 457 l 318 433 z "},"Ń":{"ha":960,"x_min":35,"x_max":925,"o":"m 925 0 l 611 0 l 299 606 l 299 0 l 35 0 l 35 997 l 378 997 l 661 438 l 661 997 l 925 997 l 925 0 m 774 1268 l 606 1043 l 361 1043 l 500 1268 l 774 1268 z "},"ń":{"ha":761,"x_min":35,"x_max":726,"o":"m 292 396 l 292 0 l 35 0 l 35 747 l 292 747 l 292 661 q 301 675 300 674 q 489 761 363 761 q 679 672 632 761 q 726 396 726 583 l 726 0 l 469 0 l 469 396 q 381 538 469 538 q 292 396 292 538 m 671 1018 l 503 793 l 258 793 l 397 1018 l 671 1018 z "},"Ņ":{"ha":960,"x_min":35,"x_max":925,"o":"m 925 0 l 611 0 l 299 606 l 299 0 l 35 0 l 35 997 l 378 997 l 661 438 l 661 997 l 925 997 l 925 0 m 378 -242 l 378 -49 l 572 -49 l 572 -201 q 531 -327 572 -279 q 400 -375 489 -375 l 400 -300 l 407 -300 q 458 -283 438 -300 q 479 -242 479 -267 l 378 -242 z "},"ņ":{"ha":761,"x_min":35,"x_max":726,"o":"m 292 396 l 292 0 l 35 0 l 35 747 l 292 747 l 292 661 q 301 675 300 674 q 489 761 363 761 q 679 672 632 761 q 726 396 726 583 l 726 0 l 469 0 l 469 396 q 381 538 469 538 q 292 396 292 538 m 275 -242 l 275 -49 l 469 -49 l 469 -201 q 428 -327 469 -279 q 297 -375 386 -375 l 297 -300 l 304 -300 q 356 -283 335 -300 q 376 -242 376 -267 l 275 -242 z "},"Ň":{"ha":960,"x_min":35,"x_max":925,"o":"m 925 0 l 611 0 l 299 606 l 299 0 l 35 0 l 35 997 l 378 997 l 661 438 l 661 997 l 925 997 l 925 0 m 826 1268 l 632 1043 l 331 1043 l 135 1268 l 396 1268 l 481 1165 l 567 1268 l 826 1268 z "},"ň":{"ha":761,"x_min":35,"x_max":726,"o":"m 292 396 l 292 0 l 35 0 l 35 747 l 292 747 l 292 661 q 301 675 300 674 q 489 761 363 761 q 679 672 632 761 q 726 396 726 583 l 726 0 l 469 0 l 469 396 q 381 538 469 538 q 292 396 292 538 m 726 1018 l 532 793 l 231 793 l 35 1018 l 296 1018 l 381 915 l 467 1018 l 726 1018 z "},"ŉ":{"ha":761,"x_min":-136,"x_max":726,"o":"m 292 396 l 292 0 l 35 0 l 35 747 l 292 747 l 292 661 q 301 675 300 674 q 489 761 363 761 q 679 672 632 761 q 726 396 726 583 l 726 0 l 469 0 l 469 396 q 381 538 469 538 q 292 396 292 538 m -136 946 l -136 1139 l 58 1139 l 58 986 q 17 860 58 908 q -114 813 -25 813 l -114 888 l -108 888 q -55 903 -76 888 q -33 946 -33 919 l -136 946 z "},"Ō":{"ha":1099,"x_min":35,"x_max":1064,"o":"m 915 127 q 841 53 915 127 q 549 -21 767 -21 q 183 127 331 -21 q 35 500 35 275 q 183 871 35 724 q 549 1018 331 1018 q 915 871 767 1018 q 1064 500 1064 724 q 915 127 1064 275 m 369 308 q 402 269 369 308 q 549 231 435 231 q 728 308 663 231 q 793 500 793 385 q 728 690 793 614 q 549 767 663 767 q 369 690 435 767 q 304 500 304 614 q 369 308 304 385 m 792 1213 l 792 1060 l 307 1060 l 307 1213 l 792 1213 z "},"ō":{"ha":836,"x_min":28,"x_max":808,"o":"m 696 99 q 640 43 696 99 q 418 -14 583 -14 q 140 99 253 -14 q 28 374 28 213 q 140 648 28 535 q 418 761 253 761 q 696 648 583 761 q 808 374 808 535 q 696 99 808 213 m 324 254 q 343 233 324 254 q 418 211 363 211 q 513 253 474 211 q 551 374 551 296 q 513 493 551 451 q 418 535 474 535 q 324 493 363 535 q 285 374 285 451 q 324 254 285 297 m 661 963 l 661 810 l 176 810 l 176 963 l 661 963 z "},"Ŏ":{"ha":1099,"x_min":35,"x_max":1064,"o":"m 915 127 q 841 53 915 127 q 549 -21 767 -21 q 183 127 331 -21 q 35 500 35 275 q 183 871 35 724 q 549 1018 331 1018 q 915 871 767 1018 q 1064 500 1064 724 q 915 127 1064 275 m 369 308 q 402 269 369 308 q 549 231 435 231 q 728 308 663 231 q 793 500 793 385 q 728 690 793 614 q 549 767 663 767 q 369 690 435 767 q 304 500 304 614 q 369 308 304 385 m 644 1268 l 810 1268 q 740 1099 810 1161 q 550 1036 671 1036 q 358 1099 428 1036 q 289 1268 289 1161 l 456 1268 q 481 1206 456 1228 q 550 1185 507 1185 q 644 1268 644 1185 z "}}}
